<svg xmlns="http://www.w3.org/2000/svg"  viewBox="0 0 64 64" width="64px" height="64px"><radialGradient id="ERbwuwXuQOf5_Vq804Yrva" cx="34.064" cy="37.255" r="65.573" gradientUnits="userSpaceOnUse"><stop offset="0" stop-color="#f4e09d"/><stop offset=".226" stop-color="#f8e8b5"/><stop offset=".513" stop-color="#fcf0cd"/><stop offset=".778" stop-color="#fef4dc"/><stop offset="1" stop-color="#fff6e1"/></radialGradient><path fill="url(#ERbwuwXuQOf5_Vq804Yrva)" d="M52,17h9c2.519,0,4.333-3.132,1.733-5.688C62.523,11.105,62.226,11,61.931,11H50.5	c-0.83,0-2.5-0.43-2.5-2.43S49.67,6,50.5,6h5.91c1.14,0,2.2-0.72,2.5-1.82C59.35,2.52,58.1,1,56.5,1H6.661	C5.483,1,4.357,1.736,4.075,2.88C3.67,4.516,4.919,6,6.5,6h9C16.88,6,18,7.62,18,9s-1.12,3-2.5,3H3.182	c-1.481,0-2.865,0.987-3.131,2.444C-0.295,16.335,1.168,18,3,18h23c0.35,0,0.68-0.07,1-0.18V25H3.5c-0.69,0-1.32,0.28-1.77,0.73	c-0.409,0.409-0.678,0.968-0.723,1.584C0.899,28.788,2.218,30,3.695,30h0.118c1.216,0,2.302,1.003,2.176,2.212	C5.94,32.678,5.732,33.097,5.41,33.41C5.05,33.78,4.55,34,4,34H2.64c-1.179,0-2.299,0.747-2.569,1.895	C-0.315,37.537,0.923,39,2.5,39h0.824c1.326,0,2.549,0.951,2.666,2.272C6.121,42.755,4.955,44,3.5,44H2.767	c-0.9,0-1.778,0.427-2.24,1.199C-0.892,47.568,0.764,50,3,50h2.322c1.327,0,2.552,0.952,2.668,2.274C8.12,53.756,6.955,55,5.5,55	H4.767c-0.9,0-1.778,0.427-2.24,1.199C1.108,58.568,2.764,61,5,61h53.806c1.642,0,3.124-1.232,3.191-2.873	C62.068,56.409,60.702,55,59,55h-0.322c-1.327,0-2.552-0.952-2.668-2.274C55.88,51.244,57.045,50,58.5,50h2.306	c1.642,0,3.124-1.232,3.191-2.873C64.068,45.409,62.702,44,61,44h-1c-1.105,0-2-0.895-2-2l0,0c0-1.105,0.895-2,2-2h0.804	c1.639,0,3.12-1.226,3.193-2.864C64.073,35.417,62.702,34,61,34h-1c-1.105,0-2-0.895-2-2l0,0c0-1.105,0.895-2,2-2h1.41	c1.14,0,2.2-0.72,2.5-1.82C64.35,26.52,63.1,25,61.5,25H53c-1.1,0-3-4.9-3-6S50.9,17,52,17z"/><linearGradient id="ERbwuwXuQOf5_Vq804Yrvb" x1="14.501" x2="14.501" y1="35.362" y2="57.605" gradientTransform="matrix(1 0 0 -1 0 66)" gradientUnits="userSpaceOnUse"><stop offset="0" stop-color="#a4a4a4"/><stop offset=".63" stop-color="#7f7f7f"/><stop offset="1" stop-color="#6f6f6f"/><stop offset="1" stop-color="#6f6f6f"/></linearGradient><path fill="url(#ERbwuwXuQOf5_Vq804Yrvb)" d="M21.073,12.985c3.295,3.926,3.023,9.579-0.607,12.625s-9.244,2.332-12.538-1.594	s-3.023-9.579,0.607-12.625S17.778,9.058,21.073,12.985z"/><linearGradient id="ERbwuwXuQOf5_Vq804Yrvc" x1="49.547" x2="49.547" y1="35.362" y2="57.605" gradientTransform="matrix(1 0 0 -1 0 66)" gradientUnits="userSpaceOnUse"><stop offset="0" stop-color="#a4a4a4"/><stop offset=".63" stop-color="#7f7f7f"/><stop offset="1" stop-color="#6f6f6f"/><stop offset="1" stop-color="#6f6f6f"/></linearGradient><path fill="url(#ERbwuwXuQOf5_Vq804Yrvc)" d="M43.026,13.068c-3.295,3.926-3.046,9.559,0.556,12.581s9.192,2.289,12.487-1.637	s3.046-9.559-0.556-12.581S46.321,9.141,43.026,13.068z"/><path fill="#fff" d="M56.451,39.548c0,15.484-15.145,18.181-24.733,18.181c-9.122,0-24.168-2.698-24.168-18.181	C7.549,26.187,18.761,11,32,11S56.451,26.187,56.451,39.548z"/><linearGradient id="ERbwuwXuQOf5_Vq804Yrvd" x1="159.123" x2="159.123" y1="637.52" y2="596.38" gradientTransform="rotate(45 -630.08 -412.228) scale(.8952 -.9066)" gradientUnits="userSpaceOnUse"><stop offset="0" stop-color="#a4a4a4"/><stop offset=".63" stop-color="#7f7f7f"/><stop offset="1" stop-color="#6f6f6f"/><stop offset="1" stop-color="#6f6f6f"/></linearGradient><path fill="url(#ERbwuwXuQOf5_Vq804Yrvd)" d="M17.139,22.307c2.832-2.832,7.537-2.72,10.509,0.252s3.084,7.676,0.252,10.509	s-10.101,5.284-13.073,2.312S14.307,25.14,17.139,22.307z"/><linearGradient id="ERbwuwXuQOf5_Vq804Yrve" x1="-843.599" x2="-843.599" y1="-352.532" y2="-393.671" gradientTransform="rotate(135 -431.983 11.327) scale(.8952 .9066)" gradientUnits="userSpaceOnUse"><stop offset="0" stop-color="#a4a4a4"/><stop offset=".63" stop-color="#7f7f7f"/><stop offset="1" stop-color="#6f6f6f"/><stop offset="1" stop-color="#6f6f6f"/></linearGradient><path fill="url(#ERbwuwXuQOf5_Vq804Yrve)" d="M46.841,22.307c-2.832-2.832-7.537-2.72-10.509,0.252s-3.084,7.676-0.252,10.509	s10.101,5.284,13.073,2.312S49.674,25.14,46.841,22.307z"/><path fill="#717171" d="M37.463,26.601c0.612,0,1.176,0.383,1.356,0.974c0.31,1.016,1.433,1.726,2.731,1.726	s2.422-0.71,2.731-1.727c0.218-0.716,1.002-1.126,1.75-0.919c0.749,0.208,1.18,0.957,0.961,1.673C46.335,30.49,44.096,32,41.55,32	c-2.547,0-4.786-1.51-5.444-3.672c-0.217-0.715,0.213-1.465,0.961-1.673C37.199,26.618,37.333,26.601,37.463,26.601z"/><path fill="#717171" d="M26.429,26.655c0.749,0.208,1.179,0.957,0.961,1.673C26.732,30.49,24.493,32,21.947,32	s-4.786-1.51-5.443-3.672c-0.218-0.715,0.213-1.465,0.961-1.673c0.749-0.207,1.532,0.202,1.75,0.919	c0.31,1.017,1.433,1.727,2.731,1.727s2.422-0.71,2.731-1.726c0.18-0.59,0.744-0.974,1.356-0.974	C26.164,26.601,26.297,26.618,26.429,26.655z"/><path fill="none" stroke="#717171" stroke-linecap="round" stroke-linejoin="round" stroke-miterlimit="10" stroke-width="2" d="M33.014,46.014c2.648,0,2.648,3.972,0,3.972"/><path fill="none" stroke="#717171" stroke-linecap="round" stroke-linejoin="round" stroke-miterlimit="10" stroke-width="2" d="M33.014,50.014c2.648,0,2.648,3.972,0,3.972"/><linearGradient id="ERbwuwXuQOf5_Vq804Yrvf" x1="32" x2="32" y1="33.142" y2="18.744" gradientTransform="matrix(1 0 0 -1 0 66)" gradientUnits="userSpaceOnUse"><stop offset="0" stop-color="#a4a4a4"/><stop offset=".63" stop-color="#7f7f7f"/><stop offset="1" stop-color="#6f6f6f"/><stop offset="1" stop-color="#6f6f6f"/></linearGradient><path fill="url(#ERbwuwXuQOf5_Vq804Yrvf)" d="M33.818,36c-0.695,0-1.32,0.29-1.761,0.751c-0.016,0.016-0.036,0.025-0.057,0.025	s-0.041-0.008-0.057-0.025C31.502,36.29,30.877,36,30.182,36c-0.082,0-0.165,0.004-0.249,0.012	c-1.128,0.111-2.045,1.012-2.162,2.123c-0.009,0.085-0.014,0.169-0.014,0.253c-0.001,0.707,0.312,1.34,0.806,1.777l0,0l0,0	l-0.002,0.002l3.133,2.707C31.779,42.958,31.889,43,32,43s0.221-0.042,0.306-0.125l3.143-2.716l-0.002-0.002l0,0	c0.488-0.437,0.796-1.066,0.795-1.768c0-0.035-0.001-0.069-0.002-0.104c-0.051-1.172-0.991-2.156-2.174-2.273	C33.982,36.004,33.9,36,33.818,36L33.818,36z"/><linearGradient id="ERbwuwXuQOf5_Vq804Yrvg" x1="46" x2="46" y1="21" y2="27" gradientTransform="matrix(1 0 0 -1 0 66)" gradientUnits="userSpaceOnUse"><stop offset="0" stop-color="#ff5840"/><stop offset=".007" stop-color="#ff5840"/><stop offset=".989" stop-color="#fa528c"/><stop offset="1" stop-color="#fa528c"/></linearGradient><ellipse cx="46" cy="42" fill="url(#ERbwuwXuQOf5_Vq804Yrvg)" rx="4" ry="3"/><linearGradient id="ERbwuwXuQOf5_Vq804Yrvh" x1="19" x2="19" y1="21" y2="27" gradientTransform="matrix(1 0 0 -1 0 66)" gradientUnits="userSpaceOnUse"><stop offset="0" stop-color="#ff5840"/><stop offset=".007" stop-color="#ff5840"/><stop offset=".989" stop-color="#fa528c"/><stop offset="1" stop-color="#fa528c"/></linearGradient><ellipse cx="19" cy="42" fill="url(#ERbwuwXuQOf5_Vq804Yrvh)" rx="4" ry="3"/></svg>