<svg xmlns="http://www.w3.org/2000/svg"  viewBox="0 0 64 64" width="64px" height="64px"><radialGradient id="_ipKGpLILLRsd8p5hvJYia" cx="32" cy="-8788" r="31.504" gradientTransform="matrix(1 0 0 -1 0 -8756)" gradientUnits="userSpaceOnUse"><stop offset="0" stop-color="#f4e9c3"/><stop offset=".219" stop-color="#f8eecd"/><stop offset=".644" stop-color="#fdf4dc"/><stop offset="1" stop-color="#fff6e1"/></radialGradient><path fill="url(#_ipKGpLILLRsd8p5hvJYia)" d="M51,17h8c1.851,0,3.321-1.692,2.939-3.603C61.654,11.972,60.315,11,58.862,11l-5.867-0.006	C51.341,10.993,50,9.652,50,7.997l0,0C50,6.342,51.342,5,52.997,5h3.408c1.139,0,2.206-0.719,2.505-1.818	C59.361,1.521,58.101,0,56.5,0H7.595C6.456,0,5.39,0.719,5.091,1.818C4.639,3.479,5.899,5,7.5,5h3c0.69,0,1.32,0.28,1.77,0.73	c0.417,0.417,0.688,0.988,0.725,1.618C13.083,8.804,11.799,10,10.34,10H4.131c-1.451,0-2.789,0.972-3.071,2.395	C0.681,14.307,2.152,16,4,16h10l-4,9.721L13,44H5.712c-2.347,0-4.453,1.704-4.689,4.038C0.752,50.718,2.873,53,5.5,53h0.855	c1.308,0,2.5,0.94,2.631,2.241C9.138,56.737,7.965,58,6.5,58H5.165c-1.626,0-3.079,1.221-3.161,2.844C1.917,62.575,3.288,64,5,64	h53.835c1.626,0,3.079-1.221,3.161-2.844C62.083,59.425,60.712,58,59,58h-1.355c-1.308,0-2.5-0.94-2.631-2.241	C54.862,54.263,56.035,53,57.5,53h0.788c2.347,0,4.453-1.704,4.689-4.039C63.247,46.282,61.127,44,58.5,44H50l4-18.003L51,17z"/><linearGradient id="_ipKGpLILLRsd8p5hvJYib" x1="31.916" x2="31.916" y1="557.199" y2="544.508" gradientTransform="translate(0 -534)" gradientUnits="userSpaceOnUse"><stop offset="0" stop-color="#155cde"/><stop offset="1" stop-color="#2eb5f0"/></linearGradient><path fill="url(#_ipKGpLILLRsd8p5hvJYib)" d="M11.624,20.695l-0.355-0.137C14.635,11.851,22.966,6,32,6c8.535,0,16.414,5.051,20.563,13.182	l-0.128,0.065c-3.538,1.806-7.832,1.259-10.781-1.402C38.943,15.399,35.547,14,32,14c-4.039,0-7.44,1.828-9.876,4.288	C19.36,21.078,15.287,22.111,11.624,20.695z"/><linearGradient id="_ipKGpLILLRsd8p5hvJYic" x1="22.923" x2="22.151" y1="26.465" y2="-19.08" gradientTransform="translate(0 -534)" gradientUnits="userSpaceOnUse"><stop offset=".122" stop-color="#5e6d7b"/><stop offset=".191" stop-color="#5d6b79"/><stop offset="1" stop-color="#515c69"/></linearGradient><path fill="url(#_ipKGpLILLRsd8p5hvJYic)" d="M14.143,43.369C10.182,39.144,8,33.686,8,28C8,15.318,18.766,5,32,5 c13.233,0,24,10.318,24,23c0,5.686-2.182,11.144-6.143,15.368l-2.918-2.736C50.203,37.151,52,32.666,52,28c0-10.477-8.972-19-20-19 s-20,8.523-20,19c0,4.666,1.797,9.152,5.061,12.633L14.143,43.369z"/><linearGradient id="_ipKGpLILLRsd8p5hvJYid" x1="137.619" x2="137.619" y1="452.406" y2="417.438" gradientTransform="rotate(11 2085.024 -222.113)" gradientUnits="userSpaceOnUse"><stop offset="0" stop-color="#155cde"/><stop offset="1" stop-color="#2eb5f0"/></linearGradient><path fill="url(#_ipKGpLILLRsd8p5hvJYid)" d="M54.616,43.598l-1.145,5.89c-0.948,4.879-5.673,8.066-10.552,7.117l-0.982-0.191l4.579-23.559	l0.982,0.191C52.377,33.995,55.564,38.719,54.616,43.598z"/><linearGradient id="_ipKGpLILLRsd8p5hvJYie" x1="137.524" x2="137.524" y1="447.277" y2="412.837" gradientTransform="rotate(11 2085.024 -222.113)" gradientUnits="userSpaceOnUse"><stop offset="0" stop-color="#155cde"/><stop offset=".486" stop-color="#2185e6"/><stop offset="1" stop-color="#2eb5f0"/></linearGradient><path fill="url(#_ipKGpLILLRsd8p5hvJYie)" d="M54.23,45.581l-0.759,3.907c-0.948,4.879-5.673,8.066-10.552,7.117l-0.442-0.086	c0,0-0.002,0.01-0.014,0.018l-0.717-0.139L42.7,51.49l4.908,0.954c0.54,0.105,1.073-0.016,1.497-0.31	c0.432-0.283,0.743-0.732,0.848-1.272s-0.016-1.072-0.31-1.497c-0.283-0.432-0.732-0.743-1.272-0.848s-0.989-0.417-1.272-0.848	c-0.294-0.424-0.415-0.957-0.31-1.497c0.21-1.08,1.265-1.792,2.345-1.582L54.23,45.581z"/><linearGradient id="_ipKGpLILLRsd8p5hvJYif" x1="129.62" x2="129.62" y1="439.98" y2="416.746" gradientTransform="rotate(11 2085.024 -222.113)" gradientUnits="userSpaceOnUse"><stop offset="0" stop-color="#6f7a85"/><stop offset="1" stop-color="#788490"/></linearGradient><path fill="url(#_ipKGpLILLRsd8p5hvJYif)" d="M47.161,34.784l-3.904,20.084c-0.122,0.628-0.394,1.187-0.779,1.652	c0,0-0.002,0.01-0.014,0.018c-0.844,1.038-2.223,1.585-3.627,1.312l-0.452-0.088c-2.042-0.397-3.378-2.378-2.981-4.42l3.904-20.084	c0.397-2.042,2.378-3.378,4.42-2.981l0.452,0.088c1.414,0.275,2.496,1.31,2.877,2.597C47.24,33.536,47.283,34.155,47.161,34.784z"/><linearGradient id="_ipKGpLILLRsd8p5hvJYig" x1="-100.528" x2="-100.528" y1="732.326" y2="697.359" gradientTransform="rotate(-11 -3488.542 -222.397)" gradientUnits="userSpaceOnUse"><stop offset="0" stop-color="#155cde"/><stop offset="1" stop-color="#2eb5f0"/></linearGradient><path fill="url(#_ipKGpLILLRsd8p5hvJYig)" d="M17.571,32.751L22.15,56.31l-0.982,0.191c-3.063,0.595-6.066-0.441-8.106-2.499	c-1.166-1.179-2.029-2.682-2.396-4.414c-0.023-0.067-0.037-0.136-0.05-0.204l-1.145-5.89C9.198,42.09,9.27,40.681,9.63,39.388	c0.878-3.186,3.493-5.772,6.958-6.446L17.571,32.751z"/><linearGradient id="_ipKGpLILLRsd8p5hvJYih" x1="-100.528" x2="-100.528" y1="712.323" y2="695.473" gradientTransform="rotate(-11 -3488.542 -222.397)" gradientUnits="userSpaceOnUse"><stop offset="0" stop-color="#40aeef"/><stop offset="1" stop-color="#43bdf2"/></linearGradient><path fill="url(#_ipKGpLILLRsd8p5hvJYih)" d="M17.571,32.751l0.99,5.095c-0.106,0.031-0.212,0.062-0.32,0.083l-5.399,1.049	c-0.54,0.105-0.989,0.416-1.272,0.848c-0.294,0.424-0.415,0.957-0.31,1.497s0.416,0.989,0.848,1.272	c0.424,0.294,0.957,0.415,1.497,0.31c0.815-0.158,1.616,0.032,2.249,0.459c0.633,0.427,1.11,1.098,1.268,1.913	c0.317,1.63-0.743,3.201-2.372,3.517l-4.084,0.794c-0.023-0.067-0.037-0.136-0.05-0.204l-1.145-5.89	C9.198,42.09,9.27,40.681,9.63,39.388c0.878-3.186,3.493-5.772,6.958-6.446L17.571,32.751z"/><linearGradient id="_ipKGpLILLRsd8p5hvJYii" x1="-92.357" x2="-92.357" y1="720.111" y2="695.025" gradientTransform="rotate(-11 -3489.542 -221.397)" gradientUnits="userSpaceOnUse"><stop offset="0" stop-color="#6f7a85"/><stop offset="1" stop-color="#788490"/></linearGradient><path fill="url(#_ipKGpLILLRsd8p5hvJYii)" d="M25.699,57.659l-0.449,0.087c-2.045,0.397-4.024-0.938-4.422-2.982l-3.903-20.082	c-0.397-2.045,0.938-4.024,2.982-4.422l0.449-0.087c2.045-0.397,4.024,0.938,4.422,2.982l3.903,20.082	C29.079,55.282,27.744,57.261,25.699,57.659z"/></svg>