<svg xmlns="http://www.w3.org/2000/svg"  viewBox="0 0 64 64" width="64px" height="64px"><radialGradient id="HNGtqD2N6iuQgXAHpj6Nma" cx="32" cy="35" r="31.504" gradientTransform="matrix(1 0 0 -1 0 66)" gradientUnits="userSpaceOnUse"><stop offset="0" stop-color="#eed7a2"/><stop offset=".106" stop-color="#f1dcab"/><stop offset=".437" stop-color="#f8e8c3"/><stop offset=".744" stop-color="#fcefd2"/><stop offset="1" stop-color="#fef2d7"/></radialGradient><path fill="url(#HNGtqD2N6iuQgXAHpj6Nma)" d="M62.98,58.41C62.77,60.49,60.9,62,58.81,62H4c-2.34,0-4.22-2.03-3.98-4.41	C0.23,55.51,2.1,54,4.19,54H6c1.11,0,2-0.9,2-2c0-0.55-0.22-1.05-0.58-1.41C7.06,50.22,6.56,50,6,50c-1.65,0-3-1.35-3-3s1.35-3,3-3	h16V34H4c-2.34,0-4.22-2.03-3.98-4.41C0.23,27.51,2.1,26,4.19,26H8.5c1.93,0,3.5-1.57,3.5-3.5S10.43,19,8.5,19H5	c-2.34,0-4.22-2.03-3.98-4.41C1.23,12.51,3.1,11,5.19,11h18.82c0.83,0,1.58-0.34,2.12-0.88c0.26-0.26,0.47-0.57,0.62-0.91	c0.01-0.01,0.01-0.02,0.01-0.03c0.16-0.36,0.25-0.76,0.25-1.18c0-0.06,0-0.12-0.01-0.18c0-0.01,0-0.01,0-0.02	C26.9,6.23,25.6,5,24.01,5H15.5c-1.47,0-2.64-1.26-2.49-2.76C13.14,0.94,14.34,0,15.64,0H48.5c1.47,0,2.64,1.26,2.49,2.76	C50.86,4.06,49.66,5,48.36,5H46c-0.83,0-1.58,0.34-2.12,0.88c-0.49,0.49-0.82,1.16-0.87,1.9C43,7.85,43,7.93,43,8	c0,0.53,0.14,1.02,0.37,1.45C43.88,10.38,44.87,11,46,11h13.5c1.47,0,2.64,1.26,2.49,2.76c-0.13,1.3-1.33,2.24-2.63,2.24H56	c-1.1,0-2,0.9-2,2s0.9,2,2,2h3.81c2.09,0,3.96,1.51,4.17,3.59C64.22,25.97,62.33,28,60,28H42v4h18c1.65,0,3,1.35,3,3s-1.35,3-3,3H50	c-1.38,0-2.5,1.12-2.5,2.5S48.62,43,50,43h10.5c1.92,0,3.5,1.58,3.5,3.5S62.42,50,60.5,50H59c-1.1,0-2,0.9-2,2s0.9,2,2,2	C61.33,54,63.22,56.03,62.98,58.41z"/><linearGradient id="HNGtqD2N6iuQgXAHpj6Nmb" x1="32" x2="32" y1="54.745" y2="12.186" gradientTransform="matrix(1 0 0 -1 0 66)" gradientUnits="userSpaceOnUse"><stop offset="0" stop-color="#dff9ff"/><stop offset="0" stop-color="#dff9ff"/><stop offset=".173" stop-color="#d8f8ff"/><stop offset=".423" stop-color="#c5f4ff"/><stop offset=".72" stop-color="#a5eeff"/><stop offset="1" stop-color="#81e7ff"/></linearGradient><path fill="url(#HNGtqD2N6iuQgXAHpj6Nmb)" d="M58,13v29c0,2.05-1.24,3.81-3,4.59C54.39,46.85,53.71,47,53,47H11c-0.71,0-1.39-0.15-2-0.41	C7.24,45.81,6,44.05,6,42V13c0-0.71,0.15-1.39,0.41-2C6.92,9.85,7.85,8.92,9,8.42C9.61,8.15,10.29,8,11,8h42	c0.71,0,1.39,0.15,2,0.42c1.15,0.5,2.08,1.43,2.59,2.58C57.85,11.61,58,12.29,58,13z"/><linearGradient id="HNGtqD2N6iuQgXAHpj6Nmc" x1="48.5" x2="48.5" y1=".234" y2="46.026" gradientTransform="matrix(1 0 0 -1 0 66)" gradientUnits="userSpaceOnUse"><stop offset="0" stop-color="#89e4fa"/><stop offset=".406" stop-color="#94e8fc"/><stop offset="1" stop-color="#acf0ff"/></linearGradient><path fill="url(#HNGtqD2N6iuQgXAHpj6Nmc)" d="M47,28.5L47,28.5c0,1.381,1.119,2.5,2.5,2.5l0,0c1.381,0,2.5,1.119,2.5,2.5l0,0	c0,1.381-1.119,2.5-2.5,2.5h-7c-1.381,0-2.5,1.119-2.5,2.5l0,0c0,1.381,1.119,2.5,2.5,2.5H57v-5v-5v-5h-7.5	C48.119,26,47,27.119,47,28.5z"/><linearGradient id="HNGtqD2N6iuQgXAHpj6Nmd" x1="32" x2="32" y1="14.532" y2="19.16" gradientTransform="matrix(1 0 0 -1 0 66)" gradientUnits="userSpaceOnUse"><stop offset=".122" stop-color="#5e6d7b"/><stop offset=".191" stop-color="#5d6b79"/><stop offset="1" stop-color="#515c69"/></linearGradient><polygon fill="url(#HNGtqD2N6iuQgXAHpj6Nmd)" points="29,47 35,47 37,52 27,52"/><linearGradient id="HNGtqD2N6iuQgXAHpj6Nme" x1="32" x2="32" y1="11.383" y2="13.766" gradientTransform="matrix(1 0 0 -1 0 66)" gradientUnits="userSpaceOnUse"><stop offset="0" stop-color="#6f7a85"/><stop offset="1" stop-color="#788490"/></linearGradient><path fill="url(#HNGtqD2N6iuQgXAHpj6Nme)" d="M20,51h24c1.657,0,3,1.343,3,3l0,0c0,0.552-0.448,1-1,1H18c-0.552,0-1-0.448-1-1l0,0	C17,52.343,18.343,51,20,51z"/><linearGradient id="HNGtqD2N6iuQgXAHpj6Nmf" x1="17.5" x2="17.5" y1="25" y2="56.181" gradientTransform="matrix(1 0 0 -1 0 66)" gradientUnits="userSpaceOnUse"><stop offset="0" stop-color="#ecf9fd"/><stop offset=".848" stop-color="#f2fdff"/><stop offset="1" stop-color="#f4feff"/></linearGradient><path fill="url(#HNGtqD2N6iuQgXAHpj6Nmf)" d="M15.03,15.33c0.16,0.98,1.08,1.67,2.08,1.67h3.39c1.47,0,2.63,1.25,2.49,2.75	c-0.12,1.3-1.32,2.25-2.63,2.25H19.5c-1.47,0-2.63,1.25-2.49,2.75c0.12,1.3,1.32,2.25,2.63,2.25h2.86c1.47,0,2.63,1.25,2.49,2.75	c-0.12,1.3-1.32,2.25-2.63,2.25H15c-1.21,0-2.17,1.07-1.97,2.33c0.16,0.98,1.08,1.67,2.08,1.67h0.39c1.47,0,2.63,1.25,2.49,2.75	c-0.12,1.3-1.32,2.25-2.63,2.25H8V10h19c0,1.66-1.34,3-3,3h-7C15.79,13,14.83,14.07,15.03,15.33z"/><linearGradient id="HNGtqD2N6iuQgXAHpj6Nmg" x1="32" x2="32" y1="20.277" y2="56.107" gradientTransform="matrix(1 0 0 -1 0 66)" gradientUnits="userSpaceOnUse"><stop offset="0" stop-color="#6f7a85"/><stop offset="1" stop-color="#788490"/></linearGradient><path fill="url(#HNGtqD2N6iuQgXAHpj6Nmg)" d="M35,47h18c0.71,0,1.39-0.15,2-0.41c1.76-0.78,3-2.54,3-4.59V13c0-0.71-0.15-1.39-0.41-2	C57.08,9.85,56.15,8.92,55,8.42C54.39,8.15,53.71,8,53,8H11c-0.71,0-1.39,0.15-2,0.42C7.85,8.92,6.92,9.85,6.41,11	C6.15,11.61,6,12.29,6,13v29c0,2.05,1.24,3.81,3,4.59C9.61,46.85,10.29,47,11,47h18H35z M8,41V13c0-0.412,0.086-0.833,0.238-1.189	c0.307-0.692,0.875-1.26,1.571-1.563C10.182,10.083,10.583,10,11,10h42c0.417,0,0.818,0.083,1.203,0.254	c0.684,0.297,1.252,0.865,1.548,1.53C55.914,12.167,56,12.588,56,13v28H8z"/><linearGradient id="HNGtqD2N6iuQgXAHpj6Nmh" x1="32" x2="32" y1="23.255" y2="57.325" gradientTransform="matrix(1 0 0 -1 0 66)" gradientUnits="userSpaceOnUse"><stop offset=".122" stop-color="#5e6d7b"/><stop offset=".191" stop-color="#5d6b79"/><stop offset="1" stop-color="#515c69"/></linearGradient><path fill="url(#HNGtqD2N6iuQgXAHpj6Nmh)" d="M42,31.183v-6.841c0-5.326-4.019-9.977-9.334-10.321C26.841,13.644,22,18.257,22,24v7.183	c0,1.185-0.351,2.343-1.008,3.328l-0.734,1.102C20.09,35.865,20,36.162,20,36.465l0,0C20,37.313,20.687,38,21.535,38h0.978h18.974	h0.978C43.313,38,44,37.313,44,36.465l0,0c0-0.303-0.09-0.599-0.258-0.852l-0.734-1.102C42.351,33.526,42,32.368,42,31.183z"/><ellipse cx="28.5" cy="25.5" fill="#fff" rx="3.5" ry="4.5"/><ellipse cx="35.5" cy="25.5" fill="#fff" rx="3.5" ry="4.5"/><linearGradient id="HNGtqD2N6iuQgXAHpj6Nmi" x1="28.5" x2="28.5" y1="23.255" y2="57.325" gradientTransform="matrix(1 0 0 -1 0 66)" gradientUnits="userSpaceOnUse"><stop offset=".122" stop-color="#5e6d7b"/><stop offset=".191" stop-color="#5d6b79"/><stop offset="1" stop-color="#515c69"/></linearGradient><ellipse cx="28.5" cy="26" fill="url(#HNGtqD2N6iuQgXAHpj6Nmi)" rx="1.5" ry="2"/><linearGradient id="HNGtqD2N6iuQgXAHpj6Nmj" x1="35.5" x2="35.5" y1="23.255" y2="57.325" gradientTransform="matrix(1 0 0 -1 0 66)" gradientUnits="userSpaceOnUse"><stop offset=".122" stop-color="#5e6d7b"/><stop offset=".191" stop-color="#5d6b79"/><stop offset="1" stop-color="#515c69"/></linearGradient><ellipse cx="35.5" cy="26" fill="url(#HNGtqD2N6iuQgXAHpj6Nmj)" rx="1.5" ry="2"/><linearGradient id="HNGtqD2N6iuQgXAHpj6Nmk" x1="32" x2="32" y1="31.255" y2="38.153" gradientTransform="matrix(1 0 0 -1 0 66)" gradientUnits="userSpaceOnUse"><stop offset="0" stop-color="#feaa53"/><stop offset=".612" stop-color="#ffcd49"/><stop offset="1" stop-color="#ffde44"/></linearGradient><path fill="url(#HNGtqD2N6iuQgXAHpj6Nmk)" d="M38.526,30.95c0.334,0.322,0.37,0.846,0.125,1.24C37.414,34.186,34.707,35,32,35	s-5.414-0.814-6.652-2.81c-0.244-0.394-0.208-0.918,0.125-1.24C26.92,29.554,30.237,28,32,28S37.08,29.554,38.526,30.95z"/><ellipse cx="36.228" cy="18.271" fill="#fff" rx="1.384" ry="1.768" transform="rotate(-45.001 36.228 18.271)"/></svg>