<svg xmlns="http://www.w3.org/2000/svg"  viewBox="0 0 64 64" width="64px" height="64px"><radialGradient id="UoIUbxO76izCjIRQw2auwa" cx="32.375" cy="35.569" r="49.78" gradientUnits="userSpaceOnUse" spreadMethod="reflect"><stop offset="0" stop-color="#afeeff"/><stop offset=".193" stop-color="#bbf1ff"/><stop offset=".703" stop-color="#d7f8ff"/><stop offset="1" stop-color="#e1faff"/></radialGradient><path fill="url(#UoIUbxO76izCjIRQw2auwa)" d="M60,44H45l-2.6-1h6.012c1.138,0,2.202-0.721,2.497-1.821C51.355,39.516,50.096,38,48.5,38 c-0.828,0-1.5-0.672-1.5-1.5s0.672-1.5,1.5-1.5h2.912c1.139,0,2.202-0.721,2.497-1.821C54.355,31.516,53.096,29,51.5,29H51 c-1.105,0-2-0.895-2-2c0-1.105,0.895-2,2-2h9.412c1.139,0,2.202-0.721,2.497-1.821C63.355,21.516,62.096,20,60.5,20H59 c-1.105,0-2-0.895-2-2c0-1.105,0.895-2,2-2h2c1.848,0,3.319-1.693,2.94-3.605C63.657,10.972,62.32,10,60.869,10H50.5 C49.672,10,49,9.328,49,8.5S49.672,7,50.5,7h5.912c1.139,0,2.202-0.721,2.497-1.821C59.355,3.516,58.096,2,56.5,2H10.588 C9.449,2,8.386,2.721,8.091,3.821C7.645,5.484,8.904,7,10.5,7l0,0C11.881,7,13,8.119,13,9.5c0,1.381-1.119,2.5-2.5,2.5H9.588H7 c-1.65,0-3,1.35-3,3c0,1.65,1.35,3,3,3h19c0.352,0,0.685-0.073,1-0.185V29h-7.412c-1.139,0-2.202,1.721-2.497,2.821 c-0.219,0.817-0.024,1.595,0.418,2.179H3.5C2.119,34,1,35.119,1,36.5C1,37.881,2.119,39,3.5,39h1C5.881,39,7,40.119,7,41.5 C7,42.881,5.881,44,4.5,44H4c-1.657,0-3,1.343-3,3s1.343,3,3,3h5.5c1.381,0,2.5,1.119,2.5,2.5c0,1.381-1.119,2.5-2.5,2.5H8 c-1.657,0-3,1.343-3,3s1.343,3,3,3h48c1.657,0,3-1.343,3-3s-1.343-3-3-3h-0.5c-1.381,0-2.5-1.119-2.5-2.5c0-1.381,1.119-2.5,2.5-2.5 H60c1.657,0,3-1.343,3-3S61.657,44,60,44z"/><linearGradient id="UoIUbxO76izCjIRQw2auwb" x1="32" x2="32" y1="56" y2="6" gradientUnits="userSpaceOnUse" spreadMethod="reflect"><stop offset="0" stop-color="#ff9757"/><stop offset="1" stop-color="#ffb65b"/><stop offset="1" stop-color="#ffb65b"/></linearGradient><path fill="url(#UoIUbxO76izCjIRQw2auwb)" d="M57,31c0,13.805-11.195,25-25,25S7,44.805,7,31S18.195,6,32,6S57,17.195,57,31z"/><path fill="#fff" d="M28 21L28 21c-1.1 0-2-.9-2-2v-3c0-1.1.9-2 2-2h0c1.1 0 2 .9 2 2v3C30 20.1 29.1 21 28 21zM34 21L34 21c-1.1 0-2-.9-2-2v-3c0-1.1.9-2 2-2h0c1.1 0 2 .9 2 2v3C36 20.1 35.1 21 34 21zM28 48L28 48c-1.1 0-2-.9-2-2v-3c0-1.1.9-2 2-2h0c1.1 0 2 .9 2 2v3C30 47.1 29.1 48 28 48zM34 48L34 48c-1.1 0-2-.9-2-2v-3c0-1.1.9-2 2-2h0c1.1 0 2 .9 2 2v3C36 47.1 35.1 48 34 48z"/><path fill="#fff" d="M40.073,29.815c1.174-1.236,1.905-2.897,1.927-4.731C42.045,21.187,38.602,18,34.705,18L24,18 c-1.105,0-2,0.895-2,2v22c0,1.105,0.895,2,2,2l10.71,0c4.417,0,8.219-3.454,8.289-7.871C43.039,33.584,41.89,31.307,40.073,29.815z M27,22h7c1.657,0,3,1.343,3,3s-1.343,3-3,3h-7V22z M34,40h-7v-8h7c2.209,0,4,1.791,4,4C38,38.209,36.209,40,34,40z"/></svg>