<svg xmlns="http://www.w3.org/2000/svg"  viewBox="0 0 64 64" width="64px" height="64px"><radialGradient id="_RcySlgh65s0PL152YrC~a" cx="32.5" cy="32" r="31.751" gradientUnits="userSpaceOnUse" spreadMethod="reflect"><stop offset="0" stop-color="#edd7a1"/><stop offset=".258" stop-color="#f0dba9"/><stop offset=".667" stop-color="#f7e7c0"/><stop offset="1" stop-color="#fff3d8"/></radialGradient><path fill="url(#_RcySlgh65s0PL152YrC~a)" d="M61.501,18.008H56c-1.1,0-2-0.9-2-2c0-1.1,0.9-2.008,2-2.008h3c1.85,0,3.32-1.69,2.94-3.6 C61.66,8.97,60.32,8,58.87,8H45.5C44.67,8,44,7.33,44,6.5C44,5.67,44.67,5,45.5,5h5.91c1.14,0,2.2-0.72,2.5-1.82 C54.36,1.52,53.1,0,51.5,0H7.59c-1.14,0-2.2,0.72-2.5,1.82C4.64,3.48,5.9,5,7.5,5h3c0.69,0,1.32,0.28,1.77,0.73 C12.72,6.18,13,6.81,13,7.5c0,1.38-1.12,2.5-2.5,2.5H4c-1.65,0-3,1.35-3,3c0,1.65,1.35,3,3,3h21c0.35,0,0.69-0.07,1-0.19V23 c0,0-10.282,19.859-10.05,21H5.5C3.025,44,1,46.025,1,48.5C1,50.975,3.025,53,5.5,53h19c1.38,0,2.5,1.12,2.5,2.5S25.88,58,24.5,58 H19c-1.66,0-3,1.34-3,3c0,1.66,1.34,3,3,3h40c1.66,0,3-1.34,3-3c0-1.66-1.34-3-3-3h-5.5c-1.38,0-2.5-1.12-2.5-2.5s1.12-2.5,2.5-2.5 h4c2.475,0,4.5-2.025,4.5-4.5c0-2.475-2.025-4.5-4.5-4.5H47.437C47.751,42.413,48.9,23,50,23h11.411c1.14,0,2.2-0.713,2.5-1.813 C64.351,19.527,63.091,18.008,61.501,18.008z"/><linearGradient id="_RcySlgh65s0PL152YrC~b" x1="65.313" x2="13.061" y1="33" y2="33" gradientTransform="rotate(90 33 32)" gradientUnits="userSpaceOnUse" spreadMethod="reflect"><stop offset="0" stop-color="#155cde"/><stop offset=".122" stop-color="#196ae1"/><stop offset=".509" stop-color="#2493e9"/><stop offset=".815" stop-color="#2bacee"/><stop offset="1" stop-color="#2eb5f0"/></linearGradient><path fill="url(#_RcySlgh65s0PL152YrC~b)" d="M6,48V16c0-1.657,1.343-3,3-3h46c1.657,0,3,1.343,3,3v32c0,1.657-1.343,3-3,3H9 C7.343,51,6,49.657,6,48z"/><linearGradient id="_RcySlgh65s0PL152YrC~c" x1="39" x2="39" y1="41.395" y2="15.275" gradientUnits="userSpaceOnUse" spreadMethod="reflect"><stop offset="0" stop-color="#feaa53"/><stop offset=".612" stop-color="#ffcd49"/><stop offset="1" stop-color="#ffde44"/></linearGradient><path fill="url(#_RcySlgh65s0PL152YrC~c)" d="M39 21A11 11 0 1 0 39 43A11 11 0 1 0 39 21Z"/><linearGradient id="_RcySlgh65s0PL152YrC~d" x1="25" x2="25" y1="38.49" y2="16.49" gradientUnits="userSpaceOnUse" spreadMethod="reflect"><stop offset="0" stop-color="#ff634d"/><stop offset=".66" stop-color="#fb6584"/><stop offset=".989" stop-color="#fa669a"/><stop offset="1" stop-color="#fa669a"/></linearGradient><path fill="url(#_RcySlgh65s0PL152YrC~d)" d="M28.18,34h7.64c-0.13,0.69-0.32,1.36-0.57,2h-6.5c0.27,0.71,0.62,1.38,1.03,2h4.44 c-0.47,0.73-1.04,1.41-1.67,2c-0.18,0.17-0.36,0.33-0.55,0.49C30.1,42.06,27.66,43,25,43c-6.08,0-11-4.92-11-11 c0-6.08,4.92-11,11-11c2.66,0,5.1,0.94,7,2.51c-0.19,0.16-0.37,0.32-0.55,0.49c-0.63,0.59-1.2,1.27-1.67,2h4.44 c0.41,0.62,0.76,1.29,1.03,2h-6.5c-0.25,0.64-0.44,1.31-0.57,2h7.64c0.12,0.65,0.18,1.32,0.18,2h-8C28,32.68,28.06,33.35,28.18,34z"/><g><linearGradient id="_RcySlgh65s0PL152YrC~e" x1="65.313" x2="13.061" y1="33" y2="33" gradientTransform="rotate(90 33 32)" gradientUnits="userSpaceOnUse" spreadMethod="reflect"><stop offset="0" stop-color="#155cde"/><stop offset=".122" stop-color="#196ae1"/><stop offset=".509" stop-color="#2493e9"/><stop offset=".815" stop-color="#2bacee"/><stop offset="1" stop-color="#2eb5f0"/></linearGradient><path fill="url(#_RcySlgh65s0PL152YrC~e)" d="M6,48V16c0-1.657,1.343-3,3-3h46c1.657,0,3,1.343,3,3v32c0,1.657-1.343,3-3,3H9 C7.343,51,6,49.657,6,48z"/><linearGradient id="_RcySlgh65s0PL152YrC~f" x1="39" x2="39" y1="41.395" y2="15.275" gradientUnits="userSpaceOnUse" spreadMethod="reflect"><stop offset="0" stop-color="#feaa53"/><stop offset=".612" stop-color="#ffcd49"/><stop offset="1" stop-color="#ffde44"/></linearGradient><path fill="url(#_RcySlgh65s0PL152YrC~f)" d="M39 21A11 11 0 1 0 39 43A11 11 0 1 0 39 21Z"/><linearGradient id="_RcySlgh65s0PL152YrC~g" x1="25" x2="25" y1="38.49" y2="16.49" gradientUnits="userSpaceOnUse" spreadMethod="reflect"><stop offset="0" stop-color="#ff634d"/><stop offset=".66" stop-color="#fb6584"/><stop offset=".989" stop-color="#fa669a"/><stop offset="1" stop-color="#fa669a"/></linearGradient><path fill="url(#_RcySlgh65s0PL152YrC~g)" d="M28.18,34h7.64c-0.13,0.69-0.32,1.36-0.57,2h-6.5c0.27,0.71,0.62,1.38,1.03,2h4.44 c-0.47,0.73-1.04,1.41-1.67,2c-0.18,0.17-0.36,0.33-0.55,0.49C30.1,42.06,27.66,43,25,43c-6.08,0-11-4.92-11-11 c0-6.08,4.92-11,11-11c2.66,0,5.1,0.94,7,2.51c-0.19,0.16-0.37,0.32-0.55,0.49c-0.63,0.59-1.2,1.27-1.67,2h4.44 c0.41,0.62,0.76,1.29,1.03,2h-6.5c-0.25,0.64-0.44,1.31-0.57,2h7.64c0.12,0.65,0.18,1.32,0.18,2h-8C28,32.68,28.06,33.35,28.18,34z"/></g></svg>