<svg xmlns="http://www.w3.org/2000/svg"  viewBox="0 0 64 64" width="64px" height="64px"><radialGradient id="k0VX1~11XD46a4EWtnENia" cx="32.5" cy="31.5" r="31.004" gradientUnits="userSpaceOnUse" spreadMethod="reflect"><stop offset="0" stop-color="#eed7a2"/><stop offset=".106" stop-color="#f1dcab"/><stop offset=".437" stop-color="#f8e8c3"/><stop offset=".744" stop-color="#fcefd2"/><stop offset="1" stop-color="#fef2d7"/></radialGradient><path fill="url(#k0VX1~11XD46a4EWtnENia)" d="M60,26c2.335,0,4.22-2.028,3.979-4.41c-0.21-2.075-2.082-3.59-4.168-3.59h-0.704 c-0.996,0-1.92-0.681-2.08-1.664C56.824,15.083,57.785,14,59,14l0.357,0c1.308,0,2.5-0.941,2.63-2.242 C62.137,10.261,60.966,9,59.5,9h-15C43.672,9,43,8.328,43,7.5S43.672,6,44.5,6l3.857,0c1.308,0,2.499-0.941,2.63-2.242 C51.137,2.261,49.966,1,48.5,1L15.643,1c-1.308,0-2.499,0.941-2.63,2.242C12.863,4.739,14.034,6,15.5,6l3.393,0 c0.996,0,1.92,0.681,2.08,1.664C21.176,8.917,20.215,10,19,10L6.189,10c-2.086,0-3.958,1.514-4.168,3.59C1.78,15.972,3.665,18,6,18 h0.302c1.895,0,3.594,1.419,3.693,3.312C10.101,23.33,8.495,25,6.5,25l-1.311,0c-2.086,0-3.958,1.514-4.168,3.59 C0.78,30.972,2.665,33,5,33h17v11H6.132c-1.451,0-2.789,0.972-3.071,2.395C2.681,48.307,4.152,50,5.999,50H13c1.105,0,2,0.895,2,2v0 c0,1.105-0.895,2-2,2l-2.811,0c-2.086,0-3.958,1.514-4.168,3.59C5.78,59.972,7.665,62,10,62l40.811,0 c2.086,0,3.958-1.514,4.168-3.59C55.22,56.028,53.335,54,51,54c0,0,0,0-0.001,0h-9.893c-0.996,0-1.92-0.681-2.08-1.664 C38.824,51.083,39.785,50,41,50l11.386,0c1.67,0,3.195-1.122,3.537-2.757C56.392,44.998,54.668,43,52.5,43l-1.857,0 c-1.308,0-2.499-0.941-2.63-2.242C47.863,39.261,49.034,38,50.5,38h7.369c1.451,0,2.789-0.972,3.071-2.395 C61.319,33.693,59.848,32,58,32H42v-6H60z"/><linearGradient id="k0VX1~11XD46a4EWtnENib" x1="37.5" x2="37.5" y1="17" y2="59.648" gradientUnits="userSpaceOnUse" spreadMethod="reflect"><stop offset="0" stop-color="#40daf2"/><stop offset=".259" stop-color="#3bd3ef"/><stop offset=".624" stop-color="#2ec1e8"/><stop offset="1" stop-color="#1ba7dd"/></linearGradient><path fill="url(#k0VX1~11XD46a4EWtnENib)" d="M44.996,17h-4.941h-1.433H28.265c-0.707,0-1.317,0.493-1.466,1.184l-7.765,36 C18.833,55.118,19.545,56,20.501,56h9.931c0.707,0,1.317-0.493,1.466-1.184L34.662,42h6.619c6.971,0,12.997-4.865,14.467-11.68 l0-0.001C57.226,23.468,52.005,17,44.996,17z"/><linearGradient id="k0VX1~11XD46a4EWtnENic" x1="26.5" x2="26.5" y1="47" y2="2.97" gradientUnits="userSpaceOnUse" spreadMethod="reflect"><stop offset="0" stop-color="#155cde"/><stop offset=".278" stop-color="#1f7fe5"/><stop offset=".569" stop-color="#279ceb"/><stop offset=".82" stop-color="#2cafef"/><stop offset="1" stop-color="#2eb5f0"/></linearGradient><path fill="url(#k0VX1~11XD46a4EWtnENic)" d="M23.603,33h0.059h6.619c0.242,0,0.48-0.02,0.719-0.031l0,0 c6.662-0.323,12.329-5.07,13.748-11.648l0-0.001C46.226,14.468,41.005,8,33.996,8h-4.941h-1.433H17.265 c-0.707,0-1.317,0.493-1.466,1.184l-7.765,36C7.833,46.118,8.545,47,9.501,47h11.083L23.603,33z"/><linearGradient id="k0VX1~11XD46a4EWtnENid" x1="34.297" x2="34.297" y1="33" y2="10.615" gradientUnits="userSpaceOnUse" spreadMethod="reflect"><stop offset="0" stop-color="#01579b"/><stop offset=".518" stop-color="#016fb5"/><stop offset="1" stop-color="#0288d1"/></linearGradient><path fill="url(#k0VX1~11XD46a4EWtnENid)" d="M44.802,17h-4.747h-1.433H28.265c-0.707,0-1.317,0.493-1.466,1.184L23.603,33h0.059h6.619 c6.971,0,12.997-4.865,14.467-11.68l0-0.001C45.068,19.839,45.058,18.383,44.802,17z"/></svg>