<?xml version="1.0" encoding="UTF-8"?><svg version="1.1" xmlns="http://www.w3.org/2000/svg" xmlns:xlink="http://www.w3.org/1999/xlink" viewBox="0 0 400 379" width="400" height="379" x="0px" y="0px">
              
              <!-- ITEM 0 -->
<g>
    <defs>
        
        <clipPath id="clip-path-id-viewbox-item-0">
            <rect x="0.0" y="0.0" width="706.358" height="599.898"/>
        </clipPath>
    </defs>
    <g transform="translate(-4.0 35.0) rotate(0.0 202.0 171.5) scale(0.5719479357492943 0.5717638665239757)">
      <g clip-path="url(#clip-path-id-viewbox-item-0)" transform="translate(-0.0 -0.0)">
      <defs><linearGradient id="linear-gradient-i0" x1="-280.843" y1="-1139.748" x2="-456.058" y2="-1354.782" gradientTransform="matrix(1, 0, 0, -1, 536.47, -756.374)" gradientUnits="userSpaceOnUse"><stop offset="0" stop-color="#efc47a"/><stop offset="1" stop-color="#d7dce6"/></linearGradient><linearGradient id="linear-gradient-2-i0" x1="-11814.638" y1="-1175.142" x2="-11961.15" y2="-1354.953" gradientTransform="translate(-11319.782 -756.374) rotate(180)" gradientUnits="userSpaceOnUse"><stop offset="0" stop-color="#98bae3"/><stop offset="0.19" stop-color="#abc4e4"/><stop offset="0.49" stop-color="#c3d1e5"/><stop offset="0.77" stop-color="#d2d9e6"/><stop offset="1" stop-color="#d7dce6"/></linearGradient><linearGradient id="linear-gradient-3-i0" x1="-2703.933" y1="-1245.547" x2="-2703.933" y2="-1351.661" gradientTransform="translate(-2089.002 -756.374) rotate(180)" xlink:href="#linear-gradient-2-i0"/></defs><title>background_eco</title><g id="Layer_2-i0" data-name="Layer 2"><g id="Layer_1-2-i0" data-name="Layer 1"><g opacity="0.3"><path d="M703.8,2.25V597.443H2.25V2.25H703.8M706.051,0H0V599.795H706.051V0Z" fill="#9cc9e5"/><rect y="425.124" width="706.051" height="2.148" fill="#9cc9e5"/><rect y="339.322" width="706.051" height="2.148" fill="#9cc9e5"/><rect y="425.124" width="706.051" height="2.148" fill="#9cc9e5"/><rect y="511.028" width="706.051" height="2.148" fill="#9cc9e5"/><rect y="253.417" width="706.051" height="2.148" fill="#9cc9e5"/><rect y="167.513" width="706.051" height="2.148" fill="#9cc9e5"/><rect y="81.609" width="706.051" height="2.148" fill="#9cc9e5"/></g><circle cx="282.052" cy="365.093" r="3.068" fill="#97b6e6"/><circle cx="633.953" cy="282.563" r="3.068" fill="#97b6e6"/><circle cx="511.232" cy="29.555" r="3.068" fill="#97b6e6"/><circle cx="679.973" cy="113.721" r="3.068" fill="#97b6e6"/><circle cx="50.52" cy="61.871" r="3.068" fill="#97b6e6"/><circle cx="173.751" cy="313.857" r="2.761" fill="#97b6e6"/><polygon points="252.19 599.898 220.385 599.898 228.669 185.512 229.18 166.184 243.395 166.184 243.907 185.921 252.19 599.898" fill="#d1b2e6"/><path d="M243.907,185.921a28.151,28.151,0,0,1-15.136-.409l.511-19.328H243.4Z" fill="#b48383"/><path d="M240.532,149.514,195.023,31.294a2.268,2.268,0,0,0-2.863-1.228,2.21,2.21,0,0,0-1.33,2.25l9.306,91.12,34.976,31.6Z" fill="#d1b2e6"/><path d="M242.884,165.57l125.277,17.9a2.343,2.343,0,0,0,2.454-2.045,2.208,2.208,0,0,0-1.329-2.25l-84.064-36.305L240.532,158Z" fill="#d1b2e6"/><path d="M227.646,159.741l-76.8,100.631a2.25,2.25,0,0,0,.511,3.068,2.155,2.155,0,0,0,2.659-.1L226.726,207.7l8.59-46.429Z" fill="#d1b2e6"/><circle cx="236.952" cy="158.207" r="13.295" fill="#d7dce6"/><path d="M236.952,172.627a14.318,14.318,0,1,1,14.318-14.318A14.36,14.36,0,0,1,236.952,172.627Zm0-26.488a12.17,12.17,0,1,0,12.17,12.17A12.134,12.134,0,0,0,236.952,146.139Z" fill="#c79696"/><polygon points="110.653 599.898 86.825 599.898 93.063 246.566 93.472 232.146 103.903 232.146 104.415 246.77 110.653 599.898" fill="#d1b2e6"/><path d="M104.415,246.77a21.411,21.411,0,0,1-11.352-.307l.409-14.317h10.533Z" fill="#b48383"/><path d="M103.9,221.1l-.92-94.29a1.775,1.775,0,0,0-1.636-1.739A1.654,1.654,0,0,0,99.71,126.5L82.427,192.466l16.158,31.192Z" fill="#d1b2e6"/><path d="M101.449,232.862l82.734,45.1a1.707,1.707,0,0,0,2.25-.715,1.588,1.588,0,0,0-.409-2.046l-49.089-47.247-35.077-1.125Z" fill="#d1b2e6"/><path d="M92.347,224.885,12.579,275.1a1.67,1.67,0,0,0,1.534,2.966l65.144-19.942,18.1-30.169Z" fill="#d1b2e6"/><circle cx="99.199" cy="226.214" r="9.818" fill="#d7dce6"/><path d="M99.2,237.157a10.943,10.943,0,1,1,10.942-10.943A10.955,10.955,0,0,1,99.2,237.157Zm0-19.738a8.693,8.693,0,1,0,8.693,8.693A8.686,8.686,0,0,0,99.2,217.419Z" fill="#c79696"/><path d="M372.149,599.693c-56.656-3.681-75.064-80.995-107.994-111.573-33.032-30.578-104.312-8.693-119.754-91.938-10.329-55.633-56.656-58.088-95.313-78.541A31.63,31.63,0,0,0,2.659,345.662V599.9h369.49Z" fill="url(#linear-gradient-i0)"/><path d="M397.307,599.693c47.247-3.068,62.792-67.8,90.4-93.267,27.612-25.567,87.131-7.261,100.119-76.9,8.693-46.531,47.452-48.577,79.666-65.758a26.471,26.471,0,0,1,38.862,23.419V599.693Z" fill="url(#linear-gradient-2-i0)"/><path d="M523.913,599.693c51.85,0,50.213-78.541,95.211-88.972,18-4.193,27.816-17.488,36.1-32.01,13.908-24.135,50.724-14.317,50.724,13.5V599.693Z" fill="url(#linear-gradient-3-i0)"/><rect x="95.313" y="596.421" width="515.527" height="3.273" fill="#c79696"/><path d="M673.734,375.524a4.1,4.1,0,0,1-4.09-4.091V286.961a4.091,4.091,0,1,1,8.181,0v84.472A4.1,4.1,0,0,1,673.734,375.524Z" fill="#b4c9e4"/><path d="M673.734,317.437a1.978,1.978,0,0,1-.715-.1,4.137,4.137,0,0,1-3.375-4.7,21.2,21.2,0,0,1,22.7-17.794,4.1,4.1,0,1,1-.614,8.181,13.058,13.058,0,0,0-14.01,11.045A3.98,3.98,0,0,1,673.734,317.437Z" fill="#b4c9e4"/><path d="M673.734,317.437a4.058,4.058,0,0,1-3.988-3.375,13.123,13.123,0,0,0-14.011-11.045,4.1,4.1,0,0,1-.613-8.181,21.3,21.3,0,0,1,22.7,17.794,4.061,4.061,0,0,1-3.375,4.7A1.983,1.983,0,0,1,673.734,317.437Z" fill="#b4c9e4"/><path d="M673.734,337.788a1.978,1.978,0,0,1-.715-.1,4.137,4.137,0,0,1-3.375-4.7,21.2,21.2,0,0,1,22.7-17.794,4.1,4.1,0,1,1-.614,8.181,13.058,13.058,0,0,0-14.01,11.045A3.98,3.98,0,0,1,673.734,337.788Z" fill="#b4c9e4"/><path d="M673.734,337.788a4.058,4.058,0,0,1-3.988-3.375,13.123,13.123,0,0,0-14.011-11.045,4.1,4.1,0,0,1-.613-8.181,21.306,21.306,0,0,1,22.7,17.794,4.061,4.061,0,0,1-3.375,4.7A1.983,1.983,0,0,1,673.734,337.788Z" fill="#b4c9e4"/><path d="M624.851,408.352a4.1,4.1,0,0,1-4.091-4.091V319.789a4.091,4.091,0,0,1,8.182,0v84.472A4.1,4.1,0,0,1,624.851,408.352Z" fill="#b4c9e4"/><path d="M624.851,350.162a2,2,0,0,1-.716-.1,4.138,4.138,0,0,1-3.375-4.7,21.205,21.205,0,0,1,22.7-17.794,4.1,4.1,0,1,1-.613,8.181,13.059,13.059,0,0,0-14.011,11.045A3.966,3.966,0,0,1,624.851,350.162Z" fill="#b4c9e4"/><path d="M624.851,350.162a4.059,4.059,0,0,1-3.989-3.375,13.122,13.122,0,0,0-14.01-11.045,4.1,4.1,0,1,1-.614-8.181,21.159,21.159,0,0,1,22.7,17.794,4.062,4.062,0,0,1-3.375,4.7A2,2,0,0,1,624.851,350.162Z" fill="#b4c9e4"/><path d="M624.851,370.615a2,2,0,0,1-.716-.1,4.137,4.137,0,0,1-3.375-4.7,21.289,21.289,0,0,1,22.7-17.8,4.1,4.1,0,0,1-.613,8.182,13.058,13.058,0,0,0-14.011,11.044A4.057,4.057,0,0,1,624.851,370.615Z" fill="#b4c9e4"/><path d="M624.851,370.615a4.058,4.058,0,0,1-3.989-3.374,13.122,13.122,0,0,0-14.01-11.045,4.1,4.1,0,0,1-.614-8.182,21.307,21.307,0,0,1,22.7,17.8,4.061,4.061,0,0,1-3.375,4.7A2,2,0,0,1,624.851,370.615Z" fill="#b4c9e4"/><path d="M170.888,462.86a4.1,4.1,0,0,1-4.091-4.091V374.3a4.091,4.091,0,0,1,8.182,0v84.472A4.039,4.039,0,0,1,170.888,462.86Z" fill="#d7c4ac"/><path d="M170.888,404.772a2,2,0,0,1-.716-.1,4.138,4.138,0,0,1-3.375-4.7,21.289,21.289,0,0,1,22.7-17.8,4.1,4.1,0,0,1-.614,8.182A13.058,13.058,0,0,0,174.876,401.4,4.071,4.071,0,0,1,170.888,404.772Z" fill="#d7c4ac"/><path d="M170.888,404.772A4.057,4.057,0,0,1,166.9,401.4a13.123,13.123,0,0,0-14.011-11.045,4.1,4.1,0,0,1-.614-8.182,21.307,21.307,0,0,1,22.7,17.8,4.061,4.061,0,0,1-3.375,4.7C171.4,404.67,171.093,404.772,170.888,404.772Z" fill="#d7c4ac"/><path d="M170.888,425.124a1.983,1.983,0,0,1-.716-.1,4.138,4.138,0,0,1-3.375-4.7,21.287,21.287,0,0,1,22.7-17.794,4.1,4.1,0,0,1-.614,8.181,13.059,13.059,0,0,0-14.011,11.045A3.979,3.979,0,0,1,170.888,425.124Z" fill="#d7c4ac"/><path d="M170.888,425.124a4.057,4.057,0,0,1-3.988-3.375A13.123,13.123,0,0,0,152.889,410.7a4.1,4.1,0,0,1-.614-8.181,21.239,21.239,0,0,1,22.7,17.794,4.061,4.061,0,0,1-3.375,4.7A1.73,1.73,0,0,1,170.888,425.124Z" fill="#d7c4ac"/></g></g>
      </g>
    </g>
</g>

              </svg>