<?xml version="1.0" encoding="UTF-8"?><svg version="1.1" xmlns="http://www.w3.org/2000/svg" xmlns:xlink="http://www.w3.org/1999/xlink" viewBox="0 0 260 210" width="260" height="210" x="0px" y="0px">
              
              <!-- ITEM 0 -->
<g>
    <defs>
        
        <clipPath id="clip-path-id-viewbox-item-0">
            <rect x="0.0" y="0.0" width="980.556" height="956.707"/>
        </clipPath>
    </defs>
    <g transform="translate(1.0 -41.0) rotate(0.0 129.0 126.0) scale(0.2631160280493924 0.2634035289801371)">
      <g clip-path="url(#clip-path-id-viewbox-item-0)" transform="translate(-0.0 -0.0)">
      
  <title>Разбор фоны</title>
  <g id="Мыло-i0">
    <path d="M487.853,868.95c-37.322-64.529-54.392,15.246-54.392,15.246h0c8.551-6.471,19.706-9.594,31.97.524,0,0-29.208,6.452-27.849,29.233l106.612-.443C541.477,838.114,487.853,868.95,487.853,868.95Z" fill="#324a58"/>
    <path d="M750.787,826.8c.173-.155.268-.238.268-.238-.131.034-.256.07-.386.1C750.71,826.711,750.747,826.756,750.787,826.8Z" fill="#2568ef"/>
    <path d="M516.553,651.016S604.5,153.91,682.289,540.268c0,0-19.081-343.7,84.875-289.358S885.231,802.457,885.231,802.457,675.5,714.816,619.8,779.014c0,0-51.622-37.689-122.264-41.765Z" fill="#ffe3e2"/>
    <path d="M434.243,373.824a2.5,2.5,0,0,1-2.482-2.224l-5.385-48.458a2.5,2.5,0,0,1,4.969-.553l5.385,48.459a2.5,2.5,0,0,1-2.208,2.761A2.636,2.636,0,0,1,434.243,373.824Z" fill="#ff9b19"/>
    <path d="M378.378,767.9s-11.854-23.707,15.558-37.784c0,0-11.113-60.009,38.524-45.192,0,0,14.076,2.349,12.6,30.438,0,0,46.027-203.963,95.951-96.982,11.5,24.651,21.1,42.1,19.622,112.477,0,0,34.08-80.012,48.9-40.747,0,0,31.116-125.946,34.079-57.046s0,60.009,0,60.009,22.967-25.93,21.485,7.409l.069,42.229s37.715-91.126,50.309-48.9v44.452s46.674-37.784,56.305,22.225c0,0-125.945-30.375-154.839,18.522C616.933,779.014,541.366,713.818,378.378,767.9Z" fill="#ff564f"/>
    <path d="M343.254,956.707c-96.669,0-187.761-3.367-224.169-14.537-10.626-3.261-15.569-12.611-12.59-23.821,3-11.284,15.26-26.635,40.692-35.882,19.01-6.914,52.24-12.774,102.585-1.432a2.5,2.5,0,1,1-1.1,4.878c-91.527-20.621-132.056,13.813-137.345,33.719-2.3,8.643,1.153,15.281,9.225,17.757,85.023,26.086,486.392,8.5,525.481,6.711a136.837,136.837,0,0,1-3.075-35.373c1.36-27.72,12.4-48.534,31.937-60.191a2.5,2.5,0,0,1,3.617,3.038c-.224.588-20.377,54.271-4.589,76.807a101.348,101.348,0,0,1,3.5-39.347c6.883-23,26.145-53.2,78.819-66.5a2.5,2.5,0,0,1,2.251,4.312c-.434.377-41.383,36.535-31.815,76.26,6.856-10.77,25.968-34.177,61.644-33.184a2.5,2.5,0,0,1,1.371,4.542c-.274.193-27.32,19.485-30.92,40.769a24.845,24.845,0,0,0,1.685,14.384c2.58-7.986,8.606-21.6,20.607-26.127,9.772-3.689,21.251-.546,34.112,9.345a2.5,2.5,0,0,1-1.525,4.482h-.171c-5.784,0-20.953,1.546-24.24,8.7-2.4,5.216,2.245,12.534,6.865,18.024,10.34.686,96.564,5.157,131.891-32.636,14.159-15.148,19.063-33.162,13.81-50.725-5.262-17.594-20.086-34.227-44.058-49.436-28.08-17.814-68-33.074-118.663-45.356-23.686-5.742-143.007-31.539-166.012,24.694a2.5,2.5,0,1,1-4.627-1.893c10-24.435,36.943-37.435,80.093-38.637,37.6-1.049,76.671,7.327,91.724,10.977,51.193,12.411,91.621,27.885,120.163,45.993,25.019,15.873,40.553,33.444,46.171,52.225,5.783,19.336.475,39.072-14.949,55.572-16.47,17.62-44.576,28.716-83.536,32.978a313.193,313.193,0,0,1-53.438,1.154A2.5,2.5,0,0,1,793,948.1c-8.419-9.707-11.21-17.84-8.3-24.174,3.48-7.565,14.305-10.2,21.7-11.118-9-5.592-16.905-7.153-23.567-4.638-14.428,5.446-19.034,28.171-19.079,28.4a2.5,2.5,0,0,1-4.485.975,29.911,29.911,0,0,1-5.422-23.154c2.863-16.894,18.229-31.949,26.95-39.295-37.4,2.844-52.4,35.009-52.555,35.354a2.5,2.5,0,0,1-4.63-.185c-6.73-18.718-3.359-39.769,9.748-60.878a129.317,129.317,0,0,1,14.863-19.394c-35.011,10.977-57.175,31.223-65.948,60.28a95.6,95.6,0,0,0-2.232,44.8,2.5,2.5,0,0,1-3.891,2.612c-22.667-16.284-10.615-62.583-4.814-80.642-35.89,28.36-19.917,88.116-19.744,88.748a2.5,2.5,0,0,1-2.289,3.164C638.636,949.466,484.969,956.706,343.254,956.707Z" fill="#ff9b19"/>
    <path d="M221.068,878.566a2.5,2.5,0,0,1-1.839-4.192c.477-.519,48.518-52.277,121.338-90.394,42.833-22.419,85.754-35.827,127.572-39.851,52.348-5.037,103.07,4.7,150.755,28.929a2.5,2.5,0,0,1-2.266,4.458c-106.015-53.878-207.309-23.851-273.612,10.826-72.088,37.7-119.636,88.9-120.107,89.417A2.5,2.5,0,0,1,221.068,878.566Z" fill="#ff9b19"/>
    <path d="M802.474,557.5s-55.53-149.653,72.918-232.629c0,0,77.7-47.415,60.26,93.348S894.421,597.5,894.421,597.5s53.917-48.9,82.461,45.933-118.614,68.6-118.614,68.6l-1.9-27.111S718.4,662.7,802.474,557.5Z" fill="#ff9b19"/>
    <path d="M464.9,262.3c0,23.051-16.647,45.432-41.738,45.432s-47.279-18.468-49.126-41.738c-1.824-22.979,18.494-43.585,43.585-43.585S464.9,239.244,464.9,262.3Z" fill="#ff9b19"/>
    <path d="M346.555,36.991a15.909,15.909,0,0,0,.566-10.248C344.29,17.021,332.544,11.5,320.94,14.394a22.832,22.832,0,0,0-11.605,6.831,23.963,23.963,0,0,0-6.509-13.006,27.886,27.886,0,0,0-37.361-1.971,23.518,23.518,0,0,0-7.784,25.225A37.56,37.56,0,0,0,247.35,29.9c-15.85-.131-28.869,9.459-29.011,21.415s12.6,21.808,28.445,22.071c10.19.131,19.247-3.81,24.342-9.853,5.094,6.831,14.717,11.561,25.9,11.692,11.746.132,22.077-4.992,27.172-12.481a31.839,31.839,0,0,0,16.558,4.6c13.019.131,23.633-6.7,23.775-15.109C364.669,44.873,356.886,38.7,346.555,36.991Z" fill="#ffe3e2"/>
    <path d="M35.121,849.333c-19.849,0-32.876-4.522-33.454-4.726a2.5,2.5,0,0,1-1.588-2.978c.5-1.94,12.532-47.624,43.105-56.612,16.606-4.882,35.234,2.114,55.367,20.8a2.5,2.5,0,1,1-3.4,3.665c-18.751-17.4-35.763-24.015-50.557-19.664-24.191,7.112-36.187,41.5-39.009,50.761a114.749,114.749,0,0,0,33.455,3.7c19.433-.6,48.689-6.256,77.71-29.748a2.5,2.5,0,0,1,3.146,3.886c-30.186,24.435-60.671,30.272-80.93,30.867Q37.006,849.334,35.121,849.333Z" fill="#ff9b19"/>
    <path d="M169.154,881.353a2.5,2.5,0,0,1-2.326-1.583c-.205-.519-20.955-52.031-62.685-67.323-24.641-9.031-59.886,2.546-96.692,31.761a2.5,2.5,0,0,1-3.11-3.916c38.766-30.769,74.817-42.326,101.523-32.54,43.863,16.074,64.747,67.982,65.615,70.184a2.5,2.5,0,0,1-2.325,3.417Z" fill="#ff9b19"/>
    <path d="M110.02,393.774S45.583,111.152,226.006,227.714c0,0,48.327,36.724,38.662,124.545,0,0,88.6,4.79,46.716,84.627,0,0,296.962,172.652-35.44,274.638-66.817,20.5-347.958,70.256-161.091-226.736C114.853,484.788,37.529,425.709,110.02,393.774Z" fill="#ff9b19"/>
    <path d="M141.1,837.724a2.5,2.5,0,0,1-2.49-2.311c-.095-1.248-2.153-30.775,12.7-48,6.141-7.122,14.288-11.1,24.214-11.809a2.5,2.5,0,0,1,.359,4.987c-8.552.616-15.546,4.009-20.786,10.087-13.511,15.668-11.522,44.07-11.5,44.355a2.5,2.5,0,0,1-2.3,2.683C141.233,837.722,141.168,837.724,141.1,837.724Z" fill="#ff9b19"/>
    <path d="M144.5,819.054a21.306,21.306,0,0,1-2.794-.156,2.5,2.5,0,0,1,.7-4.951,26.265,26.265,0,0,0,18.461-5.634c7.294-5.974,11.449-16.193,12.35-30.373a2.5,2.5,0,0,1,4.991.318c-1,15.669-5.79,27.1-14.248,33.984A31.007,31.007,0,0,1,144.5,819.054Z" fill="#ff9b19"/>
    <path d="M940.866,742.206s38.752-.012,39.674,37.916S940.866,742.206,940.866,742.206Z" fill="#ff9b19"/>
    <path d="M913.977,764.759s20.244-25.494-5.26-37.073S913.977,764.759,913.977,764.759Z" fill="#ff9b19"/>
    <path d="M348.907,700.857s-35.661,48.06-12.227,40.553S348.907,700.857,348.907,700.857Z" fill="#ff9b19"/>
    <path d="M315.92,771.076s14.043,55.382,41.885,34.717S315.92,771.076,315.92,771.076Z" fill="#ff9b19"/>
    <path d="M642.906,223.091a38.269,38.269,0,0,0-7.315.964c.039-.65.049-1.308.025-1.971a20.111,20.111,0,0,0-20.834-19.361c-.277.01-.55.03-.823.051a20.111,20.111,0,0,0-39.162,7.137v0c-22.048.84-39.642,8.491-39.325,17.119.317,8.646,18.5,15,40.621,14.187a99.305,99.305,0,0,0,11.241-1.045c0,.21,0,.421,0,.633.317,8.647,9.572,15.327,20.672,14.919,10.886-.4,19.5-7.469,19.524-15.9,3.761,2.264,9.6,3.6,16.11,3.361,11.1-.407,19.932-5.236,19.728-10.785S654.005,222.684,642.906,223.091Z" fill="#ffe3e2"/>
    <path d="M368.591,552.677s-25.93-12.6-72.6,11.854c0,0,14.076-35.561,29.634-40.007,0,0-19.86-4.4-37.784,44.452L267.093,587.61s-11.113-194.217-95.57-225.333c0,0,82.389,49.637,86.387,235.592v57.179c-11.487-17.223-59.993-87.662-96.759-105.828,0,0,89.229,88.4,96.759,140.269V878.415c-2.113,11.507-6.333,29.34-12.668,32.96-8.188,4.679,14.337-1.806,20.759-13.632l9.807,10.738,4.541-15.006c36.982,26.813,60.671,9.507,60.671,9.507-24.726,3.4-30.91-1.116-44.156-9.607-10.107-6.479-17.814-28.081-21.685-41.125-.054-2.539-.04-5.536.064-9.157.741-25.93-5.927-245.224-5.927-245.224S313.716,548.258,368.591,552.677Z" fill="#324a58"/>
    <path d="M885.345,651.022c26.152,23.513,63.121,13.286,63.121,13.286-47.411,1.98-58.046-16.265-58.048-16.268,16.2-8.451,29.9-5.714,29.9-5.714-27.9-13.2-54.5,19.507-63.621,32.429-1.612-39.347-2.979-77.8-3.281-106.138,37.638-25.936,39.86-71.869,39.86-71.869-.081,1.693-2.788,1.348-2.963,2.963-4.543,42.019-36.654,59.849-36.935,60,.076-85.9,18.95-146.336,24.559-210.4,0,0-15.827,68.67-24.561,131.873-.5-1.176-19.623-42.478-12.33-81.495l-2.222,5.557s-4.444,65.566,12.595,80.753l.014-.1c-2.479,19.552-4.089,38.651-4.089,55.3V819.448s-6.787,46.179-27.164,48.216c0,0,27.164-.927,27.164-24.572v9.266l.024.02c-.482,11.069-2.978,29.52-13.606,41.1,0,0,20.957-15.675,23.988-37.55a5.1,5.1,0,0,0,.921-.361c6.655,16.338,39.935,29.76,39.935,29.76-26.726-12.814-33.9-36.828-35.655-52.052-.41-27.845-3.3-87.734-5.8-147.534C865.531,668.037,875.667,657.379,885.345,651.022Zm5.071-2.98-5.062,2.974A58.587,58.587,0,0,1,890.416,648.042Zm-37.042-86.083.038,6.653q-.023-2.208-.038-4.334C853.368,563.5,853.376,562.735,853.374,561.959Z" fill="#324a58"/>
    <path d="M413.984,214.014a2.5,2.5,0,0,1-2.471-2.137l-6.792-46.189a2.5,2.5,0,0,1,4.947-.727l6.792,46.189a2.5,2.5,0,0,1-2.476,2.864Z" fill="#ff9b19"/>
    <path d="M448.016,219.448a2.5,2.5,0,0,1-2.218-3.65l16.886-32.6a2.5,2.5,0,0,1,4.44,2.3l-16.886,32.6A2.5,2.5,0,0,1,448.016,219.448Z" fill="#ff9b19"/>
    <path d="M373.924,231.674a2.49,2.49,0,0,1-1.5-.506l-27.863-21.056a2.5,2.5,0,0,1,3.014-3.989l27.863,21.056a2.5,2.5,0,0,1-1.509,4.5Z" fill="#ff9b19"/>
    <path d="M364.53,267.565h-43.6a2.5,2.5,0,0,1,0-5h43.6a2.5,2.5,0,0,1,0,5Z" fill="#ff9b19"/>
    <path d="M354.892,334.24a2.5,2.5,0,0,1-1.912-4.109l25.132-29.887a2.5,2.5,0,1,1,3.826,3.218l-25.132,29.887A2.493,2.493,0,0,1,354.892,334.24Z" fill="#ff9b19"/>
    <path d="M505.683,310.227a2.491,2.491,0,0,1-1.138-.275l-36.678-18.779a2.5,2.5,0,1,1,2.279-4.451l36.679,18.78a2.5,2.5,0,0,1-1.142,4.725Z" fill="#ff9b19"/>
    <path d="M469,247.585a2.5,2.5,0,0,1-.6-4.927l36.679-9.118a2.5,2.5,0,0,1,1.207,4.852L469.61,247.51A2.532,2.532,0,0,1,469,247.585Z" fill="#ff9b19"/>
    <path d="M380.731,915.847a2.5,2.5,0,0,1-2.446-2h0c-.052-.253-5.427-25.332-25.434-31.285a2.5,2.5,0,0,1,1.026-4.876c1.625.205,33.679,4.448,43.914,19.189,1.3-12.187,3.044-30.343,4.227-43.272a2.5,2.5,0,0,1,2.387-2.27,2.469,2.469,0,0,1,2.565,2.067l7.67,43.807c4.831-7.31,14.312-19.057,26.649-21.615,7.717-1.6,15.3.618,22.545,6.592a2.5,2.5,0,0,1-1.052,4.369c-1.061.237-25.085,5.816-25.911,24.293h36.076a2.5,2.5,0,0,1,0,5H434.394a2.5,2.5,0,0,1-2.5-2.351c-1.1-18.445,15.992-27.074,24.773-30.272a19.681,19.681,0,0,0-14.369-2.735c-15.5,3.214-26.629,24.7-26.739,24.914a2.5,2.5,0,0,1-4.689-.706l-5.622-32.105c-.306,3.2-.635,6.586-.969,9.962-.819,8.277-1.507,14.872-2.044,19.6-.322,2.826-.593,5.017-.808,6.512-.347,2.429-.641,4.723-3.128,4.572-2.608-.161-2.537-2.355-2.409-6.338.346-10.7-14.555-17.5-27.721-21.17,11.5,10.559,14.832,26.247,15.01,27.116a2.5,2.5,0,0,1-1.952,2.948A2.455,2.455,0,0,1,380.731,915.847Z" fill="#ff9b19"/>
  </g>

      </g>
    </g>
</g>

              </svg>