<?xml version="1.0" encoding="UTF-8"?><svg version="1.1" xmlns="http://www.w3.org/2000/svg" xmlns:xlink="http://www.w3.org/1999/xlink" viewBox="0 0 260 210" width="260" height="210" x="0px" y="0px">
              
              <!-- ITEM 0 -->
<g>
    <defs>
        
        <clipPath id="clip-path-id-viewbox-item-0">
            <rect x="0.0" y="0.0" width="800.0" height="600.0"/>
        </clipPath>
    </defs>
    <g transform="translate(-20.0 0.0) rotate(0.0 140.0 105.0) scale(0.35 0.35)">
      <g clip-path="url(#clip-path-id-viewbox-item-0)" transform="translate(-0.0 -0.0)">
      
<path fill="#D4DE4E" d="M800,434.858c-2.522-2.37-4.138-4.059-4.677-4.886c-3.392-5.277-14.135-50.887-30.061-59.086  c-27.14-13.947-60.405,9.424-82.174,29.779c-19.13,17.905-33.831,39.391-51.641,58.332c-0.848,0.942-1.791,1.885-2.639,2.733  c-1.696,1.696-3.298,3.392-4.995,4.994c-0.188,0.188-0.377,0.377-0.565,0.471c-1.037,0.942-1.979,1.885-3.016,2.827  c-2.073,1.885-4.241,3.769-6.408,5.466c-1.131,0.942-2.262,1.885-3.487,2.827c-2.45,1.885-4.9,3.675-7.35,5.466  c-1.319,0.942-2.639,1.885-4.052,2.733c-2.827,1.885-5.748,3.675-8.67,5.466c-1.602,0.942-3.204,1.885-4.806,2.733  c-3.392,1.885-6.879,3.675-10.46,5.371c-1.979,0.942-3.958,1.79-5.937,2.733c-4.335,1.885-8.764,3.675-13.287,5.277  c-2.639,0.942-5.183,1.79-7.822,2.639c-47.401,14.889-100.832,13.287-146.065-7.162c-18.376-8.293-35.15-19.224-52.678-28.836  c-72.09-39.485-163.311-55.976-239.453-23.842c-15.078,6.408-29.967,15.078-38.637,28.365c-13.758,21.203-9.047,48.908-18.659,72.09  c95.367-19.13,194.314-1.696,291.66-6.408c24.407-1.131,48.72-3.769,73.127-3.581c28.836,0.188,57.484,4.241,86.226,6.691  c67.315,5.713,196.91,40.426,296.526,49.149V434.858z"/>
<g>
	<path fill="#A1C3FC" d="M729.641,454.568c-0.471,0-0.848-0.283-0.942-0.754c-17.245-75.294-44.291-147.95-80.289-216.083   c-0.283-0.471-0.094-1.037,0.377-1.319c0.471-0.283,1.037-0.094,1.319,0.377c36.092,68.227,63.138,141.071,80.477,216.46   c0.094,0.471-0.188,1.037-0.754,1.131C729.735,454.568,729.735,454.568,729.641,454.568z"/>
</g>
<linearGradient id="SVGID_1_-i0" gradientUnits="userSpaceOnUse" x1="-46.4876" y1="479.8259" x2="698.2938" y2="479.8259">
	<stop offset="0" style="stop-color:#1C2868"/>
	<stop offset="1" style="stop-color:#151A4F"/>
</linearGradient>
<path fill="url(#SVGID_1_-i0)" d="M760.456,401.513c-18.659,4.712-45.987,37.694-73.41,59.18c-0.094,0.094-0.188,0.094-0.188,0.188  c-1.225,0.942-2.45,1.885-3.581,2.827c-2.45,1.979-4.9,3.769-7.162,5.466c-1.225,0.942-2.45,1.885-3.675,2.733  c-2.639,1.979-5.089,3.769-7.539,5.466c-1.319,0.942-2.733,1.885-3.958,2.733c-2.921,1.979-5.748,3.769-8.575,5.466  c-1.602,0.942-3.204,1.885-4.806,2.733c-3.769,1.979-7.445,3.769-11.308,5.371c-2.356,0.942-4.712,1.79-7.256,2.639  c-5.748,1.885-11.874,3.487-19.036,5.089c-3.864,0.848-8.01,1.696-12.439,2.45c-3.769,0.66-7.822,1.414-12.156,2.167  c-5.371,0.942-10.743,1.79-16.114,2.639c-5.371,0.848-10.743,1.602-16.114,2.356c-12.722,1.79-25.538,3.298-38.354,4.523  c-8.293,0.848-16.585,1.508-24.878,2.073c-53.055,3.581-106.298,1.979-158.505-7.727c-36.752-6.785-71.902-18.847-105.356-34.961  c-42.689-20.543-82.456-47.589-118.926-78.404c-13.099-11.12-24.596-18.941-34.302-24.407c-26.951-15.078-40.71-12.251-40.71-12.251  c-10.869,3.107-21.769,7.43-32.108,12.985V600h800V411.185C786.043,402.749,772.417,398.484,760.456,401.513z"/>
<linearGradient id="SVGID_2_-i0" gradientUnits="userSpaceOnUse" x1="339.7008" y1="78.6184" x2="716.2326" y2="78.6184">
	<stop offset="0" style="stop-color:#428DFC"/>
	<stop offset="1" style="stop-color:#1D72D8"/>
</linearGradient>
<path fill="url(#SVGID_2_-i0)" d="M606.851,11.566C589.512,15.347,579.158,9.099,570.722,0H427.543  c-21.503,11.224-37.434,20.706-37.434,20.706s-0.754,0.377-2.167,1.037c0.094,0.188,0.189,0.283,0.283,0.471v46.929  c-2.073,3.769-4.618,7.256-7.539,10.366V25.607c-2.639,1.414-5.654,3.204-8.764,5.089v56.07c-0.66,0.471-1.414,0.848-2.073,1.319  c3.769,0.565,7.633,0.754,11.403,0.66c24.972-0.66,49.097-9.047,71.242-20.355c10.743-5.466,21.297-11.779,33.171-13.57  c11.874-1.79,25.632,2.262,31.098,12.91c10.837,21.015-16.774,45.233-10.743,68.038c3.298,12.533,16.586,20.638,29.59,21.392  c13.005,0.754,25.632-4.146,37.317-9.895C631.542,118.335,711.642,21.46,711.642,21.46C728.133,6.1,701.747-9.166,606.851,11.566z"/>
<linearGradient id="SVGID_3_-i0" gradientUnits="userSpaceOnUse" x1="3396.9614" y1="576.6201" x2="7162.2788" y2="576.6201" gradientTransform="matrix(0.1 0 0 -0.1 0 122)">
	<stop offset="0" style="stop-color:#428DFC"/>
	<stop offset="1" style="stop-color:#1D72D8"/>
</linearGradient>
<path fill="url(#SVGID_3_-i0)" d="M342.332,73.479c1.696,2.262,3.581,4.241,5.748,5.937V49.26  C340.635,57.27,336.772,65.846,342.332,73.479z"/>
<linearGradient id="SVGID_4_-i0" gradientUnits="userSpaceOnUse" x1="3397.0081" y1="605.83" x2="7162.3262" y2="605.83" gradientTransform="matrix(0.1 0 0 -0.1 0 122)">
	<stop offset="0" style="stop-color:#428DFC"/>
	<stop offset="1" style="stop-color:#1D72D8"/>
</linearGradient>
<path fill="url(#SVGID_4_-i0)" d="M355.619,42.287v41.841c2.733,1.319,5.748,2.262,8.764,3.016V35.69  C361.367,37.763,358.446,39.931,355.619,42.287z"/>
<path fill="#E7EFFE" d="M299.266,63.867c1.885,4.712,4.429,8.952,7.539,12.816V14.676c-3.11,3.864-5.654,8.199-7.539,12.816V63.867z  "/>
<path fill="#E7EFFE" d="M315.569,85.164c2.356,1.79,4.9,3.298,7.539,4.618V1.671c-2.639,1.319-5.183,2.827-7.539,4.618V85.164z"/>
<path fill="#E7EFFE" d="M348.08,94.776c2.544-0.188,5.089-0.565,7.539-1.037v-9.706c-2.733-1.225-5.277-2.733-7.539-4.618V94.776z"/>
<path fill="#77ADFD" d="M348.08,49.26v30.155c2.262,1.885,4.806,3.392,7.539,4.618V42.287  C352.886,44.548,350.342,46.81,348.08,49.26z"/>
<path fill="#E7EFFE" d="M364.383,90.912c1.885-0.848,3.675-1.696,5.466-2.733c-1.885-0.283-3.675-0.565-5.466-1.037V90.912z"/>
<path fill="#E7EFFE" d="M371.922,4.498c-2.356-1.602-4.9-2.921-7.539-4.052V35.69c2.544-1.79,5.089-3.392,7.539-4.9V4.498z"/>
<path fill="#77ADFD" d="M371.922,30.79c-2.45,1.508-4.994,3.204-7.539,4.9v51.358c1.79,0.471,3.581,0.754,5.466,1.037  c0.66-0.377,1.414-0.848,2.073-1.319V30.79z"/>
<path fill="#E7EFFE" d="M380.686,11.849v13.758c3.016-1.696,5.56-3.016,7.256-3.864C385.963,18.162,383.513,14.864,380.686,11.849z"/>
<path fill="#77ADFD" d="M388.224,69.144v-46.93c-0.094-0.188-0.188-0.283-0.283-0.471c-1.696,0.848-4.241,2.167-7.256,3.864v53.809  C383.607,76.4,386.151,72.913,388.224,69.144z"/>
<g>
	<g>
		<path fill="#DAE8FE" d="M608.453,118.146c-6.691,0-12.156-5.466-12.156-12.156c0-6.691,5.466-12.156,12.156-12.156    c6.691,0,12.156,5.466,12.156,12.156C620.61,112.681,615.144,118.146,608.453,118.146z M608.453,96.001    c-5.56,0-10.083,4.523-10.083,10.083s4.523,10.083,10.083,10.083s10.083-4.523,10.083-10.083    C618.537,100.524,614.013,96.001,608.453,96.001z"/>
	</g>
	<g>
		<path fill="#DAE8FE" d="M608.453,125.12c-10.554,0-19.13-8.575-19.13-19.13s8.67-19.036,19.13-19.036    c10.554,0,19.13,8.575,19.13,19.13S619.008,125.12,608.453,125.12z M608.453,89.028c-9.424,0-17.057,7.633-17.057,17.057    s7.633,17.057,17.057,17.057s17.057-7.633,17.057-17.057S617.877,89.028,608.453,89.028z"/>
	</g>
	<g>
		<path fill="#DAE8FE" d="M608.453,133.036c-14.889,0-26.951-12.062-26.951-26.951s12.062-26.951,26.951-26.951    s26.951,12.062,26.951,26.951C635.405,120.879,623.343,133.036,608.453,133.036z M608.453,81.112    c-13.758,0-24.972,11.214-24.972,24.972s11.214,24.972,24.972,24.972s24.972-11.214,24.972-24.972S622.212,81.112,608.453,81.112z    "/>
	</g>
	<g>
		<path fill="#DAE8FE" d="M608.453,141.705c-19.695,0-35.715-16.02-35.715-35.715s16.02-35.715,35.715-35.715    s35.715,16.02,35.715,35.715C644.169,125.78,628.149,141.705,608.453,141.705z M608.453,72.442    c-18.564,0-33.642,15.078-33.642,33.642s15.078,33.642,33.642,33.642s33.642-15.078,33.642-33.642S627.018,72.442,608.453,72.442z    "/>
	</g>
	<g>
		<path fill="#DAE8FE" d="M608.453,149.621c-24.03,0-43.537-19.507-43.537-43.537s19.507-43.537,43.537-43.537    c24.03,0,43.537,19.507,43.537,43.537S632.483,149.621,608.453,149.621z M608.453,64.526c-22.899,0-41.464,18.659-41.464,41.464    s18.659,41.464,41.464,41.464s41.464-18.659,41.464-41.464S631.353,64.526,608.453,64.526z"/>
	</g>
</g>
<g>
	<g>
		<path fill="#428DFC" d="M264.587,446.181c-7.445,0-14.23-3.769-20.732-7.445s-13.287-7.445-20.449-7.256    c-6.22,0.188-12.156,3.392-15.643,8.387l-1.508-1.037c3.769-5.466,10.366-8.952,17.151-9.141    c7.727-0.188,14.701,3.675,21.486,7.445c7.068,3.958,13.758,7.727,21.297,7.162c5.654-0.377,10.931-3.298,16.114-6.125    c0.848-0.471,1.79-0.942,2.639-1.508c8.387-4.523,14.889-5.748,20.543-3.864l-0.565,1.79c-5.089-1.696-11.214-0.565-19.036,3.675    c-0.848,0.471-1.79,0.942-2.639,1.414c-5.277,2.921-10.743,5.937-16.868,6.408C265.624,446.087,265.058,446.181,264.587,446.181z"/>
	</g>
	<g>
		<path fill="#428DFC" d="M264.493,455.133c-7.445,0-14.23-3.769-20.732-7.445c-6.502-3.675-13.287-7.445-20.449-7.256    c-6.22,0.188-12.156,3.392-15.643,8.387l-1.508-1.037c3.769-5.466,10.366-8.952,17.151-9.141    c7.727-0.188,14.701,3.675,21.486,7.445c7.068,3.958,13.758,7.727,21.297,7.162c5.654-0.377,10.931-3.298,16.114-6.125    c0.848-0.471,1.79-0.942,2.639-1.508c8.387-4.523,14.889-5.748,20.543-3.864l-0.565,1.79c-5.089-1.696-11.214-0.565-19.036,3.675    c-0.848,0.471-1.79,0.942-2.639,1.414c-5.277,2.921-10.743,5.937-16.868,6.408C265.529,455.039,264.964,455.133,264.493,455.133z"/>
	</g>
	<g>
		<path fill="#428DFC" d="M264.493,464.18c-7.445,0-14.23-3.769-20.732-7.445c-6.502-3.675-13.287-7.445-20.449-7.256    c-6.22,0.189-12.156,3.393-15.643,8.387l-1.508-1.037c3.769-5.466,10.366-8.952,17.151-9.141    c7.727-0.188,14.701,3.675,21.486,7.445c7.068,3.958,13.758,7.727,21.297,7.162c5.654-0.377,10.931-3.298,16.114-6.125    c0.848-0.471,1.79-0.942,2.639-1.508c8.387-4.523,14.889-5.748,20.543-3.864l-0.565,1.79c-5.089-1.696-11.214-0.565-19.036,3.675    c-0.848,0.471-1.79,0.942-2.639,1.414c-5.277,2.921-10.743,5.937-16.868,6.408C265.529,464.086,264.964,464.18,264.493,464.18z"/>
	</g>
</g>
<path fill="#484D84" d="M55.761,419.512c6.125,5.371,18.753,5.56,23.653,0.188l10.083-11.403c6.785-7.822,18.564-8.67,26.009-1.602  c7.822,6.785,9.235,18.564,2.45,26.292l-10.46,11.874c-4.618,5.843-2.733,17.151,3.204,22.334c6.22,5.466,18.659,5.654,23.842-0.283  l9.706-11.026c6.785-7.822,18.376-8.199,26.198-1.414s9.047,18.376,2.262,26.198l-49.851,57.295l-1.131,1.319  c-5.466,6.502-3.581,18.376,2.733,23.842c7.822,6.785,19.695,5.843,26.48-1.979l75.012-86.131  c-42.689-20.543-82.456-47.589-118.926-78.404c-13.099-11.12-24.596-18.941-34.302-24.407l-18.188,20.826  C47.751,400.759,48.033,412.727,55.761,419.512z"/>
<path opacity="0.81" fill="#EEEEEE" enable-background="new    " d="M539.944,267.133l0.094,1.602  c0.094-0.565,0.188-1.131,0.283-1.602H539.944z"/>
<g>
	<path opacity="0.81" fill="#F3F3F3" enable-background="new    " d="M54.63,392.09l31.946-8.858   c1.414-0.942,2.827-1.885,4.146-2.921l-41.558,11.497C50.955,391.996,52.745,392.09,54.63,392.09z"/>
	<path opacity="0.81" fill="#F3F3F3" enable-background="new    " d="M41.06,390.582l55.316-15.36   c0.66-0.754,1.319-1.508,1.979-2.262l-60.688,16.774C38.798,390.017,39.929,390.299,41.06,390.582z"/>
	<path opacity="0.81" fill="#F3F3F3" enable-background="new    " d="M32.108,387.755l69.263-19.224   c0.377-0.66,0.754-1.319,1.131-2.073l-72.844,20.166C30.506,387.095,31.259,387.472,32.108,387.755z"/>
	<path opacity="0.81" fill="#F3F3F3" enable-background="new    " d="M25.323,384.362l78.875-21.863   c0.188-0.66,0.471-1.319,0.66-1.979l-81.42,22.617C24.097,383.609,24.663,383.986,25.323,384.362z"/>
	<path opacity="0.81" fill="#F3F3F3" enable-background="new    " d="M19.951,380.593l85.66-23.747   c0.094-0.565,0.188-1.225,0.188-1.79l-87.451,24.219C18.915,379.745,19.48,380.122,19.951,380.593z"/>
	<path opacity="0.81" fill="#F3F3F3" enable-background="new    " d="M105.988,349.778l-91.503,25.349   c0.377,0.471,0.848,0.942,1.225,1.508l90.278-25.067C106.083,350.909,105.988,350.343,105.988,349.778z"/>
	<path opacity="0.81" fill="#F3F3F3" enable-background="new    " d="M105.14,344.689l-93.67,26.009   c0.283,0.471,0.565,1.037,0.942,1.508l93.105-25.821C105.423,345.82,105.234,345.255,105.14,344.689z"/>
	<path opacity="0.81" fill="#F3F3F3" enable-background="new    " d="M103.444,339.883L9.302,365.986   c0.188,0.565,0.377,1.037,0.66,1.602l94.142-26.103C103.915,340.92,103.727,340.449,103.444,339.883z"/>
	<path opacity="0.81" fill="#F3F3F3" enable-background="new    " d="M100.9,335.266L8.266,360.992l0.188,1.696l93.482-25.915   C101.559,336.302,101.277,335.831,100.9,335.266z"/>
	<path opacity="0.81" fill="#F3F3F3" enable-background="new    " d="M97.601,331.025L7.889,355.903l0.094,1.79l90.843-25.161   C98.449,331.967,98.073,331.496,97.601,331.025z"/>
	<path opacity="0.81" fill="#F3F3F3" enable-background="new    " d="M93.267,326.973L7.7,350.626   c-0.094,0.471-0.188,0.942-0.188,1.319v0.471l87.262-24.219C94.303,327.821,93.832,327.35,93.267,326.973z"/>
	<path opacity="0.81" fill="#F3F3F3" enable-background="new    " d="M87.895,323.109L9.208,344.972   c-0.188,0.66-0.471,1.225-0.66,1.885l81.231-22.522C89.214,323.957,88.555,323.58,87.895,323.109z"/>
	<path opacity="0.81" fill="#F3F3F3" enable-background="new    " d="M81.11,319.811l-68.886,19.036   c-0.377,0.66-0.848,1.414-1.131,2.073l72.562-20.072C82.806,320.471,81.958,320.094,81.11,319.811z"/>
	<path opacity="0.81" fill="#F3F3F3" enable-background="new    " d="M72.158,316.984l-54.845,15.172   c-0.66,0.754-1.414,1.508-1.979,2.262l60.122-16.586C74.419,317.549,73.289,317.267,72.158,316.984z"/>
	<path opacity="0.81" fill="#F3F3F3" enable-background="new    " d="M58.211,315.57l-30.909,8.575   c-1.602,0.942-3.016,1.979-4.429,3.016l40.993-11.403C62.074,315.665,60.19,315.57,58.211,315.57z"/>
</g>
<g>
	<rect x="555.022" y="43.418" fill="#D4DE4E" width="5.371" height="5.371"/>
	<rect x="525.149" y="43.418" fill="#D4DE4E" width="5.371" height="5.371"/>
	<rect x="495.276" y="43.418" fill="#D4DE4E" width="5.371" height="5.371"/>
	<rect x="465.403" y="43.418" fill="#D4DE4E" width="5.371" height="5.371"/>
	<path fill="#D4DE4E" d="M440.902,44.266c-1.79,1.414-3.487,2.921-5.183,4.523h5.183V44.266z"/>
	<rect x="584.894" y="72.442" fill="#D4DE4E" width="5.371" height="5.371"/>
	<rect x="555.022" y="72.442" fill="#D4DE4E" width="5.371" height="5.371"/>
	<rect x="525.149" y="72.442" fill="#D4DE4E" width="5.371" height="5.371"/>
	<rect x="495.276" y="72.442" fill="#D4DE4E" width="5.371" height="5.371"/>
	<rect x="465.403" y="72.442" fill="#D4DE4E" width="5.371" height="5.371"/>
	<rect x="435.531" y="72.442" fill="#D4DE4E" width="5.371" height="5.371"/>
	<rect x="584.894" y="101.561" fill="#D4DE4E" width="5.371" height="5.371"/>
	<rect x="555.022" y="101.561" fill="#D4DE4E" width="5.371" height="5.371"/>
	<rect x="525.149" y="101.561" fill="#D4DE4E" width="5.371" height="5.371"/>
	<rect x="495.276" y="101.561" fill="#D4DE4E" width="5.371" height="5.371"/>
	<rect x="465.403" y="101.561" fill="#D4DE4E" width="5.371" height="5.371"/>
	<rect x="435.531" y="101.561" fill="#D4DE4E" width="5.371" height="5.371"/>
	<path fill="#D4DE4E" d="M405.658,101.561v0.283C405.658,101.749,405.658,101.655,405.658,101.561L405.658,101.561z"/>
	<path fill="#D4DE4E" d="M411.029,106.932v-5.371h-5.277c0,0.094,0,0.188-0.094,0.283v5.089   C405.658,106.932,411.029,106.932,411.029,106.932z"/>
	<rect x="584.894" y="130.586" fill="#D4DE4E" width="5.371" height="5.371"/>
	<rect x="555.022" y="130.586" fill="#D4DE4E" width="5.371" height="5.371"/>
	<rect x="525.149" y="130.586" fill="#D4DE4E" width="5.371" height="5.371"/>
	<rect x="495.276" y="130.586" fill="#D4DE4E" width="5.371" height="5.371"/>
	<rect x="465.403" y="130.586" fill="#D4DE4E" width="5.371" height="5.371"/>
	<rect x="435.531" y="130.586" fill="#D4DE4E" width="5.371" height="5.371"/>
	<rect x="405.658" y="130.586" fill="#D4DE4E" width="5.371" height="5.371"/>
	<rect x="584.894" y="159.61" fill="#D4DE4E" width="5.371" height="5.371"/>
	<rect x="555.022" y="159.61" fill="#D4DE4E" width="5.371" height="5.371"/>
	<rect x="525.149" y="159.61" fill="#D4DE4E" width="5.371" height="5.371"/>
	<rect x="495.276" y="159.61" fill="#D4DE4E" width="5.371" height="5.371"/>
	<rect x="465.403" y="159.61" fill="#D4DE4E" width="5.371" height="5.371"/>
	<rect x="435.531" y="159.61" fill="#D4DE4E" width="5.371" height="5.371"/>
	<path fill="#D4DE4E" d="M410.464,159.61c0.189,0.471,0.377,0.942,0.565,1.319v-1.319H410.464z"/>
	<rect x="555.022" y="188.729" fill="#D4DE4E" width="5.371" height="5.371"/>
	<rect x="525.149" y="188.729" fill="#D4DE4E" width="5.371" height="5.371"/>
	<rect x="495.276" y="188.729" fill="#D4DE4E" width="5.371" height="5.371"/>
	<rect x="465.403" y="188.729" fill="#D4DE4E" width="5.371" height="5.371"/>
	<rect x="435.531" y="188.729" fill="#D4DE4E" width="5.371" height="5.371"/>
	<path fill="#D4DE4E" d="M525.149,217.754v3.581c1.79-0.377,3.581-0.848,5.371-1.319v-2.262   C530.52,217.754,525.149,217.754,525.149,217.754z"/>
	<path fill="#D4DE4E" d="M495.276,223.125h0.377C495.559,223.125,495.37,223.125,495.276,223.125L495.276,223.125z"/>
	<path fill="#D4DE4E" d="M500.648,217.754h-5.371v5.371c0.094,0,0.283,0,0.377,0h4.994V217.754z"/>
	<path fill="#D4DE4E" d="M470.681,217.754C470.681,217.754,470.775,217.754,470.681,217.754L470.681,217.754L470.681,217.754z"/>
</g>
<path fill="#23286B" d="M730.771,108.817l5.466-6.22c3.487-4.052,2.733-10.177-1.319-13.758c-1.225-1.131-2.544-1.79-3.958-2.167  c0.377,3.016-0.471,6.22-2.639,8.67l-30.532,34.961l-0.66,0.848c-3.298,3.958-2.167,11.214,1.696,14.607  c4.806,4.146,12.062,3.581,16.209-1.225l19.695-22.617c-0.848-0.377-1.602-0.754-2.262-1.319  C729.358,117.77,728.321,111.927,730.771,108.817z"/>
<path fill="#E9F1FE" d="M726.908,79.227c-4.806-4.241-11.968-3.958-16.114,0.848l-9.989,11.214c0.471,1.602,1.414,3.11,2.733,4.335  c3.204,2.827,9.895,2.921,12.439,0.094l5.277-6.031c2.544-2.827,6.314-3.958,9.706-3.016  C730.583,83.845,729.169,81.206,726.908,79.227z"/>
<g>
	<polygon fill="#F4F4F4" points="220.673,351.945 219.731,353.453 219.26,354.019 219.637,354.301 222.935,356.657 224.348,354.584     "/>
	
		<rect x="233.283" y="362.007" transform="matrix(0.8211 0.5707 -0.5707 0.8211 249.3545 -69.0166)" fill="#F4F4F4" width="3.015" height="2.638"/>
	
		<rect x="245.052" y="371.275" transform="matrix(0.8211 0.5707 -0.5707 0.8211 257.0189 -74.9363)" fill="#F4F4F4" width="6.031" height="2.638"/>
	
		<rect x="259.376" y="381.171" transform="matrix(-0.8211 -0.5707 0.5707 -0.8211 259.5546 846.3211)" fill="#F4F4F4" width="6.031" height="2.638"/>
	
		<rect x="272.654" y="390.295" transform="matrix(-0.8211 -0.5707 0.5707 -0.8211 278.0988 870.3811)" fill="#F4F4F4" width="5.56" height="2.638"/>
	
		<rect x="287.11" y="400.281" transform="matrix(-0.8211 -0.5707 0.5707 -0.8211 298.7255 896.818)" fill="#F4F4F4" width="5.56" height="2.638"/>
	
		<rect x="300.789" y="409.294" transform="matrix(-0.8211 -0.5707 0.5707 -0.8211 317.1211 920.6083)" fill="#F4F4F4" width="4.052" height="2.638"/>
	
		<rect x="313.57" y="418.152" transform="matrix(-0.8211 -0.5707 0.5707 -0.8211 335.3416 944.034)" fill="#F4F4F4" width="4.052" height="2.638"/>
	
		<rect x="326.226" y="427.591" transform="matrix(-0.8211 -0.5707 0.5707 -0.8211 354.8044 969.0119)" fill="#F4F4F4" width="6.031" height="2.638"/>
	
		<rect x="341.038" y="437.814" transform="matrix(-0.8211 -0.5707 0.5707 -0.8211 375.515 995.9481)" fill="#F4F4F4" width="5.56" height="2.638"/>
	
		<rect x="353.831" y="446.773" transform="matrix(-0.8211 -0.5707 0.5707 -0.8211 394.1289 1019.7009)" fill="#F4F4F4" width="6.031" height="2.638"/>
	
		<rect x="368.401" y="456.237" transform="matrix(-0.8211 -0.5707 0.5707 -0.8211 413.4591 1044.686)" fill="#F4F4F4" width="4.052" height="2.638"/>
	<path fill="#F4F4F4" d="M380.026,465.876l2.639,1.79c0.942-0.377,1.979-0.754,2.921-1.037l-4.146-2.827L380.026,465.876z"/>
	
		<rect x="229.085" y="351.275" transform="matrix(0.8211 0.5707 -0.5707 0.8211 242.6141 -69.4433)" fill="#F4F4F4" width="6.031" height="2.167"/>
	
		<rect x="243.771" y="360.403" transform="matrix(0.8211 0.5707 -0.5707 0.8211 250.1806 -75.3316)" fill="#F4F4F4" width="3.015" height="2.167"/>
	
		<rect x="255.811" y="369.795" transform="matrix(-0.8211 -0.5707 0.5707 -0.8211 259.2597 823.007)" fill="#F4F4F4" width="5.56" height="2.167"/>
	
		<rect x="269.423" y="379.335" transform="matrix(-0.8211 -0.5707 0.5707 -0.8211 279.0325 848.2838)" fill="#F4F4F4" width="6.031" height="2.167"/>
	
		<rect x="283.042" y="388.746" transform="matrix(-0.8211 -0.5707 0.5707 -0.8211 298.4647 873.1945)" fill="#F4F4F4" width="6.031" height="2.167"/>
	
		<rect x="296.676" y="398.232" transform="matrix(-0.8211 -0.5707 0.5707 -0.8211 317.8783 898.2518)" fill="#F4F4F4" width="6.031" height="2.167"/>
	
		<rect x="310.945" y="407.288" transform="matrix(-0.8211 -0.5707 0.5707 -0.8211 336.3808 922.1604)" fill="#F4F4F4" width="3.487" height="2.167"/>
	
		<rect x="323.429" y="416.921" transform="matrix(-0.8211 -0.5707 0.5707 -0.8211 355.933 947.5557)" fill="#F4F4F4" width="6.031" height="2.167"/>
	
		<rect x="337.055" y="426.33" transform="matrix(-0.8211 -0.5707 0.5707 -0.8211 375.3796 972.4674)" fill="#F4F4F4" width="6.031" height="2.167"/>
	
		<rect x="350.611" y="435.763" transform="matrix(-0.8211 -0.5707 0.5707 -0.8211 394.683 997.3831)" fill="#F4F4F4" width="6.031" height="2.167"/>
	
		<rect x="365.243" y="445.555" transform="matrix(-0.8211 -0.5707 0.5707 -0.8211 414.7964 1023.271)" fill="#F4F4F4" width="4.994" height="2.167"/>
	
		<rect x="379.229" y="454.975" transform="matrix(-0.8211 -0.5707 0.5707 -0.8211 434.0343 1048.1387)" fill="#F4F4F4" width="4.052" height="2.167"/>
	<path fill="#F4F4F4" d="M392.748,463.426c0.189-0.094,0.377-0.189,0.66-0.283l-0.283-0.188L392.748,463.426z"/>
	
		<rect x="224.089" y="338.44" transform="matrix(-0.8211 -0.5707 0.5707 -0.8211 219.9471 747.5062)" fill="#F4F4F4" width="6.031" height="1.696"/>
	
		<rect x="238.684" y="347.921" transform="matrix(0.8211 0.5707 -0.5707 0.8211 242.1055 -74.9986)" fill="#F4F4F4" width="4.052" height="1.696"/>
	
		<rect x="250.458" y="356.836" transform="matrix(0.8211 0.5707 -0.5707 0.8211 249.4765 -80.6884)" fill="#F4F4F4" width="6.031" height="1.696"/>
	
		<rect x="264.984" y="366.495" transform="matrix(-0.8211 -0.5707 0.5707 -0.8211 277.468 821.6422)" fill="#F4F4F4" width="4.994" height="1.696"/>
	
		<rect x="279.042" y="376.049" transform="matrix(-0.8211 -0.5707 0.5707 -0.8211 297.1884 846.9291)" fill="#F4F4F4" width="4.523" height="1.696"/>
	
		<rect x="292.392" y="385.956" transform="matrix(-0.8211 -0.5707 0.5707 -0.8211 317.2184 873.0209)" fill="#F4F4F4" width="6.031" height="1.696"/>
	
		<rect x="306.232" y="394.889" transform="matrix(-0.8211 -0.5707 0.5707 -0.8211 335.523 896.6236)" fill="#F4F4F4" width="4.052" height="1.696"/>
	
		<rect x="320.249" y="401.595" transform="matrix(-0.5707 0.8211 -0.8211 -0.5707 836.5968 371.8678)" fill="#F4F4F4" width="1.696" height="6.031"/>
	
		<rect x="332.92" y="413.978" transform="matrix(-0.8211 -0.5707 0.5707 -0.8211 374.6043 947.0485)" fill="#F4F4F4" width="5.56" height="1.696"/>
	
		<rect x="346.649" y="423.185" transform="matrix(-0.8211 -0.5707 0.5707 -0.8211 393.8369 971.4897)" fill="#F4F4F4" width="4.994" height="1.696"/>
	
		<rect x="360.05" y="432.944" transform="matrix(-0.8211 -0.5707 0.5707 -0.8211 413.6154 997.2071)" fill="#F4F4F4" width="6.031" height="1.696"/>
	
		<rect x="373.899" y="441.945" transform="matrix(0.8211 0.5707 -0.5707 0.8211 319.9524 -135.3522)" fill="#F4F4F4" width="4.052" height="1.696"/>
	
		<rect x="386.996" y="451.478" transform="matrix(0.8211 0.5707 -0.5707 0.8211 327.8703 -141.5523)" fill="#F4F4F4" width="5.56" height="1.696"/>
	<path fill="#F4F4F4" d="M226.987,328.858l-0.848-0.565c-0.283,0.848-0.66,1.602-0.942,2.544l0.283,0.188L226.987,328.858z"/>
	
		<rect x="235.437" y="336.093" transform="matrix(0.8211 0.5707 -0.5707 0.8211 234.9502 -74.881)" fill="#F4F4F4" width="3.015" height="2.638"/>
	
		<rect x="248.532" y="345.723" transform="matrix(0.8211 0.5707 -0.5707 0.8211 242.9236 -81.0624)" fill="#F4F4F4" width="4.523" height="2.638"/>
	
		<rect x="261.292" y="354.665" transform="matrix(0.8211 0.5707 -0.5707 0.8211 250.3511 -86.8802)" fill="#F4F4F4" width="4.994" height="2.638"/>
	
		<rect x="274.789" y="364.415" transform="matrix(-0.8211 -0.5707 0.5707 -0.8211 297.1864 824.6039)" fill="#F4F4F4" width="6.031" height="2.638"/>
	
		<rect x="289.244" y="374.401" transform="matrix(-0.8211 -0.5707 0.5707 -0.8211 317.8117 851.0392)" fill="#F4F4F4" width="6.031" height="2.638"/>
	
		<rect x="303.025" y="382.479" transform="matrix(-0.5707 0.8211 -0.8211 -0.5707 793.5414 353.6001)" fill="#F4F4F4" width="2.638" height="3.487"/>
	
		<rect x="317.122" y="392.733" transform="matrix(-0.8211 -0.5707 0.5707 -0.8211 355.3728 899.4752)" fill="#F4F4F4" width="3.015" height="2.638"/>
	
		<rect x="328.786" y="401.867" transform="matrix(-0.8211 -0.5707 0.5707 -0.8211 374.1472 923.6259)" fill="#F4F4F4" width="6.031" height="2.638"/>
	
		<rect x="342.309" y="411.356" transform="matrix(-0.8211 -0.5707 0.5707 -0.8211 393.3593 948.6252)" fill="#F4F4F4" width="6.031" height="2.638"/>
	
		<rect x="355.935" y="420.766" transform="matrix(-0.8211 -0.5707 0.5707 -0.8211 412.804 973.5381)" fill="#F4F4F4" width="6.031" height="2.638"/>
	
		<rect x="371.037" y="430.317" transform="matrix(-0.8211 -0.5707 0.5707 -0.8211 432.538 998.8245)" fill="#F4F4F4" width="3.487" height="2.638"/>
	
		<rect x="384.646" y="439.978" transform="matrix(-0.8211 -0.5707 0.5707 -0.8211 452.3232 1024.3477)" fill="#F4F4F4" width="4.052" height="2.638"/>
	
		<rect x="396.523" y="448.924" transform="matrix(0.8211 0.5707 -0.5707 0.8211 328.4276 -147.4972)" fill="#F4F4F4" width="6.031" height="2.638"/>
	
		<rect x="228.619" y="322.164" transform="matrix(-0.8211 -0.5707 0.5707 -0.8211 236.0585 721.6985)" fill="#F4F4F4" width="4.994" height="3.392"/>
	
		<rect x="242.324" y="331.42" transform="matrix(0.8211 0.5707 -0.5707 0.8211 233.8231 -79.876)" fill="#F4F4F4" width="4.052" height="3.392"/>
	
		<rect x="256.579" y="341.211" transform="matrix(0.5707 -0.8211 0.8211 0.5707 -170.549 359.1995)" fill="#F4F4F4" width="3.392" height="3.015"/>
	
		<rect x="269.985" y="349.293" transform="matrix(0.5707 -0.8211 0.8211 0.5707 -172.4763 374.2231)" fill="#F4F4F4" width="3.392" height="5.56"/>
	
		<rect x="282.428" y="359.861" transform="matrix(-0.8211 -0.5707 0.5707 -0.8211 313.4816 821.3561)" fill="#F4F4F4" width="6.031" height="3.392"/>
	
		<rect x="296.178" y="369.498" transform="matrix(0.8211 0.5707 -0.5707 0.8211 265.3645 -104.366)" fill="#F4F4F4" width="6.031" height="3.392"/>
	
		<rect x="309.799" y="378.642" transform="matrix(-0.8211 -0.5707 0.5707 -0.8211 351.6657 870.8849)" fill="#F4F4F4" width="4.994" height="3.392"/>
	
		<rect x="323.881" y="387.895" transform="matrix(-0.8211 -0.5707 0.5707 -0.8211 370.6572 895.342)" fill="#F4F4F4" width="3.487" height="3.392"/>
	
		<rect x="336.442" y="397.446" transform="matrix(-0.8211 -0.5707 0.5707 -0.8211 390.3971 920.6306)" fill="#F4F4F4" width="6.031" height="3.392"/>
	
		<rect x="350.064" y="406.936" transform="matrix(-0.8211 -0.5707 0.5707 -0.8211 409.7904 945.6872)" fill="#F4F4F4" width="6.031" height="3.392"/>
	
		<rect x="363.675" y="416.427" transform="matrix(-0.8211 -0.5707 0.5707 -0.8211 429.1603 970.7414)" fill="#F4F4F4" width="6.031" height="3.392"/>
	
		<rect x="378.44" y="425.661" transform="matrix(-0.8212 -0.5707 0.5707 -0.8212 448.0659 995.1208)" fill="#F4F4F4" width="3.016" height="3.393"/>
	
		<rect x="392.587" y="435.302" transform="matrix(-0.5707 0.8211 -0.8211 -0.5707 978.4181 363.1618)" fill="#F4F4F4" width="3.392" height="4.052"/>
	
		<rect x="405.097" y="444.565" transform="matrix(0.8211 0.5707 -0.5707 0.8211 327.5116 -152.538)" fill="#F4F4F4" width="4.052" height="3.392"/>
	
		<rect x="241.156" y="319.254" transform="matrix(0.5707 -0.8212 0.8212 0.5707 -160.3458 337.3701)" fill="#F4F4F4" width="2.639" height="5.56"/>
	
		<rect x="254.194" y="328.918" transform="matrix(0.5707 -0.8211 0.8211 0.5707 -162.067 351.8767)" fill="#F4F4F4" width="2.638" height="4.052"/>
	
		<rect x="266.274" y="338.858" transform="matrix(0.8211 0.5707 -0.5707 0.8211 242.221 -92.5507)" fill="#F4F4F4" width="4.994" height="2.638"/>
	
		<rect x="280.616" y="346.246" transform="matrix(0.5707 -0.8211 0.8211 0.5707 -165.7656 381.4364)" fill="#F4F4F4" width="2.638" height="6.031"/>
	
		<rect x="295.226" y="356.705" transform="matrix(0.5707 -0.8211 0.8211 0.5707 -167.8888 397.8218)" fill="#F4F4F4" width="2.638" height="5.56"/>
	
		<rect x="306.467" y="367.095" transform="matrix(-0.8211 -0.5707 0.5707 -0.8211 353.3463 847.5638)" fill="#F4F4F4" width="6.031" height="2.638"/>
	
		<rect x="320.983" y="376.635" transform="matrix(-0.8211 -0.5707 0.5707 -0.8211 372.5355 872.6578)" fill="#F4F4F4" width="4.052" height="2.638"/>
	
		<rect x="334.582" y="383.773" transform="matrix(0.5707 -0.8211 0.8211 0.5707 -173.4141 441.8587)" fill="#F4F4F4" width="2.638" height="6.031"/>
	
		<rect x="347.835" y="395.372" transform="matrix(-0.8211 -0.5707 0.5707 -0.8211 411.1729 922.2386)" fill="#F4F4F4" width="4.523" height="2.638"/>
	
		<rect x="361.381" y="404.807" transform="matrix(-0.8211 -0.5707 0.5707 -0.8211 430.4567 947.1533)" fill="#F4F4F4" width="4.523" height="2.638"/>
	
		<rect x="374.874" y="414.745" transform="matrix(-0.8211 -0.5707 0.5707 -0.8211 450.7294 973.3824)" fill="#F4F4F4" width="6.031" height="2.638"/>
	
		<rect x="388.675" y="423.552" transform="matrix(-0.8211 -0.5707 0.5707 -0.8211 469.036 996.7325)" fill="#F4F4F4" width="4.052" height="2.638"/>
	
		<rect x="400.445" y="432.515" transform="matrix(-0.8211 -0.5707 0.5707 -0.8211 487.156 1020.3376)" fill="#F4F4F4" width="6.031" height="2.638"/>
	<path fill="#F4F4F4" d="M415.082,443.448l3.016,2.167c0.66-0.565,1.319-1.131,1.979-1.696l-3.581-2.544L415.082,443.448z"/>
	<path fill="#F4F4F4" d="M239.709,310.576l-4.241-2.921c-0.283,0.565-0.565,0.942-0.848,1.508l4.146,2.827L239.709,310.576z"/>
	
		<rect x="248.396" y="317.921" transform="matrix(0.8211 0.5707 -0.5707 0.8211 226.6281 -85.6115)" fill="#F4F4F4" width="3.015" height="1.696"/>
	
		<rect x="260.517" y="327.276" transform="matrix(0.8211 0.5707 -0.5707 0.8211 234.3625 -91.5825)" fill="#F4F4F4" width="5.56" height="1.696"/>
	
		<rect x="274.199" y="336.574" transform="matrix(0.8211 0.5707 -0.5707 0.8211 242.0661 -97.5662)" fill="#F4F4F4" width="4.994" height="1.696"/>
	
		<rect x="287.645" y="346.349" transform="matrix(-0.8211 -0.5707 0.5707 -0.8211 331.1788 798.1829)" fill="#F4F4F4" width="6.031" height="1.696"/>
	
		<rect x="302.101" y="356.337" transform="matrix(-0.8211 -0.5707 0.5707 -0.8211 351.8037 824.6215)" fill="#F4F4F4" width="6.031" height="1.696"/>
	
		<rect x="315.587" y="364.771" transform="matrix(0.8211 0.5707 -0.5707 0.8211 265.4266 -115.7143)" fill="#F4F4F4" width="3.487" height="1.696"/>
	
		<rect x="328.198" y="374.117" transform="matrix(-0.8211 -0.5707 0.5707 -0.8211 388.2392 871.6)" fill="#F4F4F4" width="4.994" height="1.696"/>
	
		<rect x="341.719" y="383.855" transform="matrix(-0.8211 -0.5707 0.5707 -0.8211 408.2495 897.3467)" fill="#F4F4F4" width="6.031" height="1.696"/>
	
		<rect x="355.268" y="393.259" transform="matrix(-0.8211 -0.5707 0.5707 -0.8211 427.5557 922.2056)" fill="#F4F4F4" width="6.031" height="1.696"/>
	
		<rect x="368.802" y="402.697" transform="matrix(-0.8211 -0.5707 0.5707 -0.8211 446.8167 947.1182)" fill="#F4F4F4" width="6.031" height="1.696"/>
	
		<rect x="383.98" y="412.303" transform="matrix(-0.8211 -0.5707 0.5707 -0.8211 466.6595 972.5492)" fill="#F4F4F4" width="3.487" height="1.696"/>
	
		<rect x="395.619" y="421.306" transform="matrix(-0.8211 -0.5707 0.5707 -0.8211 485.0337 996.3131)" fill="#F4F4F4" width="6.031" height="1.696"/>
	
		<rect x="411.462" y="428.698" transform="matrix(-0.5707 0.8212 -0.8212 -0.5707 1002.1177 339.5069)" fill="#F4F4F4" width="1.696" height="6.031"/>
	<path fill="#F4F4F4" d="M424.128,440.15c0.283-0.283,0.565-0.565,0.848-0.754l-0.188-0.094L424.128,440.15z"/>
	
		<rect x="246.06" y="304.923" transform="matrix(0.5707 -0.8211 0.8211 0.5707 -146.5052 335.632)" fill="#F4F4F4" width="3.392" height="6.031"/>
	
		<rect x="258.48" y="315.102" transform="matrix(0.8211 0.5707 -0.5707 0.8211 227.3995 -92.0153)" fill="#F4F4F4" width="4.052" height="3.392"/>
	
		<rect x="270.268" y="323.98" transform="matrix(0.8211 0.5707 -0.5707 0.8211 234.752 -97.7197)" fill="#F4F4F4" width="6.031" height="3.392"/>
	
		<rect x="285.044" y="334.148" transform="matrix(-0.8211 -0.5707 0.5707 -0.8211 332.4924 775.8874)" fill="#F4F4F4" width="5.56" height="3.392"/>
	
		<rect x="299.58" y="342.7" transform="matrix(-0.5707 0.8211 -0.8211 -0.5707 756.678 294.8209)" fill="#F4F4F4" width="3.392" height="4.994"/>
	
		<rect x="312.279" y="353.252" transform="matrix(0.8211 0.5707 -0.5707 0.8211 258.9725 -116.4612)" fill="#F4F4F4" width="6.031" height="3.392"/>
	
		<rect x="326.91" y="362.386" transform="matrix(-0.8211 -0.5707 0.5707 -0.8211 390.3031 850.4808)" fill="#F4F4F4" width="3.015" height="3.392"/>
	
		<rect x="338.712" y="371.493" transform="matrix(-0.8211 -0.5707 0.5707 -0.8211 409.3441 874.663)" fill="#F4F4F4" width="6.031" height="3.392"/>
	
		<rect x="351.831" y="380.56" transform="matrix(-0.8211 -0.5707 0.5707 -0.8211 427.6312 898.5281)" fill="#F4F4F4" width="5.56" height="3.392"/>
	
		<rect x="366.309" y="390.677" transform="matrix(-0.8211 -0.5707 0.5707 -0.8211 448.6541 925.3488)" fill="#F4F4F4" width="6.031" height="3.392"/>
	
		<rect x="380.875" y="400.141" transform="matrix(-0.8211 -0.5707 0.5707 -0.8211 467.9774 950.3329)" fill="#F4F4F4" width="4.052" height="3.392"/>
	
		<rect x="393.669" y="409.053" transform="matrix(-0.8211 -0.5707 0.5707 -0.8211 486.1894 973.8654)" fill="#F4F4F4" width="4.052" height="3.392"/>
	
		<rect x="405.889" y="418.069" transform="matrix(-0.8211 -0.5707 0.5707 -0.8211 504.6711 997.6895)" fill="#F4F4F4" width="5.56" height="3.392"/>
	
		<rect x="420.249" y="428.351" transform="matrix(0.8211 0.5707 -0.5707 0.8211 321.1449 -164.6502)" fill="#F4F4F4" width="6.031" height="3.392"/>
	<path fill="#F4F4F4" d="M249.321,437.606c1.602,1.131,3.204,2.356,4.9,3.487l0.471-0.66l-4.9-3.392L249.321,437.606z"/>
	<path fill="#F4F4F4" d="M233.96,419.984l1.225-1.885l-3.204-2.262C232.641,417.251,233.301,418.664,233.96,419.984z"/>
	
		<rect x="243.871" y="426.104" transform="matrix(0.8211 0.5707 -0.5707 0.8211 288.0462 -64.0001)" fill="#F4F4F4" width="4.523" height="2.921"/>
	
		<rect x="257.362" y="436.002" transform="matrix(0.8211 0.5707 -0.5707 0.8211 296.2432 -70.3599)" fill="#F4F4F4" width="6.031" height="2.921"/>
	
		<rect x="271.074" y="444.954" transform="matrix(0.8211 0.5707 -0.5707 0.8211 303.6277 -76.0197)" fill="#F4F4F4" width="4.052" height="2.921"/>
	<path fill="#F4F4F4" d="M282.586,454.757l0.471,0.377c1.79,0.754,3.487,1.319,5.277,1.979l0.942-1.319l-4.9-3.392L282.586,454.757z   "/>
	<path fill="#F4F4F4" d="M227.835,403.963c0.377,1.131,0.848,2.45,1.131,3.581l1.319,0.942l1.414-2.073l-4.146-2.827   C227.741,403.681,227.835,403.869,227.835,403.963z"/>
	
		<rect x="239.878" y="414.431" transform="matrix(-0.8211 -0.5707 0.5707 -0.8211 205.0628 895.7645)" fill="#F4F4F4" width="6.031" height="2.638"/>
	
		<rect x="254.337" y="424.416" transform="matrix(-0.8211 -0.5707 0.5707 -0.8211 225.6959 922.2016)" fill="#F4F4F4" width="6.031" height="2.638"/>
	
		<rect x="268.291" y="432.596" transform="matrix(-0.5707 0.8211 -0.8211 -0.5707 780.1376 460.8409)" fill="#F4F4F4" width="2.638" height="3.487"/>
	
		<rect x="282.387" y="442.859" transform="matrix(-0.8211 -0.5707 0.5707 -0.8211 263.5063 970.9352)" fill="#F4F4F4" width="3.015" height="2.638"/>
	
		<rect x="294.077" y="452.032" transform="matrix(0.8211 0.5707 -0.5707 0.8211 311.8781 -88.4721)" fill="#F4F4F4" width="6.031" height="2.638"/>
	<path fill="#F4F4F4" d="M307.464,462.107l2.45,1.602c1.037,0.283,2.167,0.565,3.204,0.848l0.848-1.131l-4.9-3.393L307.464,462.107z   "/>
	<path fill="#F4F4F4" d="M223.595,390.017c0.377,1.225,0.754,2.544,1.037,3.769l1.508-2.167L223.595,390.017L223.595,390.017z"/>
	
		<rect x="235.349" y="398.976" transform="matrix(-0.5707 0.8211 -0.8211 -0.5707 702.6005 436.2079)" fill="#F4F4F4" width="3.863" height="5.56"/>
	
		<rect x="248.049" y="409.245" transform="matrix(-0.8211 -0.5707 0.5707 -0.8211 222.554 892.0996)" fill="#F4F4F4" width="6.031" height="3.863"/>
	
		<rect x="262.609" y="417.694" transform="matrix(-0.5707 0.8211 -0.8211 -0.5707 760.9824 443.595)" fill="#F4F4F4" width="3.863" height="6.031"/>
	
		<rect x="275.316" y="427.966" transform="matrix(0.8211 0.5707 -0.5707 0.8211 295.0439 -81.6636)" fill="#F4F4F4" width="4.994" height="3.863"/>
	
		<rect x="289.576" y="437.253" transform="matrix(0.8211 0.5707 -0.5707 0.8211 302.7601 -87.7113)" fill="#F4F4F4" width="3.487" height="3.863"/>
	
		<rect x="303.094" y="445.815" transform="matrix(-0.5707 0.8211 -0.8211 -0.5707 847.6635 454.5217)" fill="#F4F4F4" width="3.863" height="6.031"/>
	
		<rect x="315.768" y="456.308" transform="matrix(0.8211 0.5707 -0.5707 0.8211 318.5474 -99.9773)" fill="#F4F4F4" width="6.031" height="3.863"/>
	<path fill="#F4F4F4" d="M328.667,467.573l0.942,0.66c1.79,0.377,3.581,0.66,5.371,0.942l0.942-1.225l-4.9-3.392L328.667,467.573z"/>
	<path fill="#F4F4F4" d="M221.804,382.949l0.848-1.131l-1.225-0.942C221.427,381.63,221.616,382.383,221.804,382.949z"/>
	
		<rect x="231.087" y="389.691" transform="matrix(-0.8211 -0.5707 0.5707 -0.8211 202.4982 844.5393)" fill="#F4F4F4" width="4.994" height="1.696"/>
	
		<rect x="243.777" y="398.932" transform="matrix(-0.8211 -0.5707 0.5707 -0.8211 221.279 868.9058)" fill="#F4F4F4" width="6.031" height="1.696"/>
	
		<rect x="258.714" y="409.051" transform="matrix(-0.8211 -0.5707 0.5707 -0.8211 242.2764 895.7245)" fill="#F4F4F4" width="5.56" height="1.696"/>
	
		<rect x="271.436" y="418.036" transform="matrix(-0.8211 -0.5707 0.5707 -0.8211 260.7454 919.4828)" fill="#F4F4F4" width="6.031" height="1.696"/>
	
		<rect x="287.317" y="426.358" transform="matrix(0.5707 -0.8211 0.8211 0.5707 -228.0621 420.5172)" fill="#F4F4F4" width="1.696" height="4.052"/>
	
		<rect x="297.768" y="436.384" transform="matrix(-0.8211 -0.5707 0.5707 -0.8211 298.227 967.9263)" fill="#F4F4F4" width="6.031" height="1.696"/>
	
		<rect x="312.718" y="446.262" transform="matrix(-0.8211 -0.5707 0.5707 -0.8211 318.4436 994.0171)" fill="#F4F4F4" width="4.523" height="1.696"/>
	
		<rect x="326.407" y="455.727" transform="matrix(-0.8211 -0.5707 0.5707 -0.8211 337.9703 1019.0667)" fill="#F4F4F4" width="4.523" height="1.696"/>
	
		<rect x="339.964" y="465.722" transform="matrix(0.8211 0.5707 -0.5707 0.8211 327.6296 -112.297)" fill="#F4F4F4" width="6.031" height="1.696"/>
	
		<rect x="225.722" y="376.923" transform="matrix(0.8211 0.5707 -0.5707 0.8211 256.743 -62.76)" fill="#F4F4F4" width="5.56" height="2.638"/>
	
		<rect x="239.355" y="386.13" transform="matrix(-0.8211 -0.5707 0.5707 -0.8211 219.3185 843.6305)" fill="#F4F4F4" width="4.994" height="2.638"/>
	
		<rect x="252.869" y="395.87" transform="matrix(-0.8211 -0.5707 0.5707 -0.8211 239.3149 869.3759)" fill="#F4F4F4" width="6.031" height="2.638"/>
	
		<rect x="267.27" y="405.933" transform="matrix(-0.8211 -0.5707 0.5707 -0.8211 259.7966 895.9223)" fill="#F4F4F4" width="6.031" height="2.638"/>
	
		<rect x="280.763" y="414.333" transform="matrix(-0.8211 -0.5707 0.5707 -0.8211 277.2591 918.194)" fill="#F4F4F4" width="3.487" height="2.638"/>
	
		<rect x="293.369" y="423.714" transform="matrix(-0.8211 -0.5707 0.5707 -0.8211 296.2343 942.9028)" fill="#F4F4F4" width="4.994" height="2.638"/>
	
		<rect x="306.804" y="433.4" transform="matrix(-0.8211 -0.5707 0.5707 -0.8211 316.1176 968.5068)" fill="#F4F4F4" width="6.031" height="2.638"/>
	
		<rect x="322.137" y="441.198" transform="matrix(-0.5707 0.8211 -0.8211 -0.5707 872.8222 432.135)" fill="#F4F4F4" width="2.638" height="6.031"/>
	
		<rect x="335.766" y="450.656" transform="matrix(-0.5707 0.8211 -0.8211 -0.5707 901.9958 435.7995)" fill="#F4F4F4" width="2.638" height="6.031"/>
	
		<rect x="349.194" y="461.989" transform="matrix(0.8211 0.5707 -0.5707 0.8211 327.1913 -117.4223)" fill="#F4F4F4" width="3.487" height="2.638"/>
	<path fill="#F4F4F4" d="M361.085,471.154c1.037,0,2.073-0.094,3.11-0.188l-2.073-1.414L361.085,471.154z"/>
	
		<rect x="223.596" y="365.135" transform="matrix(-0.8211 -0.5707 0.5707 -0.8211 201.5278 796.8179)" fill="#F4F4F4" width="4.052" height="3.392"/>
	
		<rect x="235.403" y="373.994" transform="matrix(-0.8211 -0.5707 0.5707 -0.8211 219.7768 820.2553)" fill="#F4F4F4" width="6.031" height="3.392"/>
	
		<rect x="251.368" y="383.064" transform="matrix(0.5707 -0.8211 0.8211 0.5707 -208.1982 373.4329)" fill="#F4F4F4" width="3.392" height="5.56"/>
	
		<rect x="263.966" y="393.586" transform="matrix(-0.8211 -0.5707 0.5707 -0.8211 259.6671 871.9409)" fill="#F4F4F4" width="4.994" height="3.392"/>
	
		<rect x="277.493" y="403.243" transform="matrix(-0.8211 -0.5707 0.5707 -0.8211 279.7358 897.5435)" fill="#F4F4F4" width="6.031" height="3.392"/>
	
		<rect x="292.175" y="412.455" transform="matrix(-0.8211 -0.5707 0.5707 -0.8211 298.47 921.8387)" fill="#F4F4F4" width="3.015" height="3.392"/>
	
		<rect x="303.803" y="421.509" transform="matrix(-0.8211 -0.5707 0.5707 -0.8211 317.2253 945.8248)" fill="#F4F4F4" width="6.031" height="3.392"/>
	
		<rect x="317.085" y="430.632" transform="matrix(-0.8211 -0.5707 0.5707 -0.8211 335.7776 969.8862)" fill="#F4F4F4" width="5.56" height="3.392"/>
	
		<rect x="331.56" y="440.749" transform="matrix(-0.8211 -0.5707 0.5707 -0.8211 356.793 996.7062)" fill="#F4F4F4" width="6.031" height="3.392"/>
	
		<rect x="346.073" y="450.291" transform="matrix(-0.8211 -0.5707 0.5707 -0.8211 375.975 1021.8007)" fill="#F4F4F4" width="4.052" height="3.392"/>
	
		<rect x="358.825" y="459.124" transform="matrix(-0.8211 -0.5707 0.5707 -0.8211 394.1583 1045.1646)" fill="#F4F4F4" width="4.052" height="3.392"/>
	<path fill="#F4F4F4" d="M370.602,469.74l0.848,0.565c1.602-0.283,3.11-0.565,4.712-0.942l-3.581-2.544L370.602,469.74z"/>
	<path fill="#F4F4F4" d="M292.858,256.108L292.858,256.108L292.858,256.108L292.858,256.108z"/>
	
		<rect x="302.863" y="262.296" transform="matrix(0.8211 0.5707 -0.5707 0.8211 204.6232 -126.6463)" fill="#F4F4F4" width="3.015" height="1.696"/>
	
		<rect x="314.63" y="271.561" transform="matrix(0.8211 0.5707 -0.5707 0.8211 212.2856 -132.5657)" fill="#F4F4F4" width="6.031" height="1.696"/>
	
		<rect x="329.074" y="281.544" transform="matrix(0.8211 0.5707 -0.5707 0.8211 220.5664 -139.0237)" fill="#F4F4F4" width="6.031" height="1.696"/>
	
		<rect x="342.228" y="290.578" transform="matrix(0.8211 0.5707 -0.5707 0.8211 228.0329 -144.7812)" fill="#F4F4F4" width="5.56" height="1.696"/>
	
		<rect x="356.753" y="300.62" transform="matrix(0.8211 0.5707 -0.5707 0.8211 236.3623 -151.2743)" fill="#F4F4F4" width="5.56" height="1.696"/>
	
		<rect x="370.406" y="309.708" transform="matrix(0.8211 0.5707 -0.5707 0.8211 243.8563 -157.0111)" fill="#F4F4F4" width="4.052" height="1.696"/>
	
		<rect x="383.244" y="318.492" transform="matrix(0.8211 0.5707 -0.5707 0.8211 251.1659 -162.7669)" fill="#F4F4F4" width="4.052" height="1.696"/>
	
		<rect x="395.847" y="328.035" transform="matrix(0.8211 0.5707 -0.5707 0.8211 259.0435 -168.8174)" fill="#F4F4F4" width="6.031" height="1.696"/>
	
		<rect x="410.687" y="338.079" transform="matrix(0.8211 0.5707 -0.5707 0.8211 267.3877 -175.3565)" fill="#F4F4F4" width="5.56" height="1.696"/>
	
		<rect x="423.469" y="347.251" transform="matrix(0.8211 0.5707 -0.5707 0.8211 274.951 -181.1453)" fill="#F4F4F4" width="6.031" height="1.696"/>
	
		<rect x="438.058" y="356.621" transform="matrix(-0.8211 -0.5707 0.5707 -0.8211 597.436 902.1686)" fill="#F4F4F4" width="4.052" height="1.696"/>
	
		<rect x="449.848" y="365.593" transform="matrix(0.8211 0.5707 -0.5707 0.8211 290.1374 -192.9199)" fill="#F4F4F4" width="6.031" height="1.696"/>
	<path fill="#F4F4F4" d="M304.449,253.469c-0.942,0.188-1.979,0.377-2.921,0.565l1.79,1.225L304.449,253.469z"/>
	
		<rect x="313.45" y="259.528" transform="matrix(-0.8212 -0.5707 0.5707 -0.8212 424.5176 655.4764)" fill="#F4F4F4" width="3.016" height="3.393"/>
	
		<rect x="326.669" y="267.708" transform="matrix(0.5707 -0.8211 0.8211 0.5707 -81.1505 385.7463)" fill="#F4F4F4" width="3.392" height="5.56"/>
	
		<rect x="340.563" y="277.119" transform="matrix(0.5707 -0.8211 0.8211 0.5707 -83.1067 401.2964)" fill="#F4F4F4" width="3.392" height="6.031"/>
	
		<rect x="352.796" y="287.948" transform="matrix(0.8211 0.5707 -0.5707 0.8211 228.9481 -151.2654)" fill="#F4F4F4" width="6.031" height="3.392"/>
	
		<rect x="366.447" y="297.395" transform="matrix(0.8211 0.5707 -0.5707 0.8211 236.7819 -157.3669)" fill="#F4F4F4" width="6.031" height="3.392"/>
	
		<rect x="380.714" y="306.334" transform="matrix(0.8211 0.5707 -0.5707 0.8211 244.2078 -163.1847)" fill="#F4F4F4" width="3.487" height="3.392"/>
	
		<rect x="394.528" y="314.646" transform="matrix(0.5707 -0.8211 0.8211 0.5707 -90.7566 461.7187)" fill="#F4F4F4" width="3.392" height="6.031"/>
	
		<rect x="406.808" y="325.458" transform="matrix(0.8211 0.5707 -0.5707 0.8211 260.0172 -175.3825)" fill="#F4F4F4" width="6.031" height="3.392"/>
	
		<rect x="421.754" y="333.56" transform="matrix(0.5707 -0.8211 0.8211 0.5707 -94.6003 492.194)" fill="#F4F4F4" width="3.392" height="6.031"/>
	
		<rect x="435.706" y="343.782" transform="matrix(0.5707 -0.8211 0.8211 0.5707 -96.5786 507.8159)" fill="#F4F4F4" width="3.392" height="4.994"/>
	
		<rect x="448.941" y="353.982" transform="matrix(-0.8211 -0.5707 0.5707 -0.8211 618.2783 905.1178)" fill="#F4F4F4" width="4.052" height="3.392"/>
	<path fill="#F4F4F4" d="M463.142,362.123l-1.979,2.733l2.544,1.696c0.189-1.225,0.377-2.544,0.471-3.864L463.142,362.123z"/>
	
		<rect x="320.05" y="256.151" transform="matrix(-0.8211 -0.5707 0.5707 -0.8211 441.4015 653.2709)" fill="#F4F4F4" width="6.031" height="2.638"/>
	
		<rect x="334.609" y="265.882" transform="matrix(0.8211 0.5707 -0.5707 0.8211 212.7939 -144.6042)" fill="#F4F4F4" width="4.994" height="2.638"/>
	
		<rect x="348.731" y="275.537" transform="matrix(0.8211 0.5707 -0.5707 0.8211 220.7878 -150.8022)" fill="#F4F4F4" width="4.523" height="2.638"/>
	
		<rect x="362.171" y="285.522" transform="matrix(0.8211 0.5707 -0.5707 0.8211 229.0253 -157.1172)" fill="#F4F4F4" width="6.031" height="2.638"/>
	
		<rect x="376.631" y="293.582" transform="matrix(0.5707 -0.8212 0.8212 0.5707 -80.4838 437.2726)" fill="#F4F4F4" width="2.639" height="4.052"/>
	
		<rect x="387.644" y="303.213" transform="matrix(0.8211 0.5707 -0.5707 0.8211 243.6781 -168.4915)" fill="#F4F4F4" width="6.031" height="2.638"/>
	
		<rect x="402.561" y="313.307" transform="matrix(0.8211 0.5707 -0.5707 0.8211 252.0652 -175.0651)" fill="#F4F4F4" width="5.56" height="2.638"/>
	
		<rect x="416.266" y="322.737" transform="matrix(0.8211 0.5707 -0.5707 0.8211 259.8475 -181.0389)" fill="#F4F4F4" width="4.994" height="2.638"/>
	
		<rect x="429.755" y="332.424" transform="matrix(0.8211 0.5707 -0.5707 0.8211 267.8819 -187.3006)" fill="#F4F4F4" width="6.031" height="2.638"/>
	
		<rect x="444.189" y="340.572" transform="matrix(-0.5707 0.8211 -0.8211 -0.5707 981.0926 172.3031)" fill="#F4F4F4" width="2.638" height="4.052"/>
	
		<rect x="456.52" y="350.898" transform="matrix(0.8211 0.5707 -0.5707 0.8211 283.1704 -199.1372)" fill="#F4F4F4" width="5.56" height="2.638"/>
	<path fill="#F4F4F4" d="M336.866,255.165l-2.262-1.508c-0.848-0.188-1.696-0.283-2.544-0.471l-1.319,1.885l4.146,2.827   L336.866,255.165z"/>
	
		<rect x="344.799" y="263.148" transform="matrix(-0.8211 -0.5707 0.5707 -0.8211 482.2657 680.8253)" fill="#F4F4F4" width="6.031" height="3.392"/>
	
		<rect x="359.201" y="273.211" transform="matrix(-0.8211 -0.5707 0.5707 -0.8211 502.7502 707.3717)" fill="#F4F4F4" width="6.031" height="3.392"/>
	
		<rect x="372.764" y="281.668" transform="matrix(-0.8211 -0.5707 0.5707 -0.8211 520.3074 729.7861)" fill="#F4F4F4" width="3.487" height="3.392"/>
	
		<rect x="387.15" y="291.52" transform="matrix(-0.8211 -0.5707 0.5707 -0.8211 540.4523 755.8042)" fill="#F4F4F4" width="3.015" height="3.392"/>
	
		<rect x="398.806" y="300.735" transform="matrix(-0.8211 -0.5707 0.5707 -0.8211 559.1665 780.0995)" fill="#F4F4F4" width="6.031" height="3.392"/>
	
		<rect x="412.442" y="310.139" transform="matrix(-0.8211 -0.5707 0.5707 -0.8211 578.6333 805.0082)" fill="#F4F4F4" width="6.031" height="3.392"/>
	
		<rect x="426.054" y="319.634" transform="matrix(-0.8211 -0.5707 0.5707 -0.8211 598.0033 830.0676)" fill="#F4F4F4" width="6.031" height="3.392"/>
	
		<rect x="441.169" y="329.179" transform="matrix(-0.8211 -0.5707 0.5707 -0.8211 617.7656 855.3514)" fill="#F4F4F4" width="3.487" height="3.392"/>
	
		<rect x="454.684" y="338.841" transform="matrix(-0.8211 -0.5707 0.5707 -0.8211 637.3779 880.8225)" fill="#F4F4F4" width="4.052" height="3.392"/>
	<polygon fill="#F4F4F4" points="358.352,262.233 355.242,260.16 353.357,258.84 353.169,259.217 352.132,260.537 357.032,264.023     "/>
	
		<rect x="365.867" y="269.717" transform="matrix(-0.8211 -0.5707 0.5707 -0.8211 517.2332 703.6958)" fill="#F4F4F4" width="6.031" height="2.167"/>
	<polygon fill="#F4F4F4" points="384.361,280.986 384.643,280.609 381.439,278.347 380.497,277.688 379.366,279.384    383.513,282.305  "/>
	<path fill="#F4F4F4" d="M393.407,289.184L393.407,289.184l0.377,0.377C393.69,289.373,393.502,289.279,393.407,289.184z"/>
	<path fill="#F4F4F4" d="M450.42,328.481c-0.565-0.283-1.131-0.565-1.696-0.942l1.508,1.037L450.42,328.481z"/>
	<path fill="#F4F4F4" d="M462.482,336.773c-0.094-0.189-0.283-0.377-0.377-0.565l-0.377,0.565l1.131,0.848   C462.859,337.339,462.671,337.056,462.482,336.773z"/>
	<path fill="#F4F4F4" d="M245.363,295.404l-1.79-1.225c-0.377,0.66-0.848,1.131-1.131,1.79l1.79,1.225L245.363,295.404z"/>
	
		<rect x="254.319" y="303.423" transform="matrix(0.8211 0.5707 -0.5707 0.8211 219.6819 -91.9732)" fill="#F4F4F4" width="4.523" height="2.167"/>
	
		<rect x="267.986" y="312.365" transform="matrix(0.8211 0.5707 -0.5707 0.8211 227.0954 -97.7435)" fill="#F4F4F4" width="3.015" height="2.167"/>
	
		<rect x="279.754" y="321.634" transform="matrix(0.8211 0.5707 -0.5707 0.8211 234.7598 -103.6632)" fill="#F4F4F4" width="6.031" height="2.167"/>
	
		<rect x="294.145" y="331.696" transform="matrix(0.8211 0.5707 -0.5707 0.8211 243.0768 -110.0766)" fill="#F4F4F4" width="6.031" height="2.167"/>
	
		<rect x="307.316" y="340.514" transform="matrix(-0.8211 -0.5707 0.5707 -0.8211 369.7681 799.0769)" fill="#F4F4F4" width="5.56" height="2.167"/>
	
		<rect x="321.799" y="350.639" transform="matrix(0.8211 0.5707 -0.5707 0.8211 258.7922 -122.3368)" fill="#F4F4F4" width="5.56" height="2.167"/>
	
		<rect x="336.498" y="358.715" transform="matrix(0.5707 -0.8211 0.8211 0.5707 -151.3042 432.0572)" fill="#F4F4F4" width="2.167" height="4.052"/>
	
		<rect x="348.368" y="368.563" transform="matrix(0.8211 0.5707 -0.5707 0.8211 273.639 -133.8646)" fill="#F4F4F4" width="4.052" height="2.167"/>
	
		<rect x="360.83" y="377.97" transform="matrix(-0.8211 -0.5707 0.5707 -0.8211 446.2761 897.9656)" fill="#F4F4F4" width="6.031" height="2.167"/>
	
		<rect x="375.722" y="388.165" transform="matrix(-0.8211 -0.5707 0.5707 -0.8211 467.1495 924.8976)" fill="#F4F4F4" width="5.56" height="2.167"/>
	
		<rect x="388.427" y="397.153" transform="matrix(-0.8211 -0.5707 0.5707 -0.8211 485.5859 948.6516)" fill="#F4F4F4" width="6.031" height="2.167"/>
	
		<rect x="403.085" y="406.588" transform="matrix(-0.8211 -0.5707 0.5707 -0.8211 505.0946 973.6344)" fill="#F4F4F4" width="4.052" height="2.167"/>
	
		<rect x="414.842" y="415.555" transform="matrix(-0.8211 -0.5707 0.5707 -0.8211 523.1894 997.2396)" fill="#F4F4F4" width="6.031" height="2.167"/>
	
		<rect x="250.41" y="290.663" transform="matrix(-0.8211 -0.5707 0.5707 -0.8211 293.7218 676.7666)" fill="#F4F4F4" width="4.994" height="3.392"/>
	
		<rect x="264" y="300.505" transform="matrix(0.8211 0.5707 -0.5707 0.8211 220.2327 -98.3411)" fill="#F4F4F4" width="6.031" height="3.392"/>
	
		<rect x="278.74" y="309.555" transform="matrix(0.8211 0.5707 -0.5707 0.8211 227.7649 -104.2746)" fill="#F4F4F4" width="3.015" height="3.392"/>
	
		<rect x="290.784" y="318.856" transform="matrix(0.8211 0.5707 -0.5707 0.8211 235.4549 -110.2106)" fill="#F4F4F4" width="5.56" height="3.392"/>
	
		<rect x="304.46" y="328.506" transform="matrix(0.8211 0.5707 -0.5707 0.8211 243.4507 -116.4243)" fill="#F4F4F4" width="6.031" height="3.392"/>
	
		<rect x="317.951" y="337.902" transform="matrix(-0.8211 -0.5707 0.5707 -0.8211 390.7068 801.6391)" fill="#F4F4F4" width="6.031" height="3.392"/>
	
		<rect x="331.584" y="347.388" transform="matrix(-0.8211 -0.5707 0.5707 -0.8211 410.1195 826.6957)" fill="#F4F4F4" width="6.031" height="3.392"/>
	
		<rect x="345.853" y="356.442" transform="matrix(-0.8211 -0.5707 0.5707 -0.8211 428.6228 850.6027)" fill="#F4F4F4" width="3.487" height="3.392"/>
	
		<rect x="358.337" y="366.077" transform="matrix(-0.8211 -0.5707 0.5707 -0.8211 448.175 876.0005)" fill="#F4F4F4" width="6.031" height="3.392"/>
	
		<rect x="371.964" y="375.486" transform="matrix(-0.8211 -0.5707 0.5707 -0.8211 467.6215 900.9121)" fill="#F4F4F4" width="6.031" height="3.392"/>
	
		<rect x="385.598" y="384.972" transform="matrix(-0.8211 -0.5707 0.5707 -0.8211 487.0362 925.9691)" fill="#F4F4F4" width="6.031" height="3.392"/>
	
		<rect x="400.151" y="394.711" transform="matrix(-0.8211 -0.5707 0.5707 -0.8211 507.0379 951.715)" fill="#F4F4F4" width="4.994" height="3.392"/>
	
		<rect x="414.138" y="404.131" transform="matrix(-0.8211 -0.5707 0.5707 -0.8211 526.2761 976.5829)" fill="#F4F4F4" width="4.052" height="3.392"/>
	
		<rect x="426.986" y="413.012" transform="matrix(0.8211 0.5707 -0.5707 0.8211 313.4182 -170.674)" fill="#F4F4F4" width="4.052" height="3.392"/>
	
		<rect x="258.908" y="288.437" transform="matrix(0.8211 0.5707 -0.5707 0.8211 211.9505 -97.7453)" fill="#F4F4F4" width="6.031" height="1.696"/>
	
		<rect x="274.661" y="296.689" transform="matrix(-0.5707 0.8211 -0.8211 -0.5707 678.0366 242.9682)" fill="#F4F4F4" width="1.696" height="4.052"/>
	
		<rect x="285.297" y="306.732" transform="matrix(0.8211 0.5707 -0.5707 0.8211 227.1123 -109.534)" fill="#F4F4F4" width="6.031" height="1.696"/>
	
		<rect x="299.815" y="316.426" transform="matrix(-0.8211 -0.5707 0.5707 -0.8211 369.4748 750.3382)" fill="#F4F4F4" width="4.994" height="1.696"/>
	
		<rect x="315.195" y="324.629" transform="matrix(-0.5707 0.8211 -0.8211 -0.5707 764.8404 253.9398)" fill="#F4F4F4" width="1.696" height="4.523"/>
	
		<rect x="327.299" y="335.942" transform="matrix(-0.8211 -0.5707 0.5707 -0.8211 409.3336 801.8604)" fill="#F4F4F4" width="6.031" height="1.696"/>
	
		<rect x="341.128" y="344.801" transform="matrix(0.8211 0.5707 -0.5707 0.8211 258.6479 -134.0242)" fill="#F4F4F4" width="4.052" height="1.696"/>
	
		<rect x="352.98" y="353.775" transform="matrix(0.8211 0.5707 -0.5707 0.8211 266.0669 -139.7484)" fill="#F4F4F4" width="6.031" height="1.696"/>
	
		<rect x="367.678" y="363.903" transform="matrix(-0.8211 -0.5707 0.5707 -0.8211 466.4816 875.6923)" fill="#F4F4F4" width="5.56" height="1.696"/>
	
		<rect x="381.398" y="373.144" transform="matrix(-0.8211 -0.5707 0.5707 -0.8211 485.6793 900.1904)" fill="#F4F4F4" width="4.994" height="1.696"/>
	
		<rect x="394.949" y="382.931" transform="matrix(-0.8211 -0.5707 0.5707 -0.8211 505.7154 926.0437)" fill="#F4F4F4" width="6.031" height="1.696"/>
	
		<rect x="409.803" y="390.716" transform="matrix(-0.5707 0.8211 -0.8211 -0.5707 967.5174 279.689)" fill="#F4F4F4" width="1.696" height="4.052"/>
	
		<rect x="421.735" y="401.413" transform="matrix(-0.8211 -0.5707 0.5707 -0.8211 543.5205 974.855)" fill="#F4F4F4" width="5.56" height="1.696"/>
	
		<rect x="434.594" y="410.307" transform="matrix(0.8211 0.5707 -0.5707 0.8211 312.8864 -176.0817)" fill="#F4F4F4" width="5.56" height="1.696"/>
	<path fill="#F4F4F4" d="M261.572,279.195l-3.298-2.356c-0.471,0.377-0.848,0.848-1.225,1.131l3.581,2.544L261.572,279.195z"/>
	
		<rect x="270.286" y="286.413" transform="matrix(-0.8211 -0.5707 0.5707 -0.8211 331.0269 678.2626)" fill="#F4F4F4" width="3.015" height="1.696"/>
	
		<rect x="283.446" y="296.097" transform="matrix(0.8211 0.5707 -0.5707 0.8211 220.5764 -109.9491)" fill="#F4F4F4" width="4.523" height="1.696"/>
	
		<rect x="297.801" y="303.35" transform="matrix(-0.5707 0.8212 -0.8212 -0.5707 720.2349 235.1469)" fill="#F4F4F4" width="1.696" height="4.995"/>
	
		<rect x="309.643" y="314.806" transform="matrix(0.8211 0.5707 -0.5707 0.8211 236.0745 -121.9845)" fill="#F4F4F4" width="6.031" height="1.696"/>
	
		<rect x="324.164" y="324.845" transform="matrix(0.8211 0.5707 -0.5707 0.8211 244.4016 -128.4769)" fill="#F4F4F4" width="6.031" height="1.696"/>
	
		<rect x="337.542" y="333.319" transform="matrix(0.8211 0.5707 -0.5707 0.8211 251.4032 -133.8703)" fill="#F4F4F4" width="3.487" height="1.696"/>
	
		<rect x="351.865" y="343.168" transform="matrix(0.8211 0.5707 -0.5707 0.8211 259.5436 -140.1483)" fill="#F4F4F4" width="3.015" height="1.696"/>
	
		<rect x="363.535" y="352.264" transform="matrix(-0.8211 -0.5707 0.5707 -0.8211 466.0092 852.267)" fill="#F4F4F4" width="6.031" height="1.696"/>
	
		<rect x="377.209" y="361.834" transform="matrix(0.8211 0.5707 -0.5707 0.8211 274.9995 -152.1349)" fill="#F4F4F4" width="6.031" height="1.696"/>
	
		<rect x="390.843" y="371.222" transform="matrix(-0.8211 -0.5707 0.5707 -0.8211 504.9207 902.3765)" fill="#F4F4F4" width="6.031" height="1.696"/>
	
		<rect x="405.891" y="380.851" transform="matrix(-0.8211 -0.5707 0.5707 -0.8211 524.5124 927.775)" fill="#F4F4F4" width="3.487" height="1.696"/>
	
		<rect x="419.395" y="390.377" transform="matrix(-0.8211 -0.5707 0.5707 -0.8211 544.1836 952.9918)" fill="#F4F4F4" width="4.052" height="1.696"/>
	
		<rect x="431.233" y="399.316" transform="matrix(-0.8211 -0.5707 0.5707 -0.8211 562.4426 976.5925)" fill="#F4F4F4" width="6.031" height="1.696"/>
	<path fill="#F4F4F4" d="M445.708,409.146l2.167,1.414c0.283-0.471,0.66-0.942,0.942-1.414l-2.073-1.414L445.708,409.146z"/>
	<polygon fill="#F4F4F4" points="268.922,273.824 264.87,270.997 264.776,270.997 264.587,271.185 262.797,273.824 266.943,276.651     "/>
	
		<rect x="277.119" y="281.304" transform="matrix(0.8211 0.5707 -0.5707 0.8211 211.4438 -108.6983)" fill="#F4F4F4" width="4.052" height="3.392"/>
	
		<rect x="291.55" y="291.064" transform="matrix(0.8211 0.5707 -0.5707 0.8211 219.5022 -114.8927)" fill="#F4F4F4" width="3.015" height="3.392"/>
	
		<rect x="303.671" y="300.419" transform="matrix(0.8211 0.5707 -0.5707 0.8211 227.2374 -120.8632)" fill="#F4F4F4" width="5.56" height="3.392"/>
	
		<rect x="317.191" y="309.955" transform="matrix(-0.8211 -0.5707 0.5707 -0.8211 405.2725 750.3103)" fill="#F4F4F4" width="6.031" height="3.392"/>
	
		<rect x="330.918" y="319.455" transform="matrix(0.8211 0.5707 -0.5707 0.8211 243.0169 -133.1439)" fill="#F4F4F4" width="6.031" height="3.392"/>
	
		<rect x="344.61" y="328.601" transform="matrix(0.8211 0.5707 -0.5707 0.8211 250.5934 -139.0265)" fill="#F4F4F4" width="4.994" height="3.392"/>
	
		<rect x="358.739" y="337.909" transform="matrix(0.8211 0.5707 -0.5707 0.8211 258.2981 -144.995)" fill="#F4F4F4" width="3.487" height="3.392"/>
	
		<rect x="371.376" y="347.45" transform="matrix(0.8211 0.5707 -0.5707 0.8211 266.2308 -151.2271)" fill="#F4F4F4" width="6.031" height="3.392"/>
	
		<rect x="386.285" y="355.587" transform="matrix(0.5707 -0.8211 0.8211 0.5707 -127.9127 472.5246)" fill="#F4F4F4" width="3.392" height="6.031"/>
	
		<rect x="398.571" y="366.462" transform="matrix(0.8211 0.5707 -0.5707 0.8211 281.9456 -163.3475)" fill="#F4F4F4" width="6.031" height="3.392"/>
	
		<rect x="413.258" y="375.548" transform="matrix(-0.8211 -0.5707 0.5707 -0.8211 540.0427 923.7315)" fill="#F4F4F4" width="3.015" height="3.392"/>
	
		<rect x="427.123" y="385.572" transform="matrix(-0.8211 -0.5707 0.5707 -0.8211 560.5157 950.1959)" fill="#F4F4F4" width="4.052" height="3.392"/>
	
		<rect x="439.892" y="394.45" transform="matrix(0.8211 0.5707 -0.5707 0.8211 305.1327 -181.3598)" fill="#F4F4F4" width="4.052" height="3.392"/>
	
		<rect x="274.284" y="270.934" transform="matrix(-0.8211 -0.5707 0.5707 -0.8211 349.1892 653.9382)" fill="#F4F4F4" width="5.56" height="2.638"/>
	
		<rect x="288.031" y="279.863" transform="matrix(-0.8211 -0.5707 0.5707 -0.8211 367.7553 677.6151)" fill="#F4F4F4" width="4.052" height="2.638"/>
	
		<rect x="300.787" y="289.079" transform="matrix(0.8211 0.5707 -0.5707 0.8211 219.9836 -121.1517)" fill="#F4F4F4" width="4.994" height="2.638"/>
	
		<rect x="313.464" y="298.353" transform="matrix(0.8211 0.5707 -0.5707 0.8211 227.6366 -127.0239)" fill="#F4F4F4" width="6.031" height="2.638"/>
	
		<rect x="328.302" y="308.393" transform="matrix(0.8211 0.5707 -0.5707 0.8211 235.9786 -133.5625)" fill="#F4F4F4" width="5.56" height="2.638"/>
	
		<rect x="341.087" y="317.568" transform="matrix(0.8211 0.5707 -0.5707 0.8211 243.5438 -139.3524)" fill="#F4F4F4" width="6.031" height="2.638"/>
	
		<rect x="355.69" y="326.993" transform="matrix(0.8211 0.5707 -0.5707 0.8211 251.358 -145.4363)" fill="#F4F4F4" width="4.052" height="2.638"/>
	
		<rect x="367.477" y="335.866" transform="matrix(0.8211 0.5707 -0.5707 0.8211 258.7072 -151.1409)" fill="#F4F4F4" width="6.031" height="2.638"/>
	
		<rect x="382.474" y="345.762" transform="matrix(0.8211 0.5707 -0.5707 0.8211 266.9025 -157.5001)" fill="#F4F4F4" width="4.523" height="2.638"/>
	
		<rect x="396.049" y="355.156" transform="matrix(0.8211 0.5707 -0.5707 0.8211 274.692 -163.5675)" fill="#F4F4F4" width="4.523" height="2.638"/>
	
		<rect x="409.466" y="364.999" transform="matrix(-0.8211 -0.5707 0.5707 -0.8211 542.118 902.5305)" fill="#F4F4F4" width="6.031" height="2.638"/>
	
		<rect x="423.984" y="373.319" transform="matrix(0.5707 -0.8212 0.8212 0.5707 -125.6319 510.3906)" fill="#F4F4F4" width="2.639" height="4.052"/>
	
		<rect x="434.956" y="382.764" transform="matrix(-0.8211 -0.5707 0.5707 -0.8211 578.3999 949.4308)" fill="#F4F4F4" width="6.031" height="2.638"/>
	
		<rect x="449.944" y="393.024" transform="matrix(0.8211 0.5707 -0.5707 0.8211 306.0369 -187.8497)" fill="#F4F4F4" width="5.56" height="2.638"/>
	
		<rect x="283.736" y="266.354" transform="matrix(-0.8212 -0.5707 0.5707 -0.8212 366.5081 650.9498)" fill="#F4F4F4" width="3.016" height="3.393"/>
	
		<rect x="295.891" y="275.632" transform="matrix(0.8211 0.5707 -0.5707 0.8211 211.6989 -120.8567)" fill="#F4F4F4" width="5.56" height="3.392"/>
	
		<rect x="309.53" y="284.961" transform="matrix(0.8211 0.5707 -0.5707 0.8211 219.4123 -126.8106)" fill="#F4F4F4" width="4.994" height="3.392"/>
	
		<rect x="322.999" y="294.772" transform="matrix(0.8211 0.5707 -0.5707 0.8211 227.5132 -133.0388)" fill="#F4F4F4" width="6.031" height="3.392"/>
	
		<rect x="337.443" y="304.757" transform="matrix(0.8211 0.5707 -0.5707 0.8211 235.7955 -139.4969)" fill="#F4F4F4" width="6.031" height="3.392"/>
	
		<rect x="350.906" y="313.202" transform="matrix(0.8211 0.5707 -0.5707 0.8211 242.796 -144.9436)" fill="#F4F4F4" width="3.487" height="3.392"/>
	
		<rect x="363.54" y="322.472" transform="matrix(0.8211 0.5707 -0.5707 0.8211 250.4811 -150.9268)" fill="#F4F4F4" width="4.994" height="3.392"/>
	
		<rect x="376.999" y="332.326" transform="matrix(0.8211 0.5707 -0.5707 0.8211 258.6053 -157.1414)" fill="#F4F4F4" width="6.031" height="3.392"/>
	
		<rect x="390.65" y="341.772" transform="matrix(0.8211 0.5707 -0.5707 0.8211 266.4378 -163.2426)" fill="#F4F4F4" width="6.031" height="3.392"/>
	
		<rect x="404.159" y="351" transform="matrix(-0.8211 -0.5707 0.5707 -0.8211 540.2272 874.6942)" fill="#F4F4F4" width="6.031" height="3.392"/>
	
		<rect x="419.31" y="360.779" transform="matrix(0.8211 0.5707 -0.5707 0.8211 282.1844 -175.4741)" fill="#F4F4F4" width="3.487" height="3.392"/>
	
		<rect x="432.343" y="368.436" transform="matrix(0.5707 -0.8211 0.8211 0.5707 -118.6919 515.8605)" fill="#F4F4F4" width="3.392" height="6.031"/>
	
		<rect x="445.891" y="377.927" transform="matrix(-0.5707 0.8211 -0.8211 -0.5707 1015.8442 230.8246)" fill="#F4F4F4" width="3.392" height="6.031"/>
	<path fill="#F4F4F4" d="M285.507,258.746c-0.377,0.188-0.754,0.283-1.037,0.471l0.565,0.377L285.507,258.746z"/>
	
		<rect x="293.631" y="265.564" transform="matrix(-0.8211 -0.5707 0.5707 -0.8211 386.5175 653.4844)" fill="#F4F4F4" width="4.052" height="1.225"/>
	
		<rect x="307.816" y="272.021" transform="matrix(0.5707 -0.8211 0.8211 0.5707 -93.4432 371.3288)" fill="#F4F4F4" width="1.225" height="6.031"/>
	
		<rect x="320.291" y="284.649" transform="matrix(0.8211 0.5707 -0.5707 0.8211 220.5914 -133.3633)" fill="#F4F4F4" width="5.56" height="1.225"/>
	
		<rect x="333.93" y="293.981" transform="matrix(0.8211 0.5707 -0.5707 0.8211 228.3064 -139.3171)" fill="#F4F4F4" width="4.994" height="1.225"/>
	
		<rect x="349.874" y="301.284" transform="matrix(0.5707 -0.8211 0.8211 0.5707 -99.4177 418.4258)" fill="#F4F4F4" width="1.225" height="6.031"/>
	
		<rect x="362.141" y="312.843" transform="matrix(0.8211 0.5707 -0.5707 0.8211 243.9398 -151.4794)" fill="#F4F4F4" width="3.015" height="1.225"/>
	
		<rect x="373.907" y="322.104" transform="matrix(0.8211 0.5707 -0.5707 0.8211 251.5998 -157.3989)" fill="#F4F4F4" width="6.031" height="1.225"/>
	
		<rect x="387.118" y="331.063" transform="matrix(0.8211 0.5707 -0.5707 0.8211 259.0335 -163.2018)" fill="#F4F4F4" width="5.56" height="1.225"/>
	
		<rect x="401.499" y="341.281" transform="matrix(0.8211 0.5707 -0.5707 0.8211 267.4796 -169.716)" fill="#F4F4F4" width="6.031" height="1.225"/>
	
		<rect x="416.015" y="350.727" transform="matrix(0.8211 0.5707 -0.5707 0.8211 275.2899 -175.7468)" fill="#F4F4F4" width="4.052" height="1.225"/>
	
		<rect x="428.869" y="359.585" transform="matrix(0.8211 0.5707 -0.5707 0.8211 282.645 -181.4986)" fill="#F4F4F4" width="4.052" height="1.225"/>
	
		<rect x="441.035" y="368.6" transform="matrix(-0.8211 -0.5707 0.5707 -0.8211 597.5288 925.6849)" fill="#F4F4F4" width="5.56" height="1.225"/>
	<path fill="#F4F4F4" d="M455.603,378.143l4.9,3.392c0.094-0.471,0.283-0.942,0.377-1.319l-4.523-3.11L455.603,378.143z"/>
</g>
<path fill="#484D84" d="M737.651,488.493l-85.378-2.921c-1.602,0.942-3.204,1.885-4.806,2.733l88.864,3.016  C736.897,490.378,737.368,489.435,737.651,488.493z"/>
<path fill="#484D84" d="M738.216,480.012c0-0.094,0-0.094-0.094-0.188l-73.221-2.45c-1.319,0.942-2.733,1.885-3.958,2.733  l77.745,2.639C738.593,481.802,738.404,480.954,738.216,480.012z"/>
<path fill="#484D84" d="M731.242,470.965l-55.128-1.885c-1.225,0.942-2.45,1.885-3.675,2.733l62.29,2.073  C733.693,472.944,732.562,471.907,731.242,470.965z"/>
<path fill="#484D84" d="M706.27,461.542l-19.507-0.66c-1.225,0.942-2.45,1.885-3.581,2.827l35.527,1.225  C715.034,463.52,710.888,462.484,706.27,461.542z"/>
<g>
	<g>
		<path fill="#DCE9FE" d="M462.953,505.078c-1.508,0.942-2.921,1.79-4.241,2.733l89.241,3.016c2.639-0.848,5.277-1.696,7.822-2.639    L462.953,505.078z"/>
		<path fill="#DCE9FE" d="M477.843,496.88c-1.885,0.942-3.675,1.79-5.371,2.733l96.592,3.298c1.979-0.848,3.958-1.79,5.937-2.733    L477.843,496.88z"/>
		<path fill="#DCE9FE" d="M496.124,488.87c-2.262,0.848-4.429,1.79-6.502,2.639l95.838,3.204c1.602-0.848,3.204-1.79,4.806-2.733    L496.124,488.87z"/>
		<path fill="#DCE9FE" d="M518.27,481.048c-2.733,0.848-5.371,1.696-7.916,2.639l88.582,3.016c1.319-0.942,2.733-1.79,4.052-2.733    L518.27,481.048z"/>
		<path fill="#DCE9FE" d="M545.221,473.321c-3.298,0.848-6.502,1.696-9.706,2.544l74.823,2.544c1.131-0.942,2.356-1.885,3.487-2.827    L545.221,473.321z"/>
		<path fill="#DCE9FE" d="M579.617,465.876c-0.848,0.188-1.602,0.283-2.45,0.471c-3.487,0.66-6.879,1.319-10.272,2.073l53.243,1.79    c1.037-0.942,1.979-1.885,3.016-2.827L579.617,465.876z"/>
		<path fill="#DCE9FE" d="M610.244,461.165l18.564,0.66c0.848-0.942,1.791-1.79,2.639-2.733    C624.568,459.563,617.5,460.316,610.244,461.165z"/>
		<path fill="#DCE9FE" d="M451.174,513.371c-1.131,0.942-2.167,1.885-3.11,2.827l41.746,1.414    c8.293-0.565,16.585-1.225,24.878-2.073L451.174,513.371z"/>
		<path fill="none" d="M442.693,541.83l168.87,5.748c3.864-0.848,7.633-1.602,11.402-2.544l-182.346-6.125    C441.185,539.946,441.845,540.888,442.693,541.83z"/>
		<path fill="none" d="M439.017,533.161l203.832,6.879c3.016-0.848,6.031-1.696,8.952-2.639l-212.596-7.162    C439.017,531.182,438.923,532.124,439.017,533.161z"/>
		<path fill="none" d="M458.147,550.971l110.633,3.769c5.466-0.66,10.931-1.414,16.491-2.356l-134.474-4.523    C452.964,548.992,455.414,550.029,458.147,550.971z"/>
		<path fill="none" d="M441.279,524.585l226.543,7.633c2.544-0.848,4.995-1.791,7.35-2.639l-232.103-7.822    C442.504,522.701,441.845,523.643,441.279,524.585z"/>
		<g>
			<path fill="#428DFC" d="M638.609,473.509l-2.544,2.544l4.429,4.429l4.429-4.429l-3.581-3.581     C640.493,472.756,639.551,473.133,638.609,473.509z"/>
			
				<rect x="612.578" y="497.68" transform="matrix(-0.7071 -0.7071 0.7071 -0.7071 696.98 1290.3717)" fill="#428DFC" width="6.314" height="6.314"/>
			
				<rect x="587.757" y="522.613" transform="matrix(-0.7071 -0.7071 0.7071 -0.7071 636.9773 1315.3843)" fill="#428DFC" width="6.314" height="6.314"/>
			
				<rect x="562.905" y="547.32" transform="matrix(-0.7071 -0.7071 0.7071 -0.7071 577.0831 1339.989)" fill="#428DFC" width="6.314" height="6.314"/>
			
				<rect x="686.342" y="472.204" transform="matrix(-0.7071 -0.7071 0.7071 -0.7071 840.9178 1299.0425)" fill="#428DFC" width="6.314" height="6.314"/>
			
				<rect x="661.62" y="497.004" transform="matrix(-0.7071 -0.7071 0.7071 -0.7071 781.1774 1323.8969)" fill="#428DFC" width="6.314" height="6.314"/>
			
				<rect x="636.67" y="521.844" transform="matrix(-0.7071 -0.7071 0.7071 -0.7071 721.0207 1348.6588)" fill="#428DFC" width="6.314" height="6.314"/>
			
				<rect x="611.942" y="546.645" transform="matrix(-0.7071 -0.7071 0.7071 -0.7071 661.2713 1373.5117)" fill="#428DFC" width="6.314" height="6.314"/>
			
				<rect x="586.988" y="571.485" transform="matrix(-0.7071 -0.7071 0.7071 -0.7071 601.1066 1398.2705)" fill="#428DFC" width="6.314" height="6.314"/>
			
				<rect x="735.389" y="471.532" transform="matrix(0.7071 0.7071 -0.7071 0.7071 551.9708 -383.1974)" fill="#428DFC" width="6.314" height="6.314"/>
			
				<rect x="710.59" y="496.303" transform="matrix(-0.7071 -0.7071 0.7071 -0.7071 865.2709 1357.3269)" fill="#428DFC" width="6.314" height="6.314"/>
			
				<rect x="685.707" y="521.169" transform="matrix(-0.7071 -0.7071 0.7071 -0.7071 805.2104 1382.1804)" fill="#428DFC" width="6.314" height="6.314"/>
			
				<rect x="660.88" y="546.104" transform="matrix(-0.7071 -0.7071 0.7071 -0.7071 745.1967 1407.1919)" fill="#428DFC" width="6.314" height="6.314"/>
			<path fill="#428DFC" d="M634.745,573.965l1.602,1.602c2.356-0.471,4.806-0.942,7.256-1.508l0.094-0.094l-4.429-4.429     L634.745,573.965z"/>
			
				<rect x="734.744" y="520.495" transform="matrix(-0.7071 -0.7071 0.7071 -0.7071 889.3978 1415.7053)" fill="#428DFC" width="6.314" height="6.314"/>
			<path fill="#428DFC" d="M708.532,548.521l2.167,2.167c1.979-0.942,3.958-1.979,5.937-3.016l-3.581-3.581L708.532,548.521z"/>
		</g>
		<path fill="#B8D2FD" d="M569.157,508.659l-13.382-0.471c-2.639,0.942-5.183,1.79-7.822,2.639l5.183,0.189    C558.414,510.261,563.786,509.413,569.157,508.659z"/>
		<path fill="#B8D2FD" d="M609.867,501.403l-34.961-1.225c-1.979,0.942-3.958,1.79-5.937,2.733l28.365,0.942    C601.951,503.005,606.097,502.251,609.867,501.403z"/>
		<path fill="#B8D2FD" d="M636.159,493.676l-45.987-1.602c-1.602,0.942-3.204,1.885-4.806,2.733l43.537,1.508    C631.447,495.466,633.897,494.618,636.159,493.676z"/>
		<path fill="#B8D2FD" d="M652.367,485.572l-49.38-1.696c-1.319,0.942-2.639,1.885-4.052,2.733l48.626,1.602    C649.163,487.456,650.765,486.514,652.367,485.572z"/>
		<path fill="#B8D2FD" d="M664.901,477.373l-51.076-1.696c-1.131,0.942-2.262,1.885-3.487,2.827l50.605,1.696    C662.168,479.258,663.487,478.315,664.901,477.373z"/>
		<path fill="#B8D2FD" d="M676.115,469.08l-52.96-1.79c-1.037,0.942-1.979,1.885-3.016,2.827l52.207,1.79    C673.57,470.965,674.795,470.117,676.115,469.08z"/>
		<path fill="#B8D2FD" d="M686.763,460.882l-54.939-1.885c-0.188,0-0.283,0-0.471,0c-0.848,0.942-1.79,1.885-2.639,2.733    l54.468,1.885C684.407,462.767,685.538,461.824,686.763,460.882z"/>
		<path fill="#484D84" d="M458.147,550.971l110.633,3.769c5.466-0.66,10.931-1.414,16.491-2.356l-134.474-4.523    C452.964,548.992,455.414,550.029,458.147,550.971z"/>
		<path fill="#484D84" d="M442.693,541.83l168.87,5.748c3.864-0.848,7.633-1.602,11.402-2.544l-182.346-6.125    C441.185,539.946,441.845,540.888,442.693,541.83z"/>
		<path fill="#484D84" d="M439.017,533.161l203.832,6.879c3.016-0.848,6.031-1.696,8.952-2.639l-212.596-7.162    C439.017,531.182,438.923,532.124,439.017,533.161z"/>
		<path fill="#484D84" d="M441.279,524.585l226.543,7.633c2.544-0.848,4.995-1.791,7.35-2.639l-232.103-7.822    C442.504,522.701,441.845,523.643,441.279,524.585z"/>
		<path fill="#484D84" d="M694.679,521.57l-179.896-6.125c-8.293,0.848-16.586,1.508-24.878,2.073l198.649,6.691    C690.627,523.454,692.7,522.512,694.679,521.57z"/>
		<path fill="#484D84" d="M710.699,513.465l-141.542-4.806c-5.371,0.848-10.743,1.602-16.114,2.356l152.662,5.183    C707.495,515.256,709.097,514.314,710.699,513.465z"/>
		<path fill="#484D84" d="M723.232,505.173l-113.366-3.864c-3.864,0.848-8.01,1.696-12.439,2.45l121.941,4.146    C720.782,507.057,722.102,506.115,723.232,505.173z"/>
		<path fill="#484D84" d="M732.373,496.88l-96.215-3.298c-2.356,0.942-4.712,1.79-7.256,2.639l100.832,3.393    C730.677,498.765,731.619,497.822,732.373,496.88z"/>
	</g>
	<g>
		<g>
			<path fill="#EFEFF0" d="M436.662,504.607c-9.329,0-16.868-7.539-16.868-16.868s7.539-16.868,16.868-16.868     s16.868,7.539,16.868,16.868S445.991,504.607,436.662,504.607z M436.662,472.944c-8.199,0-14.795,6.691-14.795,14.795     s6.691,14.795,14.795,14.795c8.199,0,14.795-6.691,14.795-14.795S444.86,472.944,436.662,472.944z"/>
		</g>
		<g>
			<path fill="#EFEFF0" d="M436.662,514.596c-14.795,0-26.857-12.062-26.857-26.857c0-14.795,12.062-26.857,26.857-26.857     c14.795,0,26.857,12.062,26.857,26.857C463.519,502.534,451.457,514.596,436.662,514.596z M436.662,462.955     c-13.664,0-24.784,11.12-24.784,24.784s11.12,24.784,24.784,24.784s24.784-11.12,24.784-24.784     C461.446,474.075,450.326,462.955,436.662,462.955z"/>
		</g>
		<g>
			<path fill="#EFEFF0" d="M436.662,525.81c-21.015,0-38.071-17.057-38.071-38.071s17.057-38.071,38.071-38.071     s38.071,17.057,38.071,38.071C474.733,508.754,457.676,525.81,436.662,525.81z M436.662,451.741     c-19.884,0-35.998,16.114-35.998,35.998s16.114,35.998,35.998,35.998c19.884,0,35.998-16.114,35.998-35.998     C472.66,467.855,456.545,451.741,436.662,451.741z"/>
		</g>
		<g>
			<path fill="#EFEFF0" d="M436.662,538.249c-27.8,0-50.51-22.617-50.51-50.51s22.617-50.51,50.51-50.51     c27.894,0,50.51,22.617,50.51,50.51S464.461,538.249,436.662,538.249z M436.662,439.302c-26.763,0-48.437,21.768-48.437,48.437     s21.768,48.437,48.437,48.437s48.437-21.768,48.437-48.437S463.424,439.302,436.662,439.302z"/>
		</g>
		<g>
			<path fill="#EFEFF0" d="M436.662,549.463c-34.019,0-61.724-27.705-61.724-61.724s27.705-61.724,61.724-61.724     s61.724,27.705,61.724,61.724S470.681,549.463,436.662,549.463z M436.662,428.088c-32.888,0-59.651,26.763-59.651,59.651     s26.763,59.651,59.651,59.651s59.651-26.763,59.651-59.651S469.55,428.088,436.662,428.088z"/>
		</g>
	</g>
</g>
<linearGradient id="SVGID_5_-i0" gradientUnits="userSpaceOnUse" x1="-620.4512" y1="5583.1069" x2="49271.6563" y2="5583.1069" gradientTransform="matrix(0.1 0 0 0.1 0 -42)">
	<stop offset="0" style="stop-color:#1C2868"/>
	<stop offset="1" style="stop-color:#151A4F"/>
</linearGradient>
<path fill="url(#SVGID_5_-i0)" d="M244.044,486.608l-41.275,47.118c-2.639,3.298-1.508,9.706,1.79,12.628  c3.487,3.11,10.46,3.298,13.476-0.094l40.898-46.552c3.769-4.335,10.366-4.618,14.889-0.754c4.335,3.769,5.089,10.46,1.131,14.889  l-11.403,13.005l-0.66,0.754c-3.11,3.675-2.073,10.46,1.414,13.57c4.335,3.769,11.12,3.298,14.983-1.131l30.532-34.773  c-21.957-5.371-43.254-12.628-63.986-21.392C245.363,484.818,244.798,485.76,244.044,486.608z"/>
<path fill="#3F436F" d="M244.044,486.608l-41.275,47.118c-2.639,3.298-1.508,9.706,1.79,12.628c3.487,3.11,10.46,3.298,13.476-0.094  l40.898-46.552c3.769-4.335,10.366-4.618,14.889-0.754c4.335,3.769,5.089,10.46,1.131,14.889l-11.403,13.005l-0.66,0.754  c-3.11,3.675-2.073,10.46,1.414,13.57c4.335,3.769,11.12,3.298,14.983-1.131l30.532-34.773  c-21.957-5.371-43.254-12.628-63.986-21.392C245.363,484.818,244.798,485.76,244.044,486.608z"/>
<linearGradient id="SVGID_6_-i0" gradientUnits="userSpaceOnUse" x1="-620.4512" y1="5353.9458" x2="49271.6563" y2="5353.9458" gradientTransform="matrix(0.1 0 0 0.1 0 -42)">
	<stop offset="0" style="stop-color:#1C2868"/>
	<stop offset="1" style="stop-color:#151A4F"/>
</linearGradient>
<path fill="url(#SVGID_6_-i0)" d="M173.555,519.214c3.487,3.016,10.554,3.204,13.287,0.188l39.014-44.573  c-6.314-3.016-12.628-6.22-18.753-9.612l-34.208,38.919C169.032,508.659,169.221,515.35,173.555,519.214z"/>
<path fill="#3F436F" d="M173.555,519.214c3.487,3.016,10.554,3.204,13.287,0.188l39.014-44.573  c-6.314-3.016-12.628-6.22-18.753-9.612l-34.208,38.919C169.032,508.659,169.221,515.35,173.555,519.214z"/>
<path fill="#E7EFFE" d="M331.871,0v93.08c2.45,0.66,4.994,1.131,7.539,1.414V0H331.871z"/>
<path fill="#E7EFFE" d="M348.08,0v49.26c2.262-2.45,4.806-4.712,7.539-6.973V0H348.08z"/>
<g>
	<path fill="#23286B" d="M691.755,0l-6.123,7.043L655.76,41.344c-4.146,4.806-3.958,12.062,0.754,16.303   c3.769,3.298,11.497,3.392,14.512,0.094l6.22-6.973c4.146-4.806,11.403-5.371,15.926-0.942c4.806,4.146,5.654,11.403,1.508,16.114   l-22.617,25.349c-2.827,3.581-1.696,10.554,1.979,13.758c3.864,3.298,11.497,3.487,14.607-0.188l12.156-13.57   c-1.037-3.204-0.283-6.879,2.073-9.518l45.139-51.735L774.121,0H691.755z"/>
</g>
<path fill="#E9F1FE" d="M800,46.901l-65.27,75.111c3.487,1.414,8.104,1.037,10.272-1.508l5.089-5.748  c3.581-4.052,9.612-4.335,13.758-0.754c4.052,3.581,4.712,9.706,1.225,13.758l-26.104,30.06l-0.565,0.66  c-2.827,3.392-1.885,9.612,1.414,12.439c4.052,3.581,10.366,3.016,13.853-1.037L800,116.734V46.901z"/>
<path fill="#484D84" d="M800,20.203c-1.19-0.414-2.332-1.062-3.357-1.948c-4.052-3.581-4.712-9.706-1.225-13.758L799.327,0h-25.17  l-26.14,30.036l-45.139,51.735c-2.356,2.639-3.11,6.314-2.073,9.518l9.989-11.214c4.146-4.806,11.308-5.089,16.114-0.848  c2.262,1.979,3.675,4.618,4.052,7.445c1.414,0.377,2.827,1.131,3.958,2.167c4.052,3.581,4.806,9.706,1.319,13.758l-5.466,6.22  c-2.45,3.11-1.414,8.952,1.696,11.779c0.66,0.565,1.414,0.942,2.262,1.319L800,46.803V20.203z"/>
<path fill="#23286B" d="M800,0h-0.674l-3.91,4.499c-3.486,4.051-2.826,10.177,1.226,13.758c1.026,0.886,2.167,1.534,3.358,1.948V0z"/>
<linearGradient id="SVGID_7_-i0" gradientUnits="userSpaceOnUse" x1="764.0568" y1="292.0031" x2="741.7885" y2="315.2348">
	<stop offset="0" style="stop-color:#1C2868"/>
	<stop offset="1" style="stop-color:#151A4F"/>
</linearGradient>
<path fill="url(#SVGID_7_-i0)" d="M800,265.427c-0.021-0.027-0.038-0.057-0.059-0.084c-9.518-12.251-35.15-8.199-57.39,9.047  c-22.24,17.15-32.512,41.086-22.994,53.337s35.15,8.199,57.39-9.047c10.836-8.438,18.819-18.455,23.053-27.921V265.427z"/>
<g>
	<g>
		<path opacity="0.81" fill="#F3F3F3" enable-background="new    " d="M597.428,317.644l39.014-10.743    c1.791-1.131,3.487-2.262,5.089-3.487l-50.699,14.041C592.904,317.549,595.166,317.644,597.428,317.644z"/>
		<path opacity="0.81" fill="#F3F3F3" enable-background="new    " d="M580.842,315.853l67.473-18.753    c0.848-0.942,1.696-1.885,2.45-2.827l-74.069,20.543C578.015,315.193,579.429,315.476,580.842,315.853z"/>
		<path opacity="0.81" fill="#F3F3F3" enable-background="new    " d="M569.911,312.366l84.529-23.465    c0.471-0.848,0.942-1.602,1.319-2.45l-88.864,24.69C567.932,311.518,568.969,311.989,569.911,312.366z"/>
		<path opacity="0.81" fill="#F3F3F3" enable-background="new    " d="M561.712,308.22l96.215-26.669    c0.283-0.754,0.565-1.602,0.754-2.45l-99.324,27.611C560.11,307.278,560.864,307.749,561.712,308.22z"/>
		<path opacity="0.81" fill="#F3F3F3" enable-background="new    " d="M555.116,303.602l104.602-28.93    c0.094-0.754,0.188-1.414,0.283-2.167L553.325,302C553.891,302.566,554.55,303.131,555.116,303.602z"/>
		<path opacity="0.81" fill="#F3F3F3" enable-background="new    " d="M660.094,266.002l-111.575,30.909    c0.471,0.565,1.037,1.225,1.508,1.79l110.162-30.627C660.189,267.416,660.094,266.662,660.094,266.002z"/>
		<path opacity="0.81" fill="#F3F3F3" enable-background="new    " d="M659.058,259.877l-114.214,31.757    c0.377,0.66,0.754,1.225,1.131,1.79l113.554-31.569C659.341,261.196,659.246,260.537,659.058,259.877z"/>
		<path opacity="0.81" fill="#F3F3F3" enable-background="new    " d="M656.985,253.94l-114.873,31.946    c0.283,0.66,0.471,1.319,0.754,1.885l114.873-31.852C657.55,255.259,657.267,254.6,656.985,253.94z"/>
		<path opacity="0.81" fill="#F3F3F3" enable-background="new    " d="M653.969,248.38l-113.083,31.381l0.188,2.073L655.1,250.265    C654.723,249.605,654.346,248.946,653.969,248.38z"/>
		<path opacity="0.81" fill="#F3F3F3" enable-background="new    " d="M649.823,243.103l-109.408,30.344l0.094,2.167l110.821-30.721    C650.859,244.234,650.388,243.668,649.823,243.103z"/>
		<path opacity="0.81" fill="#F3F3F3" enable-background="new    " d="M644.64,238.109l-104.319,28.93    c-0.094,0.565-0.188,1.131-0.283,1.602v0.565l106.486-29.496C645.865,239.239,645.205,238.674,644.64,238.109z"/>
		<path opacity="0.81" fill="#F3F3F3" enable-background="new    " d="M638.043,233.585l-95.932,26.669    c-0.283,0.754-0.565,1.508-0.754,2.356l99.042-27.517C639.645,234.528,638.797,234.056,638.043,233.585z"/>
		<path opacity="0.81" fill="#F3F3F3" enable-background="new    " d="M629.656,229.439l-84.058,23.276    c-0.471,0.848-0.942,1.696-1.414,2.544l88.582-24.501C631.73,230.287,630.693,229.816,629.656,229.439z"/>
		<path opacity="0.81" fill="#F3F3F3" enable-background="new    " d="M618.819,226.046l-66.907,18.47    c-0.848,0.942-1.696,1.885-2.45,2.827l73.41-20.355C621.552,226.706,620.139,226.329,618.819,226.046z"/>
		<path opacity="0.81" fill="#F3F3F3" enable-background="new    " d="M601.857,224.256l-37.694,10.46    c-1.885,1.131-3.675,2.356-5.466,3.675l50.039-13.853C606.474,224.35,604.213,224.256,601.857,224.256z"/>
	</g>
	<g>
		<rect x="684.219" y="150.846" fill="#23286B" width="4.241" height="4.241"/>
		<rect x="660.566" y="150.846" fill="#23286B" width="4.241" height="4.241"/>
		<rect x="636.913" y="150.846" fill="#23286B" width="4.241" height="4.241"/>
		<rect x="613.165" y="150.846" fill="#23286B" width="4.241" height="4.241"/>
		<path fill="#23286B" d="M593.753,151.506c-1.414,1.131-2.827,2.356-4.146,3.581h4.146V151.506z"/>
		<rect x="707.872" y="173.84" fill="#23286B" width="4.241" height="4.241"/>
		<rect x="684.219" y="173.84" fill="#23286B" width="4.241" height="4.241"/>
		<rect x="660.566" y="173.84" fill="#23286B" width="4.241" height="4.241"/>
		<rect x="636.913" y="173.84" fill="#23286B" width="4.241" height="4.241"/>
		<rect x="613.165" y="173.84" fill="#23286B" width="4.241" height="4.241"/>
		<rect x="589.512" y="173.84" fill="#23286B" width="4.241" height="4.241"/>
		<rect x="707.872" y="196.928" fill="#23286B" width="4.241" height="4.241"/>
		<rect x="684.219" y="196.928" fill="#23286B" width="4.241" height="4.241"/>
		<rect x="660.566" y="196.928" fill="#23286B" width="4.241" height="4.241"/>
		<rect x="636.913" y="196.928" fill="#23286B" width="4.241" height="4.241"/>
		<rect x="613.165" y="196.928" fill="#23286B" width="4.241" height="4.241"/>
		<rect x="589.512" y="196.928" fill="#23286B" width="4.241" height="4.241"/>
		<path fill="#23286B" d="M565.859,196.928v0.188C565.859,197.022,565.859,197.022,565.859,196.928L565.859,196.928z"/>
		<path fill="#23286B" d="M570.099,201.168v-4.241h-4.241c0,0.094,0,0.094,0,0.188v4.052L570.099,201.168L570.099,201.168z"/>
		<rect x="707.872" y="219.921" fill="#23286B" width="4.241" height="4.241"/>
		<rect x="684.219" y="219.921" fill="#23286B" width="4.241" height="4.241"/>
		<rect x="660.566" y="219.921" fill="#23286B" width="4.241" height="4.241"/>
		<rect x="636.913" y="219.921" fill="#23286B" width="4.241" height="4.241"/>
		<rect x="613.165" y="219.921" fill="#23286B" width="4.241" height="4.241"/>
		<rect x="589.512" y="219.921" fill="#23286B" width="4.241" height="4.241"/>
		<rect x="565.859" y="219.921" fill="#23286B" width="4.241" height="4.241"/>
		<rect x="707.872" y="242.915" fill="#23286B" width="4.241" height="4.241"/>
		<rect x="684.219" y="242.915" fill="#23286B" width="4.241" height="4.241"/>
		<rect x="660.566" y="242.915" fill="#23286B" width="4.241" height="4.241"/>
		<rect x="636.913" y="242.915" fill="#23286B" width="4.241" height="4.241"/>
		<rect x="613.165" y="242.915" fill="#23286B" width="4.241" height="4.241"/>
		<rect x="589.512" y="242.915" fill="#23286B" width="4.241" height="4.241"/>
		<path fill="#23286B" d="M569.628,242.915c0.188,0.377,0.283,0.754,0.471,1.037v-1.037H569.628z"/>
		<rect x="684.219" y="266.002" fill="#23286B" width="4.241" height="4.241"/>
		<rect x="660.566" y="266.002" fill="#23286B" width="4.241" height="4.241"/>
		<rect x="636.913" y="266.002" fill="#23286B" width="4.241" height="4.241"/>
		<rect x="613.165" y="266.002" fill="#23286B" width="4.241" height="4.241"/>
		<rect x="589.512" y="266.002" fill="#23286B" width="4.241" height="4.241"/>
		<path fill="#23286B" d="M660.566,288.996v2.827c1.414-0.283,2.827-0.66,4.241-1.037v-1.79H660.566z"/>
		<path fill="#23286B" d="M636.913,293.236h0.283C637.101,293.236,637.007,293.236,636.913,293.236L636.913,293.236z"/>
		<path fill="#23286B" d="M641.153,288.996h-4.241v4.241c0.094,0,0.188,0,0.283,0h3.958V288.996z"/>
		<path fill="#23286B" d="M617.406,288.996L617.406,288.996L617.406,288.996L617.406,288.996z"/>
	</g>
	<path fill="#23286B" d="M800,466.99c-46.96-63.739-101.084-124.594-161.203-181.386c-0.377-0.377-0.942-0.377-1.319,0   s-0.377,0.942,0,1.319C698.237,344.239,752.736,405.706,800,470.048V466.99z"/>
	<g>
		<path fill="#D4DE4E" d="M641.342,252.998v9.989c1.131,4.712,3.769,8.858,7.539,11.874v-33.736    C645.111,244.14,642.472,248.192,641.342,252.998z"/>
		<path fill="#D4DE4E" d="M662.356,236.318c-2.544,0-4.995,0.471-7.256,1.225v40.804c2.262,0.848,4.712,1.225,7.256,1.225    c0.094,0,0.094,0,0.188,0v-43.254C662.45,236.318,662.45,236.318,662.356,236.318z"/>
		<path fill="#D4DE4E" d="M682.617,250.453v15.078c0.848-2.356,1.319-4.9,1.319-7.539    C684.03,255.354,683.559,252.809,682.617,250.453z"/>
		<path fill="#D4DE4E" d="M668.858,237.355v41.275c2.827-0.848,5.277-2.262,7.539-4.146v-32.982    C674.136,239.616,671.591,238.203,668.858,237.355z"/>
		<path fill="#E7EFFE" d="M621.175,275.897c1.508,3.958,3.675,7.633,6.314,10.931v-52.112c-2.639,3.298-4.806,6.973-6.314,10.931    V275.897z"/>
		<path fill="#E7EFFE" d="M641.342,252.998v-29.402c-2.262,1.131-4.335,2.45-6.314,3.864v66.625    c1.979,1.508,4.052,2.827,6.314,3.864v-34.961c-0.377-1.602-0.565-3.298-0.565-4.995    C640.776,256.296,640.965,254.6,641.342,252.998z"/>
		<path fill="#D4E3FE" d="M640.776,257.992c0,1.696,0.188,3.392,0.565,4.994v-9.989C640.965,254.6,640.776,256.296,640.776,257.992z    "/>
		<path fill="#E7EFFE" d="M655.1,219.45c-2.167,0.283-4.241,0.66-6.314,1.225v20.449c1.885-1.508,3.958-2.733,6.314-3.487V219.45z"/>
		<path fill="#E7EFFE" d="M648.786,300.87c2.073,0.565,4.146,0.942,6.314,1.225v-23.653c-2.356-0.848-4.429-1.979-6.314-3.487    V300.87z"/>
		<path fill="#D4E3FE" d="M648.786,241.124v33.736c1.885,1.508,3.958,2.733,6.314,3.487v-40.804    C652.838,238.391,650.671,239.616,648.786,241.124z"/>
		<path fill="#E7EFFE" d="M668.858,220.11c-2.073-0.471-4.146-0.754-6.314-0.848v17.057c2.167,0,4.335,0.377,6.314,0.942V220.11z"/>
		<path fill="#E7EFFE" d="M662.545,302.283c2.167-0.094,4.241-0.471,6.314-0.848v-22.711c-1.979,0.66-4.146,0.942-6.314,0.942    V302.283z"/>
		<path fill="#D4E3FE" d="M662.545,236.318v43.254c2.167,0,4.335-0.377,6.314-0.942v-41.275    C666.88,236.695,664.712,236.412,662.545,236.318z"/>
		<path fill="#E7EFFE" d="M676.303,274.484v24.501c2.167-0.942,4.335-2.073,6.314-3.393v-30.061    C681.392,269.018,679.13,272.128,676.303,274.484z"/>
		<path fill="#E7EFFE" d="M682.617,250.453v-24.501c-1.979-1.319-4.146-2.45-6.314-3.392v18.941    C679.13,243.857,681.392,246.967,682.617,250.453z"/>
		<path fill="#D4E3FE" d="M676.303,241.501v32.982c2.827-2.356,4.995-5.466,6.314-8.952v-15.078    C681.392,246.967,679.13,243.857,676.303,241.501z"/>
		<path fill="#E7EFFE" d="M690.156,232.172v57.107c2.45-2.639,4.618-5.466,6.314-8.67v-39.767    C694.773,237.732,692.606,234.81,690.156,232.172z"/>
	</g>
</g>
<path fill="#A1C3FC" d="M56.678,600c30.164-125.572,76.017-247.069,136.426-361.376c0.232-0.439,0.064-0.984-0.375-1.216  c-0.442-0.233-0.984-0.065-1.216,0.375C130.966,352.351,85.024,474.133,54.826,600H56.678z"/>
<g>
	<path fill="#D6E5FE" d="M108.344,305.487l45.233,9.235c2.262-0.094,4.523-0.188,6.879-0.377l-55.034-11.214   C106.271,303.979,107.213,304.827,108.344,305.487z"/>
	<path fill="#D6E5FE" d="M102.407,299.079l69.075,14.135c1.602-0.283,3.204-0.471,4.806-0.754l-74.635-15.266   C101.842,297.854,102.03,298.514,102.407,299.079z"/>
	<path fill="#D6E5FE" d="M101.182,293.613l83.399,17.057c1.319-0.283,2.544-0.66,3.769-0.942l-86.98-17.811   C101.277,292.483,101.277,293.048,101.182,293.613z"/>
	<path fill="#D6E5FE" d="M102.596,288.713l92.728,18.941c1.037-0.377,2.073-0.754,3.11-1.131l-94.99-19.413   C103.067,287.677,102.784,288.148,102.596,288.713z"/>
	<path fill="#D6E5FE" d="M105.706,284.096l98.382,20.166c0.942-0.377,1.79-0.848,2.639-1.225l-99.607-20.355   C106.554,283.153,106.083,283.624,105.706,284.096z"/>
	<path fill="#D6E5FE" d="M110.417,279.761l101.115,20.638c0.754-0.471,1.508-0.848,2.167-1.319l-101.398-20.732   C111.642,278.913,110.983,279.384,110.417,279.761z"/>
	<path fill="#D6E5FE" d="M116.449,275.803l101.021,20.638c0.565-0.471,1.131-0.942,1.696-1.414L118.71,274.578   C117.956,274.955,117.202,275.426,116.449,275.803z"/>
	<path fill="#D6E5FE" d="M123.799,272.128l98.288,20.072c0.471-0.471,0.848-1.037,1.225-1.508l-96.686-19.789   C125.684,271.28,124.741,271.751,123.799,272.128z"/>
	<path fill="#D6E5FE" d="M132.657,268.735l92.539,18.941c0.283-0.565,0.471-1.037,0.66-1.602l-89.807-18.376   C134.919,267.981,133.788,268.358,132.657,268.735z"/>
	<path fill="#D6E5FE" d="M226.422,280.986v-0.094l-78.875-16.114c-1.414,0.283-2.733,0.565-4.146,0.942l83.116,16.962   C226.422,282.117,226.422,281.551,226.422,280.986z"/>
	<path fill="#D6E5FE" d="M223.971,275.143l-62.007-12.722c-0.377,0-0.66,0.094-1.037,0.094c-1.414,0.189-2.921,0.377-4.335,0.565   l68.604,14.041C224.82,276.557,224.443,275.803,223.971,275.143z"/>
	<path fill="#D6E5FE" d="M214.077,267.981l-30.438-6.22c-2.921-0.094-5.937-0.188-8.952-0.094l44.385,9.047   C217.658,269.772,215.961,268.829,214.077,267.981z"/>
</g>
<g>
	<path fill="#23286B" d="M200.13,292.294h-2.639v4.523h4.523v-3.675C201.449,292.86,200.79,292.577,200.13,292.294z"/>
	
		<rect x="172.302" y="292.362" transform="matrix(-0.0035 -1 1 -0.0035 -119.4468 470.2174)" fill="#23286B" width="4.523" height="4.523"/>
	
		<rect x="146.979" y="292.528" transform="matrix(-0.0035 -1 1 -0.0035 -145.0247 445.0616)" fill="#23286B" width="4.523" height="4.523"/>
	
		<rect x="121.789" y="292.597" transform="matrix(-0.0035 -1 1 -0.0035 -170.3713 419.9401)" fill="#23286B" width="4.523" height="4.523"/>
	
		<rect x="222.921" y="316.744" transform="matrix(-0.0035 -1 1 -0.0035 -93.0325 545.303)" fill="#23286B" width="4.523" height="4.523"/>
	
		<rect x="197.664" y="316.882" transform="matrix(-0.0035 -1 1 -0.0035 -118.516 520.1843)" fill="#23286B" width="4.523" height="4.523"/>
	
		<rect x="172.312" y="316.978" transform="matrix(-0.0035 -1 1 -0.0035 -144.0527 494.9296)" fill="#23286B" width="4.523" height="4.523"/>
	
		<rect x="147.151" y="317.023" transform="matrix(-0.0035 -1 1 -0.0035 -169.3473 469.8139)" fill="#23286B" width="4.523" height="4.523"/>
	
		<rect x="121.802" y="317.121" transform="matrix(-0.0035 -1 1 -0.0035 -194.8833 444.5634)" fill="#23286B" width="4.523" height="4.523"/>
	
		<rect x="248.264" y="341.302" transform="matrix(0.0035 1 -1 0.0035 593.2102 91.8368)" fill="#23286B" width="4.523" height="4.523"/>
	
		<rect x="223" y="341.334" transform="matrix(-0.0035 -1 1 -0.0035 -117.5437 570.0583)" fill="#23286B" width="4.523" height="4.523"/>
	
		<rect x="197.769" y="341.404" transform="matrix(-0.0035 -1 1 -0.0035 -142.9327 544.8978)" fill="#23286B" width="4.523" height="4.523"/>
	
		<rect x="172.447" y="341.573" transform="matrix(-0.0035 -1 1 -0.0035 -168.5125 519.7448)" fill="#23286B" width="4.523" height="4.523"/>
	<path fill="#23286B" d="M147.169,341.579v1.602c1.414,0.942,2.921,1.979,4.429,2.921h0.094v-4.523L147.169,341.579z"/>
	
		<rect x="223.131" y="365.925" transform="matrix(-0.0035 -1 1 -0.0035 -142.0027 594.8658)" fill="#23286B" width="4.523" height="4.523"/>
	<path fill="#23286B" d="M197.774,365.986v2.167c1.508,0.471,3.016,1.037,4.523,1.508v-3.675H197.774z"/>
</g>

      </g>
    </g>
</g>

              </svg>