<svg id="Слой_1" xmlns="http://www.w3.org/2000/svg" viewBox="0 0 26.7 41.3"><style>.st0{display:none;fill:#b4ecf4}.st1{fill:none;stroke:#0078ff;stroke-width:2;stroke-linecap:round;stroke-linejoin:round;stroke-miterlimit:10}</style><path class="st0" d="M12.2 35.7H1V1h24.7v34.7h-3.6"/><path class="st1" d="M12.2 35.7H1V1h24.7v34.7h-3.6"/><path class="st0" d="M19.3 40.3l-2-1.7-2.1 1.7V29.9h4.1z"/><path class="st1" d="M19.3 40.3l-2-1.7-2.1 1.7V29.9h4.1zM5.1 8h16.5M5.1 13.1h16.5m-16.5 5h6m7.1 0h3.4"/><path class="st0" d="M21.3 28.9c0 2.2-1.8 4-4 4s-4-1.8-4-4 1.8-4 4-4 4 1.7 4 4"/><circle class="st1" cx="17.3" cy="28.9" r="4"/></svg>