<svg id="Слой_1" xmlns="http://www.w3.org/2000/svg" viewBox="0 0 40.7 33.6"><style>.st0{display:none;fill:#baf6da}.st1{fill:none;stroke:#01d295;stroke-width:2;stroke-linecap:round;stroke-linejoin:round;stroke-miterlimit:10}.st2{fill:#ccf6da}.st3{fill:#01d295}</style><path class="st0" d="M24.3 19.9c-5.4 1-10.5-.1-15.5-1.7V7.8c7.5 2.4 15.6 2.4 23.1 0v10.4c-.5.2-.7.3-1.2.5"/><path class="st1" d="M24.3 19.9c-5.4 1-10.5-.1-15.5-1.7V7.8c7.5 2.4 15.6 2.4 23.1 0v10.4c-.5.2-.7.3-1.2.5"/><path class="st0" d="M27.8 24.4l-3 6.8c.7.8 1.8 1.3 3 1.3s2.2-.5 3-1.3l-3-6.8z"/><path class="st1" d="M27.8 24.4l-3 6.8c.7.8 1.8 1.3 3 1.3s2.2-.5 3-1.3l-3-6.8z"/><path class="st2" d="M39.7 7.2l-19.3 5.3L1 7.2 20.4 1z" id="XMLID_1_"/><path class="st1" d="M20.4 1L1 7.2l19.4 5.3 19.3-5.3z"/><path class="st1" d="M19.8 7.3l7.9 3.8v12.5"/><path class="st3" d="M28.9 24.4c0 .6-.5 1.1-1.1 1.1-.6 0-1.1-.5-1.1-1.1 0-.6.5-1.1 1.1-1.1.6 0 1.1.5 1.1 1.1"/><path class="st1" d="M28.9 24.4c0 .6-.5 1.1-1.1 1.1-.6 0-1.1-.5-1.1-1.1 0-.6.5-1.1 1.1-1.1.6 0 1.1.5 1.1 1.1z"/></svg>