<?xml version="1.0" encoding="utf-8"?>
<!-- Generator: Adobe Illustrator 24.0.1, SVG Export Plug-In . SVG Version: 6.00 Build 0)  -->
<svg version="1.1" id="Слой_1" xmlns="http://www.w3.org/2000/svg" xmlns:xlink="http://www.w3.org/1999/xlink" x="0px" y="0px"
	 viewBox="0 0 42.9 42.6" style="enable-background:new 0 0 42.9 42.6;" xml:space="preserve">
<style type="text/css">
	.st0{fill:#8656BF;}
</style>
<g>
	<g>
		<path class="st0" d="M38.7,9.7h-5.3c-0.5,0-0.8,0.4-0.8,0.8c0,0.5,0.4,0.8,0.8,0.8h5.3c1.4,0,2.5,1.1,2.5,2.5v11.9
			c0,1.4-1.1,2.5-2.5,2.5h-1.2c-0.2,0-0.4,0.1-0.6,0.2l-2.7,2.7l-2.7-2.7c-0.2-0.2-0.4-0.2-0.6-0.2H20c-1.4,0-2.5-1.1-2.5-2.5v-3
			c0-0.5-0.4-0.8-0.8-0.8c-0.5,0-0.8,0.4-0.8,0.8v3c0,2.3,1.9,4.1,4.1,4.1h10.6l3.1,3.1c0.2,0.2,0.4,0.2,0.6,0.2
			c0.2,0,0.4-0.1,0.6-0.2l3.1-3.1h0.8c2.3,0,4.1-1.9,4.1-4.1V13.8C42.9,11.5,41,9.7,38.7,9.7z"/>
	</g>
</g>
<g>
	<g>
		<path class="st0" d="M23,0H4.2C1.9,0,0.1,1.9,0.1,4.2v11.9c0,2.3,1.9,4.1,4.1,4.1H6L9,23.4c0.2,0.2,0.4,0.2,0.6,0.2
			s0.4-0.1,0.6-0.2l3.1-3.1H23c2.3,0,4.1-1.9,4.1-4.1V4.2C27.1,1.9,25.3,0,23,0z M25.5,16.1c0,1.4-1.1,2.5-2.5,2.5h-10
			c-0.2,0-0.4,0.1-0.6,0.2l-2.7,2.7l-2.7-2.7c-0.2-0.2-0.4-0.2-0.6-0.2H4.2c-1.4,0-2.5-1.1-2.5-2.5V4.2c0-1.4,1.1-2.5,2.5-2.5H23
			c1.4,0,2.5,1.1,2.5,2.5V16.1z"/>
	</g>
</g>
<g>
	<g>
		<path class="st0" d="M34.1,23l-2.9-7c-0.1-0.3-0.4-0.5-0.8-0.5c-0.3,0-0.6,0.2-0.8,0.5l-2.9,7c-0.2,0.4,0,0.9,0.4,1.1
			c0.4,0.2,0.9,0,1.1-0.4l0.4-1h3.5l0.4,1c0.1,0.3,0.4,0.5,0.8,0.5c0.1,0,0.2,0,0.3-0.1C34.1,23.9,34.3,23.4,34.1,23z M29.3,21
			l1.1-2.5l1.1,2.5H29.3z"/>
	</g>
</g>
<g>
	<g>
		<path class="st0" d="M17.4,13.1l-0.8-0.6c0.2-0.5,0.4-1.1,0.4-1.7V9.5c0-2.1-1.7-3.8-3.8-3.8S9.4,7.4,9.4,9.5v1.3
			c0,2.1,1.7,3.8,3.8,3.8c0.9,0,1.8-0.3,2.4-0.9l0.8,0.6c0.1,0.1,0.3,0.2,0.5,0.2c0.3,0,0.5-0.1,0.7-0.3
			C17.9,13.9,17.8,13.3,17.4,13.1z M15.4,10.8c0,0.2,0,0.4-0.1,0.6l-0.9-0.6c-0.4-0.3-0.9-0.2-1.2,0.2c-0.3,0.4-0.2,0.9,0.2,1.2
			l0.8,0.6c-0.3,0.2-0.6,0.2-1,0.2c-1.2,0-2.2-1-2.2-2.2V9.5h0c0-1.2,1-2.2,2.2-2.2s2.2,1,2.2,2.2L15.4,10.8L15.4,10.8z"/>
	</g>
</g>
<g>
	<g>
		<path class="st0" d="M32.4,37.1l-7.2-3.9c-0.1-0.1-0.3-0.1-0.4-0.1H3c-1.6,0-2.9,1.3-2.9,2.9v3.5c0,1.6,1.3,2.9,2.9,2.9h21.7
			c0.1,0,0.3,0,0.4-0.1l7.2-3.9c0.3-0.1,0.4-0.4,0.4-0.7S32.6,37.2,32.4,37.1z M5.5,40.9H3c-0.7,0-1.3-0.6-1.3-1.3v-3.5
			c0-0.7,0.6-1.3,1.3-1.3h2.5V40.9z M24,40.9H7.2v-2.3h10.6c0.5,0,0.8-0.4,0.8-0.8s-0.4-0.8-0.8-0.8H7.2v-2.1H24V40.9z M25.6,40.3
			v-4.9l4.6,2.5L25.6,40.3z"/>
	</g>
</g>
</svg>
