<?xml version="1.0" encoding="utf-8"?>
<!-- Generator: Adobe Illustrator 24.0.1, SVG Export Plug-In . SVG Version: 6.00 Build 0)  -->
<svg version="1.1" id="Слой_1" xmlns="http://www.w3.org/2000/svg" xmlns:xlink="http://www.w3.org/1999/xlink" x="0px" y="0px"
	 viewBox="0 0 40.8 35.1" style="enable-background:new 0 0 40.8 35.1;" xml:space="preserve">
<style type="text/css">
	.st0{fill:#F5B712;}
	.st1{fill:none;stroke:#F5B712;stroke-width:2;stroke-linecap:round;stroke-linejoin:round;stroke-miterlimit:10;}
</style>
<g>
	<path class="st0" d="M14.9,33h-2.4v-1.9c-1.3,1.4-3,2.2-5.2,2.2c-4.6,0-6.5-2-6.5-7.1v-9.1h2.4v9.1c0,3.2,1.5,4.7,4.1,4.7
		c3.2,0,5.2-1.8,5.2-5.3v-8.5h2.4V33z"/>
	<path class="st0" d="M18.1,25.1c0-4.5,3.7-8.3,8.3-8.3c2.4,0,4.6,1.1,6,2.9v-1.9h2.4v15.3h-2.4v-2.6c-1.5,1.8-3.6,2.9-6,2.9
		C21.8,33.4,18.1,29.5,18.1,25.1z M32.3,25.1c0-3.2-2.8-5.9-5.9-5.9c-3.2,0-5.7,2.6-5.7,5.9c0,3.2,2.4,5.9,5.7,5.9
		C29.5,31,32.3,28.2,32.3,25.1z"/>
	<g>
		<path class="st1" d="M19.6,11.8c4.2-4.2,11.1-4.2,15.4,0"/>
		<path class="st1" d="M14.8,6.8c6.9-6.9,18.1-6.9,24.9,0"/>
	</g>
</g>
</svg>
