<?xml version="1.0" encoding="utf-8"?>
<!-- Generator: Adobe Illustrator 24.0.1, SVG Export Plug-In . SVG Version: 6.00 Build 0)  -->
<svg version="1.1" id="Слой_1" xmlns="http://www.w3.org/2000/svg" xmlns:xlink="http://www.w3.org/1999/xlink" x="0px" y="0px"
	 viewBox="0 0 48.2 43.1" style="enable-background:new 0 0 48.2 43.1;" xml:space="preserve">
<style type="text/css">
	.st0{fill:#FF7855;}
</style>
<g id="XMLID_258_">
	<path id="XMLID_284_" class="st0" d="M22.9,17.7H10.7c-1.7,0-3.2,1.4-3.2,3.2v8.4c0,1.7,1.4,3.2,3.2,3.2h12.1
		c1.7,0,3.2-1.4,3.2-3.2v-8.4C26,19.1,24.6,17.7,22.9,17.7L22.9,17.7z M24.1,29.2c0,0.7-0.6,1.3-1.3,1.3H10.7
		c-0.7,0-1.3-0.6-1.3-1.3v-8.4c0-0.7,0.6-1.3,1.3-1.3h12.1c0.7,0,1.3,0.6,1.3,1.3V29.2z"/>
	<path id="XMLID_285_" class="st0" d="M18.5,24.2L16,22.8c-0.3-0.2-0.6-0.2-0.9,0c-0.3,0.2-0.5,0.5-0.5,0.8v2.9
		c0,0.3,0.2,0.6,0.5,0.8c0.1,0.1,0.3,0.1,0.5,0.1s0.3,0,0.5-0.1l2.5-1.4c0.3-0.2,0.5-0.5,0.5-0.8C19,24.7,18.8,24.4,18.5,24.2z"/>
	<path id="XMLID_288_" class="st0" d="M47.7,6.2L35.9,0.1c-0.3-0.1-0.6-0.1-0.9,0L23.3,6.2c-0.3,0.2-0.5,0.5-0.5,0.8
		c0,0.4,0.2,0.7,0.5,0.8l4.5,2.4v2H9c-3.5,0-6.3,2.8-6.3,6.3v17.4H1c-0.5,0-0.9,0.4-0.9,0.9c0,3.4,2.8,6.2,6.2,6.2h30.7
		c3.4,0,6.2-2.8,6.2-6.2c0-0.5-0.4-0.9-0.9-0.9h-1.7V18.5c0-0.1,0-0.3,0-0.4l2.1-0.9c0.3-0.1,0.6-0.5,0.6-0.9v-6.1l3.1-1.6v5.8
		c0,0.5,0.4,0.9,0.9,0.9s0.9-0.4,0.9-0.9V7.1C48.2,6.7,48,6.4,47.7,6.2L47.7,6.2z M38.6,35.9H26.1c-0.5,0-0.9,0.4-0.9,0.9
		s0.4,0.9,0.9,0.9h15c-0.4,1.9-2.2,3.4-4.2,3.4H6.2c-2.1,0-3.8-1.5-4.2-3.4h17c0.5,0,0.9-0.4,0.9-0.9s-0.4-0.9-0.9-0.9H4.5V18.5
		c0-2.4,2-4.4,4.4-4.4h18.9v2.3c0,0.4,0.2,0.7,0.6,0.9l6.7,2.9c0.1,0,0.2,0.1,0.4,0.1c0.1,0,0.3,0,0.4-0.1l2.7-1.2V35.9z M41.3,15.7
		l-5.8,2.5l-5.8-2.5v-4.5l5.3,2.8c0.1,0.1,0.3,0.1,0.4,0.1c0.1,0,0.3,0,0.4-0.1l5.3-2.8L41.3,15.7z M35.5,12.1l-9.7-5.1L35.5,2
		l9.7,5.1L35.5,12.1z"/>
	<path id="XMLID_297_" class="st0" d="M35,30.5h-5.1c-0.5,0-0.9,0.4-0.9,0.9c0,0.5,0.4,0.9,0.9,0.9H35c0.5,0,0.9-0.4,0.9-0.9
		C35.9,30.9,35.5,30.5,35,30.5z"/>
	<path id="XMLID_298_" class="st0" d="M35,26h-5.1c-0.5,0-0.9,0.4-0.9,0.9s0.4,0.9,0.9,0.9H35c0.5,0,0.9-0.4,0.9-0.9S35.5,26,35,26z
		"/>
</g>
</svg>
